{
.appVersion = "3343";
.formatVersion = 3;
axes = (
{
hidden = 1;
name = Weight;
tag = wght;
}
);
customParameters = (
{
name = unicodeRanges;
value = (
0,
1
);
},
{
name = fsType;
value = (
);
},
{
name = glyphOrder;
value = (
.notdef,
.null,
CR,
space,
exclam,
quotedbl,
numbersign,
dollar,
percent,
ampersand,
quotesingle,
parenleft,
parenright,
asterisk,
plus,
comma,
hyphen,
period,
slash,
zero,
one,
two,
three,
four,
five,
six,
seven,
eight,
nine,
colon,
semicolon,
less,
equal,
greater,
question,
at,
A,
B,
C,
D,
E,
F,
G,
H,
I,
J,
K,
L,
M,
N,
O,
P,
Q,
R,
S,
T,
U,
V,
W,
X,
Y,
Z,
bracketleft,
backslash,
bracketright,
asciicircum,
underscore,
grave,
a,
b,
c,
d,
e,
f,
g,
h,
i,
j,
k,
l,
m,
n,
o,
p,
q,
r,
s,
t,
u,
v,
w,
x,
y,
z,
braceleft,
bar,
braceright,
asciitilde,
Aring,
Ccedilla,
aring,
ccedilla,
udieresis,
dagger,
degree,
cent,
sterling,
section,
bullet,
paragraph,
registered,
acute,
dieresis,
AE,
Oslash,
plusminus,
yen,
mu,
ordfeminine,
ae,
questiondown,
exclamdown,
florin,
ellipsis,
nonbreakingspace,
OE,
oe,
endash,
emdash,
quotedblleft,
quotedblright,
quoteleft,
quoteright,
ydieresis,
currency,
guilsinglleft,
periodcentered,
quotesinglbase,
perthousand,
Iacute,
Icircumflex,
icircumflex,
Idieresis,
idieresis,
Oacute,
Ocircumflex,
Ograve,
Uacute,
circumflex,
tilde,
uni200D,
uni2081,
uni2082,
uni2083,
uni2084,
uni2085,
uni2086,
uni2088,
uni2081_uni2085.liga,
acute.hist,
Iacute_udieresis.liga
);
},
{
name = "Enforce Compatibility Check";
value = 0;
},
{
name = uniqueID;
value = GBNW;
},
{
name = "Export TrueType Hints";
value = 0;
}
);
date = "1997-12-07 18:25:55 +0000";
familyName = OpenGurbaniAkhar;
featurePrefixes = (
{
automatic = 1;
code = "languagesystem DFLT dflt;
";
name = Languagesystems;
}
);
features = (
{
automatic = 1;
code = "feature hist;
feature ordn;
";
tag = aalt;
},
{
automatic = 1;
code = "sub acute by acute.hist;
";
tag = hist;
},
{
code = "lookup SUB_0 {
	sub K ae by asciicircum;
	sub P ae by ampersand;
	sub g ae by Z;
	sub j ae by z;

glyphs = (
{
glyphname = .notdef;
lastChange = "2025-04-20 14:05:12 +0000";
layers = (
{
layerId = m01;
shapes = (
{
closed = 1;
nodes = (
(875,0,l),
(875,1200,l),
(125,1200,l),
(125,0,l)
);
},
{
closed = 1;
nodes = (
(250,1075,l),
(750,1075,l),
(750,125,l),
(250,125,l)
);
}
);
userData = {
assembly = "NPUSHB[ ]	/* 32 values pushed */
1 8 8 64 9 2 7 4 2 1 0 6 5 2 3 2 5 4 4 0 7 6 4 1 2 1 3 0 0 1 0 70
SROUND[ ]	/* SuperRound */
MDAP[1]	/* MoveDirectAbsPt */
SHZ[1]	/* ShiftZoneByLastPoint */
RTG[ ]	/* RoundToGrid */
SVTCA[0]	/* SetFreedomAndProjectionVectorToAxis */
MIAP[1]	/* MoveIndirectAbsPt */
ALIGNRP[ ]	/* AlignRelativePt */
MDAP[1]	/* MoveDirectAbsPt */
ALIGNRP[ ]	/* AlignRelativePt */
SRP0[ ]	/* SetRefPoint0 */
MIRP[11101]	/* MoveIndirectRelPt */
ALIGNRP[ ]	/* AlignRelativePt */
SRP0[ ]	/* SetRefPoint0 */
MIRP[11101]	/* MoveIndirectRelPt */
ALIGNRP[ ]	/* AlignRelativePt */
SVTCA[1]	/* SetFreedomAndProjectionVectorToAxis */
MDAP[1]	/* MoveDirectAbsPt */
ALIGNRP[ ]	/* AlignRelativePt */
MIRP[11101]	/* MoveIndirectRelPt */
ALIGNRP[ ]	/* AlignRelativePt */
MDAP[1]	/* MoveDirectAbsPt */
ALIGNRP[ ]	/* AlignRelativePt */
MIRP[11101]	/* MoveIndirectRelPt */
ALIGNRP[ ]	/* AlignRelativePt */
SVTCA[0]	/* SetFreedomAndProjectionVectorToAxis */
IUP[1]	/* InterpolateUntPts */
IUP[0]	/* InterpolateUntPts */
SVTCA[1]	/* SetFreedomAndProjectionVectorToAxis */
MD[0]	/* MeasureDistance */
ROUND[00]	/* Round */
PUSHW[ ]	/* 2 values pushed */
0 8
MD[0]	/* MeasureDistance */
ROUND[00]	/* Round */
SUB[ ]	/* Subtract */
PUSHB[ ]	/* 1 value pushed */
64
GT[ ]	/* GreaterThan */
IF[ ]	/* If */
SHPIX[ ]	/* ShiftZoneByPixel */
SRP1[ ]	/* SetRefPoint1 */
SHZ[1]	/* ShiftZoneByLastPoint */
PUSHW[ ]	/* 2 values pushed */
8 -64
SHPIX[ ]	/* ShiftZoneByPixel */
EIF[ ]	/* EndIf */";
};
width = 1000;
},
{
layerId = "EFA29B47-3DC8-4F8A-813A-13C07BF7C797";
shapes = (
{
closed = 1;
nodes = (
(875,0,l),
(875,1200,l),
(125,1200,l),
(125,0,l)
);
},
{
closed = 1;
nodes = (
(250,1075,l),
(750,1075,l),
(750,125,l),
(250,125,l)
);
}
);
userData = {
assembly = "NPUSHB[ ]	/* 32 values pushed */
1 8 8 64 9 2 7 4 3 1 0 6 5 3 3 2 5 4 5 0 7 6 5 1 2 1 3 0 0 1 0 70
SROUND[ ]	/* SuperRound */
MDAP[1]	/* MoveDirectAbsPt */
SHZ[1]	/* ShiftZoneByLastPoint */
RTG[ ]	/* RoundToGrid */
SVTCA[0]	/* SetFreedomAndProjectionVectorToAxis */
MIAP[1]	/* MoveIndirectAbsPt */
ALIGNRP[ ]	/* AlignRelativePt */
MDAP[1]	/* MoveDirectAbsPt */
ALIGNRP[ ]	/* AlignRelativePt */
SRP0[ ]	/* SetRefPoint0 */
MIRP[11101]	/* MoveIndirectRelPt */
ALIGNRP[ ]	/* AlignRelativePt */
SRP0[ ]	/* SetRefPoint0 */
MIRP[11101]	/* MoveIndirectRelPt */
ALIGNRP[ ]	/* AlignRelativePt */
SVTCA[1]	/* SetFreedomAndProjectionVectorToAxis */
MDAP[1]	/* MoveDirectAbsPt */
ALIGNRP[ ]	/* AlignRelativePt */
MIRP[11101]	/* MoveIndirectRelPt */
ALIGNRP[ ]	/* AlignRelativePt */
MDAP[1]	/* MoveDirectAbsPt */
ALIGNRP[ ]	/* AlignRelativePt */
MIRP[11101]	/* MoveIndirectRelPt */
ALIGNRP[ ]	/* AlignRelativePt */
SVTCA[0]	/* SetFreedomAndProjectionVectorToAxis */
IUP[1]	/* InterpolateUntPts */
IUP[0]	/* InterpolateUntPts */
SVTCA[1]	/* SetFreedomAndProjectionVectorToAxis */
MD[0]	/* MeasureDistance */
ROUND[00]	/* Round */
PUSHW[ ]	/* 2 values pushed */
0 8
MD[0]	/* MeasureDistance */
ROUND[00]	/* Round */
SUB[ ]	/* Subtract */
PUSHB[ ]	/* 1 value pushed */
64
GT[ ]	/* GreaterThan */
IF[ ]	/* If */
SHPIX[ ]	/* ShiftZoneByPixel */
SRP1[ ]	/* SetRefPoint1 */
SHZ[1]	/* ShiftZoneByLastPoint */
PUSHW[ ]	/* 2 values pushed */
8 -64
SHPIX[ ]	/* ShiftZoneByPixel */
EIF[ ]	/* EndIf */";
};
width = 1000;
},
{
layerId = "3C10D975-8B50-4E95-9C62-C508D3823290";
shapes = (
{
closed = 1;
nodes = (
(875,0,l),
(875,1200,l),
(125,1200,l),
(125,0,l)
);
},
{
closed = 1;
nodes = (
(250,1075,l),
(750,1075,l),
(750,125,l),
(250,125,l)
);
}
);
userData = {
assembly = "NPUSHB[ ]	/* 33 values pushed */
1 8 8 64 9 2 7 4 3 1 0 6 5 3 3 2 5 4 5 0 7 6 5 1 2 1 1 3 0 0 1 0 70
SROUND[ ]	/* SuperRound */
MDAP[1]	/* MoveDirectAbsPt */
SHZ[1]	/* ShiftZoneByLastPoint */
RTG[ ]	/* RoundToGrid */
SVTCA[0]	/* SetFreedomAndProjectionVectorToAxis */
MIAP[1]	/* MoveIndirectAbsPt */
ALIGNRP[ ]	/* AlignRelativePt */
MIAP[1]	/* MoveIndirectAbsPt */
ALIGNRP[ ]	/* AlignRelativePt */
SRP0[ ]	/* SetRefPoint0 */
MIRP[11101]	/* MoveIndirectRelPt */
ALIGNRP[ ]	/* AlignRelativePt */
SRP0[ ]	/* SetRefPoint0 */
MIRP[11101]	/* MoveIndirectRelPt */
ALIGNRP[ ]	/* AlignRelativePt */
SVTCA[1]	/* SetFreedomAndProjectionVectorToAxis */
MDAP[1]	/* MoveDirectAbsPt */
ALIGNRP[ ]	/* AlignRelativePt */
MIRP[11101]	/* MoveIndirectRelPt */
ALIGNRP[ ]	/* AlignRelativePt */
MDAP[1]	/* MoveDirectAbsPt */
ALIGNRP[ ]	/* AlignRelativePt */
MIRP[11101]	/* MoveIndirectRelPt */
ALIGNRP[ ]	/* AlignRelativePt */
SVTCA[0]	/* SetFreedomAndProjectionVectorToAxis */
IUP[1]	/* InterpolateUntPts */
IUP[0]	/* InterpolateUntPts */
SVTCA[1]	/* SetFreedomAndProjectionVectorToAxis */
MD[0]	/* MeasureDistance */
ROUND[00]	/* Round */
PUSHW[ ]	/* 2 values pushed */
0 8
MD[0]	/* MeasureDistance */
ROUND[00]	/* Round */
SUB[ ]	/* Subtract */
PUSHB[ ]	/* 1 value pushed */
64
GT[ ]	/* GreaterThan */
IF[ ]	/* If */
SHPIX[ ]	/* ShiftZoneByPixel */
SRP1[ ]	/* SetRefPoint1 */
SHZ[1]	/* ShiftZoneByLastPoint */
PUSHW[ ]	/* 2 values pushed */
8 -64
SHPIX[ ]	/* ShiftZoneByPixel */
EIF[ ]	/* EndIf */";
};
width = 1000;
}
);
note = .notdef;
},
{
glyphname = exclam;
lastChange = "2025-04-20 14:04:59 +0000";
layers = (
{
layerId = m01;
shapes = (
{
closed = 1;
nodes = (
(650,346,l),
(670,560,ls),
(710,988,o),
(710,1186,qs),
(710,1281,o),
(708,1290,qs),
(696,1340,o),
(634,1340,qs),
(558,1340,o),
(558,1258,q),
(558,1270,o),
(560,1222,q),
(560,1222,o),
(560,1186,qs),
(560,967,o),
(598,560,qs),
(618,346,l)
);
},
{
closed = 1;
nodes = (
(678,4,o),
(738,64,o),
(738,108,qs),
(738,152,o),
(678,212,o),
(634,212,qs),
(590,212,o),
(530,152,o),
(530,108,qs),
(530,64,o),
(590,4,o),
(634,4,qs)
);
}
);
userData = {
assembly = "NPUSHB[ ]	/* 25 values pushed */
1 29 29 64 30 23 16 0 23 17 13 7 5 3 15 3 1 20 4 26 9 26 1 17 70
SROUND[ ]	/* SuperRound */
MDAP[1]	/* MoveDirectAbsPt */
SHZ[1]	/* ShiftZoneByLastPoint */
RTG[ ]	/* RoundToGrid */
SVTCA[0]	/* SetFreedomAndProjectionVectorToAxis */
MDAP[1]	/* MoveDirectAbsPt */
MDAP[1]	/* MoveDirectAbsPt */
SRP0[ ]	/* SetRefPoint0 */
MIRP[11101]	/* MoveIndirectRelPt */
SVTCA[1]	/* SetFreedomAndProjectionVectorToAxis */
MDAP[1]	/* MoveDirectAbsPt */
MIRP[11101]	/* MoveIndirectRelPt */
MDAP[0]	/* MoveDirectAbsPt */
MDAP[0]	/* MoveDirectAbsPt */
MDAP[0]	/* MoveDirectAbsPt */
MDAP[0]	/* MoveDirectAbsPt */
MDAP[0]	/* MoveDirectAbsPt */
MDAP[0]	/* MoveDirectAbsPt */
SVTCA[0]	/* SetFreedomAndProjectionVectorToAxis */
MDAP[0]	/* MoveDirectAbsPt */
MDAP[0]	/* MoveDirectAbsPt */
IUP[1]	/* InterpolateUntPts */
IUP[0]	/* InterpolateUntPts */
SVTCA[1]	/* SetFreedomAndProjectionVectorToAxis */
MD[0]	/* MeasureDistance */
ROUND[00]	/* Round */
PUSHW[ ]	/* 2 values pushed */
17 29
MD[0]	/* MeasureDistance */
ROUND[00]	/* Round */
SUB[ ]	/* Subtract */
PUSHB[ ]	/* 1 value pushed */
64
GT[ ]	/* GreaterThan */
IF[ ]	/* If */
SHPIX[ ]	/* ShiftZoneByPixel */
SRP1[ ]	/* SetRefPoint1 */
SHZ[1]	/* ShiftZoneByLastPoint */
PUSHW[ ]	/* 2 values pushed */
29 -64
SHPIX[ ]	/* ShiftZoneByPixel */
EIF[ ]	/* EndIf */";
};
width = 964;
},
{
layerId = "EFA29B47-3DC8-4F8A-813A-13C07BF7C797";
shapes = (
{
closed = 1;
nodes = (
(670,336,l),
(714,548,ls),
(771,851,o),
(786,1166,qs),
(787,1193,o),
(787,1209,qs),
(787,1275,o),
(767,1304,qs),
(740,1340,o),
(672,1340,qs),
(599,1340,o),
(573,1285,qs),
(556,1249,o),
(556,1170,qs),
(556,890,o),
(596,542,qs),
(622,336,l)
);
},
{
closed = 1;
nodes = (
(699,-20,o),
(738,9,qs),
(784,44,o),
(784,104,qs),
(784,158,o),
(703,238,o),
(648,238,qs),
(593,238,o),
(518,163,o),
(518,104,qs),
(518,41,o),
(563,8,qs),
(599,-20,o),
(648,-20,qs)
);
}
);
userData = {
assembly = "NPUSHB[ ]	/* 21 values pushed */
1 31 31 64 32 4 10 9 28 20 13 4 17 4 24 0 24 0 1 28 70
SROUND[ ]	/* SuperRound */
MDAP[1]	/* MoveDirectAbsPt */
SHZ[1]	/* ShiftZoneByLastPoint */
RTG[ ]	/* RoundToGrid */
SVTCA[0]	/* SetFreedomAndProjectionVectorToAxis */
MIAP[1]	/* MoveIndirectAbsPt */
MDAP[1]	/* MoveDirectAbsPt */
SRP0[ ]	/* SetRefPoint0 */
MIRP[11101]	/* MoveIndirectRelPt */
SVTCA[1]	/* SetFreedomAndProjectionVectorToAxis */
MDAP[0]	/* MoveDirectAbsPt */
MDAP[0]	/* MoveDirectAbsPt */
MDAP[0]	/* MoveDirectAbsPt */
MDAP[0]	/* MoveDirectAbsPt */
SVTCA[0]	/* SetFreedomAndProjectionVectorToAxis */
MDAP[0]	/* MoveDirectAbsPt */
MDAP[0]	/* MoveDirectAbsPt */
IUP[1]	/* InterpolateUntPts */
IUP[0]	/* InterpolateUntPts */
SVTCA[1]	/* SetFreedomAndProjectionVectorToAxis */
MD[0]	/* MeasureDistance */
ROUND[00]	/* Round */
PUSHW[ ]	/* 2 values pushed */
28 31
MD[0]	/* MeasureDistance */
ROUND[00]	/* Round */
SUB[ ]	/* Subtract */
PUSHB[ ]	/* 1 value pushed */
64
GT[ ]	/* GreaterThan */
IF[ ]	/* If */
SHPIX[ ]	/* ShiftZoneByPixel */
SRP1[ ]	/* SetRefPoint1 */
SHZ[1]	/* ShiftZoneByLastPoint */
PUSHW[ ]	/* 2 values pushed */
31 -64
SHPIX[ ]	/* ShiftZoneByPixel */
EIF[ ]	/* EndIf */";
};
width = 964;
},
{
layerId = "3C10D975-8B50-4E95-9C62-C508D3823290";
shapes = (
{
closed = 1;
nodes = (
(670,336,l),
(714,548,ls),
(771,851,o),
(786,1166,qs),
(787,1193,o),
(787,1209,qs),
(787,1275,o),
(767,1304,qs),
(740,1340,o),
(672,1340,qs),
(599,1340,o),
(573,1285,qs),
(556,1249,o),
(556,1170,qs),
(556,890,o),
(596,542,qs),
(622,336,l)
);
},
{
closed = 1;
nodes = (
(699,-20,o),
(738,9,qs),
(784,44,o),
(784,104,qs),
(784,158,o),
(703,238,o),
(648,238,qs),
(593,238,o),
(518,163,o),
(518,104,qs),
(518,41,o),
(563,8,qs),
(599,-20,o),
(648,-20,qs)
);
}
);
userData = {
assembly = "NPUSHB[ ]	/* 21 values pushed */
1 31 31 64 32 4 10 9 28 20 13 4 17 4 24 0 24 0 1 28 70
SROUND[ ]	/* SuperRound */
MDAP[1]	/* MoveDirectAbsPt */
SHZ[1]	/* ShiftZoneByLastPoint */
RTG[ ]	/* RoundToGrid */
SVTCA[0]	/* SetFreedomAndProjectionVectorToAxis */
MIAP[1]	/* MoveIndirectAbsPt */
MDAP[1]	/* MoveDirectAbsPt */
SRP0[ ]	/* SetRefPoint0 */
MIRP[11101]	/* MoveIndirectRelPt */
SVTCA[1]	/* SetFreedomAndProjectionVectorToAxis */
MDAP[0]	/* MoveDirectAbsPt */
MDAP[0]	/* MoveDirectAbsPt */
MDAP[0]	/* MoveDirectAbsPt */
MDAP[0]	/* MoveDirectAbsPt */
SVTCA[0]	/* SetFreedomAndProjectionVectorToAxis */
MDAP[0]	/* MoveDirectAbsPt */
MDAP[0]	/* MoveDirectAbsPt */
IUP[1]	/* InterpolateUntPts */
IUP[0]	/* InterpolateUntPts */
SVTCA[1]	/* SetFreedomAndProjectionVectorToAxis */
MD[0]	/* MeasureDistance */
ROUND[00]	/* Round */
PUSHW[ ]	/* 2 values pushed */
28 31
MD[0]	/* MeasureDistance */
ROUND[00]	/* Round */
SUB[ ]	/* Subtract */
PUSHB[ ]	/* 1 value pushed */
64
GT[ ]	/* GreaterThan */
IF[ ]	/* If */
SHPIX[ ]	/* ShiftZoneByPixel */
SRP1[ ]	/* SetRefPoint1 */
SHZ[1]	/* ShiftZoneByLastPoint */
PUSHW[ ]	/* 2 values pushed */
31 -64
SHPIX[ ]	/* ShiftZoneByPixel */
EIF[ ]	/* EndIf */";
};
width = 964;
}
);
note = exclam;
unicode = 33;
},
{
glyphname = quotedbl;
lastChange = "2025-04-20 14:04:59 +0000";
layers = (
{
layerId = m01;
shapes = (
{
closed = 1;
nodes = (
(634,886,l),
(706,1256,o),
(706,1318,qs),
(706,1388,o),
(628,1388,qs),
(546,1388,o),
(546,1318,qs),
(546,1266,o),
(618,886,q)
);
},
{
closed = 1;
nodes = (
(228,886,l),
(300,1256,o),
(300,1318,qs),
(300,1388,o),
(222,1388,qs),
(140,1388,o),
(140,1318,qs),
(140,1266,o),
(212,886,q)
);
}
);
userData = {
assembly = "NPUSHB[ ]	/* 22 values pushed */
1 18 18 64 19 15 6 2 2 11 2 15 13 4 17 9 8 3 0 1 2 70
SROUND[ ]	/* SuperRound */
MDAP[1]	/* MoveDirectAbsPt */
SHZ[1]	/* ShiftZoneByLastPoint */
RTG[ ]	/* RoundToGrid */
SVTCA[0]	/* SetFreedomAndProjectionVectorToAxis */
MDAP[1]	/* MoveDirectAbsPt */
SLOOP[ ]	/* SetLoopVariable */
ALIGNRP[ ]	/* AlignRelativePt */
MDAP[1]	/* MoveDirectAbsPt */
ALIGNRP[ ]	/* AlignRelativePt */
SVTCA[1]	/* SetFreedomAndProjectionVectorToAxis */
MDAP[1]	/* MoveDirectAbsPt */
MIRP[11101]	/* MoveIndirectRelPt */
MDAP[1]	/* MoveDirectAbsPt */
MIRP[11101]	/* MoveIndirectRelPt */
SVTCA[0]	/* SetFreedomAndProjectionVectorToAxis */
IUP[1]	/* InterpolateUntPts */
IUP[0]	/* InterpolateUntPts */
SVTCA[1]	/* SetFreedomAndProjectionVectorToAxis */
MD[0]	/* MeasureDistance */
ROUND[00]	/* Round */
PUSHW[ ]	/* 2 values pushed */
2 18
MD[0]	/* MeasureDistance */
ROUND[00]	/* Round */
SUB[ ]	/* Subtract */
PUSHB[ ]	/* 1 value pushed */
64
GT[ ]	/* GreaterThan */
IF[ ]	/* If */
SHPIX[ ]	/* ShiftZoneByPixel */
SRP1[ ]	/* SetRefPoint1 */
SHZ[1]	/* ShiftZoneByLastPoint */
PUSHW[ ]	/* 2 values pushed */
18 -64
SHPIX[ ]	/* ShiftZoneByPixel */
EIF[ ]	/* EndIf */";
};
width = 860;
},
{
layerId = "EFA29B47-3DC8-4F8A-813A-13C07BF7C797";
shapes = (
{
closed = 1;
nodes = (
(640,886,l),
(712,1289,o),
(712,1304,qs),
(712,1343,o),
(681,1367,qs),
(653,1388,o),
(618,1388,qs),
(580,1388,o),
(553,1367,qs),
(522,1343,o),
(522,1304,qs),
(522,1222,o),
(594,886,q)
);
},
{
closed = 1;
nodes = (
(258,886,l),
(328,1242,o),
(328,1304,qs),
(328,1343,o),
(298,1367,qs),
(271,1388,o),
(236,1388,qs),
(199,1388,o),
(172,1367,qs),
(140,1343,o),
(140,1304,qs),
(140,1278,o),
(210,886,q)
);
}
);
userData = {
assembly = "NPUSHB[ ]	/* 22 values pushed */
1 26 26 64 27 11 24 2 16 3 2 11 20 7 14 13 1 3 0 1 16 70
SROUND[ ]	/* SuperRound */
MDAP[1]	/* MoveDirectAbsPt */
SHZ[1]	/* ShiftZoneByLastPoint */
RTG[ ]	/* RoundToGrid */
SVTCA[0]	/* SetFreedomAndProjectionVectorToAxis */
MDAP[1]	/* MoveDirectAbsPt */
SLOOP[ ]	/* SetLoopVariable */
ALIGNRP[ ]	/* AlignRelativePt */
MDAP[1]	/* MoveDirectAbsPt */
ALIGNRP[ ]	/* AlignRelativePt */
SVTCA[1]	/* SetFreedomAndProjectionVectorToAxis */
MDAP[1]	/* MoveDirectAbsPt */
MIRP[11101]	/* MoveIndirectRelPt */
MDAP[1]	/* MoveDirectAbsPt */
MIRP[11101]	/* MoveIndirectRelPt */
SVTCA[0]	/* SetFreedomAndProjectionVectorToAxis */
IUP[1]	/* InterpolateUntPts */
IUP[0]	/* InterpolateUntPts */
SVTCA[1]	/* SetFreedomAndProjectionVectorToAxis */
MD[0]	/* MeasureDistance */
ROUND[00]	/* Round */
PUSHW[ ]	/* 2 values pushed */
16 26
MD[0]	/* MeasureDistance */
ROUND[00]	/* Round */
SUB[ ]	/* Subtract */
PUSHB[ ]	/* 1 value pushed */
64
GT[ ]	/* GreaterThan */
IF[ ]	/* If */
SHPIX[ ]	/* ShiftZoneByPixel */
SRP1[ ]	/* SetRefPoint1 */
SHZ[1]	/* ShiftZoneByLastPoint */
PUSHW[ ]	/* 2 values pushed */
26 -64
SHPIX[ ]	/* ShiftZoneByPixel */
EIF[ ]	/* EndIf */";
};
width = 860;
},
{
layerId = "3C10D975-8B50-4E95-9C62-C508D3823290";
shapes = (
{
closed = 1;
nodes = (
(284,835,l),
(310,945,o),
(335,1054,qs),
(368,1198,o),
(368,1270,qs),
(368,1382,o),
(248,1382,qs),
(124,1382,o),
(124,1270,qs),
(124,1210,o),
(158,1053,qs),
(183,944,o),
(207,835,q)
);
},
{
closed = 1;
nodes = (
(648,835,l),
(673,945,o),
(699,1054,qs),
(731,1198,o),
(731,1270,qs),
(731,1382,o),
(611,1382,qs),
(488,1382,o),
(488,1270,qs),
(488,1210,o),
(522,1054,qs),
(546,944,o),
(571,835,q)
);
}
);
userData = {
assembly = "NPUSHB[ ]	/* 20 values pushed */
1 26 26 64 27 9 22 18 9 5 20 7 14 13 1 3 0 1 18 70
SROUND[ ]	/* SuperRound */
MDAP[1]	/* MoveDirectAbsPt */
SHZ[1]	/* ShiftZoneByLastPoint */
RTG[ ]	/* RoundToGrid */
SVTCA[0]	/* SetFreedomAndProjectionVectorToAxis */
MDAP[1]	/* MoveDirectAbsPt */
SLOOP[ ]	/* SetLoopVariable */
ALIGNRP[ ]	/* AlignRelativePt */
MDAP[1]	/* MoveDirectAbsPt */
ALIGNRP[ ]	/* AlignRelativePt */
SVTCA[1]	/* SetFreedomAndProjectionVectorToAxis */
MDAP[0]	/* MoveDirectAbsPt */
MDAP[0]	/* MoveDirectAbsPt */
MDAP[0]	/* MoveDirectAbsPt */
MDAP[0]	/* MoveDirectAbsPt */
SVTCA[0]	/* SetFreedomAndProjectionVectorToAxis */
IUP[1]	/* InterpolateUntPts */
IUP[0]	/* InterpolateUntPts */
SVTCA[1]	/* SetFreedomAndProjectionVectorToAxis */
MD[0]	/* MeasureDistance */
ROUND[00]	/* Round */
PUSHW[ ]	/* 2 values pushed */
18 26
MD[0]	/* MeasureDistance */
ROUND[00]	/* Round */
SUB[ ]	/* Subtract */
PUSHB[ ]	/* 1 value pushed */
64
GT[ ]	/* GreaterThan */
IF[ ]	/* If */
SHPIX[ ]	/* ShiftZoneByPixel */
SRP1[ ]	/* SetRefPoint1 */
SHZ[1]	/* ShiftZoneByLastPoint */
PUSHW[ ]	/* 2 values pushed */
26 -64
SHPIX[ ]	/* ShiftZoneByPixel */
EIF[ ]	/* EndIf */";
};
width = 860;
}
);
note = quotedbl;
unicode = 34;
},
{
glyphname = numbersign;
lastChange = "2025-04-20 14:05:12 +0000";
layers = (
{
layerId = m01;
shapes = (
{
closed = 1;
nodes = (
(412,46,l),
(484,330,l),
(816,330,l),
(744,46,l),
(848,46,l),
(920,330,l),
(1232,330,l),
(1232,436,l),
(952,436,l),
(1034,766,l),
(1380,766,l),
(1380,872,l),
(1064,872,l),
(1136,1160,l),
(1030,1160,l),
(956,872,l),
(620,872,l),
(698,1160,l),
(590,1160,l),
(516,872,l),
(210,872,l),
(210,766,l),
(490,766,l),
(408,436,l),
(60,436,l),
(60,330,l),
(378,330,l),
(306,46,l)
);
},
{
closed = 1;
nodes = (
(594,766,l),
(930,766,l),
(848,436,l),
(512,436,l)
);
}
);
userData = {
assembly = "NPUSHB[ ]	/* 176 values pushed */
1 32 32 64 33 26 31 29 27 26 25 24 21 20 17 16 15 13 12 11 10 7 6 3 2 1 6 5 6 7 6 7 8 5 5 6 4 4 5 29 29 30 8 7 8 28 31 28 9 6 9 10 18 17 18 15 15 16 11 11 12 19 19 20 10 10 19 20 19 20 21 6 21 22 18 17 18 15 15 16 11 11 12 19 19 20 10 10 19 29 29 30 8 7 8 28 31 28 9 6 9 10 15 15 16 14 14 15 31 31 28 22 21 22 30 29 30 23 6 23 24 25 25 26 0 27 0 1 1 2 24 24 1 30 29 14 13 2 5 1 4 12 11 8 7 4 5 3 31 28 27 16 15 5 0 4 26 25 22 21 18 5 17 24 23 20 3 19 10 9 6 3 5 1 12 70
SROUND[ ]	/* SuperRound */
MDAP[1]	/* MoveDirectAbsPt */
SHZ[1]	/* ShiftZoneByLastPoint */
RTG[ ]	/* RoundToGrid */
SVTCA[0]	/* SetFreedomAndProjectionVectorToAxis */
MDAP[1]	/* MoveDirectAbsPt */
SLOOP[ ]	/* SetLoopVariable */
ALIGNRP[ ]	/* AlignRelativePt */
MDAP[1]	/* MoveDirectAbsPt */
SLOOP[ ]	/* SetLoopVariable */
ALIGNRP[ ]	/* AlignRelativePt */
MDAP[1]	/* MoveDirectAbsPt */
SLOOP[ ]	/* SetLoopVariable */
ALIGNRP[ ]	/* AlignRelativePt */
MIRP[11101]	/* MoveIndirectRelPt */
SLOOP[ ]	/* SetLoopVariable */
ALIGNRP[ ]	/* AlignRelativePt */
MDAP[1]	/* MoveDirectAbsPt */
SLOOP[ ]	/* SetLoopVariable */
ALIGNRP[ ]	/* AlignRelativePt */
MIRP[11101]	/* MoveIndirectRelPt */
SLOOP[ ]	/* SetLoopVariable */
ALIGNRP[ ]	/* AlignRelativePt */
SVTCA[1]	/* SetFreedomAndProjectionVectorToAxis */
SDPVTL[1]	/* SetDualPVectorToLine */
MDAP[0]	/* MoveDirectAbsPt */
SFVTL[0]	/* SetFVectorToLine */
MDRP[00100]	/* MoveDirectRelPt */
SFVTL[0]	/* SetFVectorToLine */
MDRP[00100]	/* MoveDirectRelPt */
SFVTL[0]	/* SetFVectorToLine */
MDRP[00100]	/* MoveDirectRelPt */
SFVTL[0]	/* SetFVectorToLine */
MIRP[11100]	/* MoveIndirectRelPt */
SFVTL[0]	/* SetFVectorToLine */
MDRP[00100]	/* MoveDirectRelPt */
SFVTL[0]	/* SetFVectorToLine */
MDRP[00100]	/* MoveDirectRelPt */
SFVTL[0]	/* SetFVectorToLine */
MDRP[00100]	/* MoveDirectRelPt */
SDPVTL[1]	/* SetDualPVectorToLine */
MDAP[0]	/* MoveDirectAbsPt */
SFVTL[0]	/* SetFVectorToLine */
MDRP[00100]	/* MoveDirectRelPt */
SFVTL[0]	/* SetFVectorToLine */
MIRP[11100]	/* MoveIndirectRelPt */
SFVTL[0]	/* SetFVectorToLine */
MDRP[00100]	/* MoveDirectRelPt */
SFVTL[0]	/* SetFVectorToLine */
MDRP[00100]	/* MoveDirectRelPt */
SFVTL[0]	/* SetFVectorToLine */
MDRP[00100]	/* MoveDirectRelPt */
SDPVTL[1]	/* SetDualPVectorToLine */
MDAP[0]	/* MoveDirectAbsPt */
SFVTL[0]	/* SetFVectorToLine */
MDRP[00100]	/* MoveDirectRelPt */
SFVTL[0]	/* SetFVectorToLine */
MDRP[00100]	/* MoveDirectRelPt */
SFVTL[0]	/* SetFVectorToLine */
MDRP[00100]	/* MoveDirectRelPt */
SFVTL[0]	/* SetFVectorToLine */
MDRP[00100]	/* MoveDirectRelPt */
SFVTL[0]	/* SetFVectorToLine */
MIRP[11100]	/* MoveIndirectRelPt */
SFVTL[0]	/* SetFVectorToLine */
MDRP[00100]	/* MoveDirectRelPt */
SDPVTL[1]	/* SetDualPVectorToLine */
MDAP[0]	/* MoveDirectAbsPt */
SFVTL[0]	/* SetFVectorToLine */
MDRP[00100]	/* MoveDirectRelPt */
SFVTL[0]	/* SetFVectorToLine */
MDRP[00100]	/* MoveDirectRelPt */
SFVTL[0]	/* SetFVectorToLine */
MDRP[00100]	/* MoveDirectRelPt */
SFVTL[0]	/* SetFVectorToLine */
MDRP[00100]	/* MoveDirectRelPt */
SFVTL[0]	/* SetFVectorToLine */
MIRP[11100]	/* MoveIndirectRelPt */
SFVTL[0]	/* SetFVectorToLine */
MDRP[00100]	/* MoveDirectRelPt */
SFVTL[0]	/* SetFVectorToLine */
MDRP[00100]	/* MoveDirectRelPt */
SFVTL[0]	/* SetFVectorToLine */
MDRP[00100]	/* MoveDirectRelPt */
SDPVTL[1]	/* SetDualPVectorToLine */
MDAP[0]	/* MoveDirectAbsPt */
SFVTL[0]	/* SetFVectorToLine */
MDRP[00100]	/* MoveDirectRelPt */
SFVTL[0]	/* SetFVectorToLine */
MIRP[11100]	/* MoveIndirectRelPt */
SFVTL[0]	/* SetFVectorToLine */
MDRP[00100]	/* MoveDirectRelPt */
SVTCA[1]	/* SetFreedomAndProjectionVectorToAxis */
MDAP[0]	/* MoveDirectAbsPt */
MDAP[0]	/* MoveDirectAbsPt */
MDAP[0]	/* MoveDirectAbsPt */
MDAP[0]	/* MoveDirectAbsPt */
MDAP[0]	/* MoveDirectAbsPt */
MDAP[0]	/* MoveDirectAbsPt */
MDAP[0]	/* MoveDirectAbsPt */
MDAP[0]	/* MoveDirectAbsPt */
MDAP[0]	/* MoveDirectAbsPt */
MDAP[0]	/* MoveDirectAbsPt */
MDAP[0]	/* MoveDirectAbsPt */
MDAP[0]	/* MoveDirectAbsPt */
MDAP[0]	/* MoveDirectAbsPt */
MDAP[0]	/* MoveDirectAbsPt */
MDAP[0]	/* MoveDirectAbsPt */
MDAP[0]	/* MoveDirectAbsPt */
MDAP[0]	/* MoveDirectAbsPt */
MDAP[0]	/* MoveDirectAbsPt */
MDAP[0]	/* MoveDirectAbsPt */
MDAP[0]	/* MoveDirectAbsPt */
SVTCA[0]	/* SetFreedomAndProjectionVectorToAxis */
IUP[1]	/* InterpolateUntPts */
IUP[0]	/* InterpolateUntPts */
SVTCA[1]	/* SetFreedomAndProjectionVectorToAxis */
MD[0]	/* MeasureDistance */
ROUND[00]	/* Round */
PUSHW[ ]	/* 2 values pushed */
12 32
MD[0]	/* MeasureDistance */
ROUND[00]	/* Round */
SUB[ ]	/* Subtract */
PUSHB[ ]	/* 1 value pushed */
64
GT[ ]	/* GreaterThan */
IF[ ]	/* If */
SHPIX[ ]	/* ShiftZoneByPixel */
SRP1[ ]	/* SetRefPoint1 */
SHZ[1]	/* ShiftZoneByLastPoint */
PUSHW[ ]	/* 2 values pushed */
32 -64
SHPIX[ ]	/* ShiftZoneByPixel */
EIF[ ]	/* EndIf */";
};
width = 1550;
},
{
layerId = "EFA29B47-3DC8-4F8A-813A-13C07BF7C797";
shapes = (
{
closed = 1;
nodes = (
(436,46,l),
(506,320,l),
(788,320,l),
(718,46,l),
(860,46,l),
(930,320,l),
(1236,320,l),
(1236,462,l),
(970,462,l),
(1040,740,l),
(1380,740,l),
(1380,882,l),
(1080,882,l),
(1150,1160,l),
(1006,1160,l),
(934,882,l),
(650,882,l),
(724,1160,l),
(578,1160,l),
(506,882,l),
(206,882,l),
(206,740,l),
(472,740,l),
(402,462,l),
(60,462,l),
(60,320,l),
(362,320,l),
(292,46,l)
);
},
{
closed = 1;
nodes = (
(614,740,l),
(898,740,l),
(828,462,l),
(544,462,l)
);
}
);
userData = {
assembly = "NPUSHB[ ]	/* 128 values pushed */
1 32 32 64 33 0 30 28 27 26 25 22 21 18 17 16 14 13 12 11 8 7 4 3 2 0 30 30 31 29 28 29 9 8 9 21 20 21 10 6 10 11 19 18 19 16 16 17 12 12 13 20 20 21 11 11 20 5 4 5 2 2 3 1 0 1 25 24 25 6 6 6 7 28 28 29 23 22 23 24 24 25 7 7 24 29 28 17 16 1 5 0 5 27 26 23 22 19 5 18 31 30 15 14 3 5 2 5 13 12 9 8 5 5 4 25 24 21 3 20 11 10 7 3 6 1 13 70
SROUND[ ]	/* SuperRound */
MDAP[1]	/* MoveDirectAbsPt */
SHZ[1]	/* ShiftZoneByLastPoint */
RTG[ ]	/* RoundToGrid */
SVTCA[0]	/* SetFreedomAndProjectionVectorToAxis */
MDAP[1]	/* MoveDirectAbsPt */
SLOOP[ ]	/* SetLoopVariable */
ALIGNRP[ ]	/* AlignRelativePt */
MDAP[1]	/* MoveDirectAbsPt */
SLOOP[ ]	/* SetLoopVariable */
ALIGNRP[ ]	/* AlignRelativePt */
MDAP[1]	/* MoveDirectAbsPt */
SLOOP[ ]	/* SetLoopVariable */
ALIGNRP[ ]	/* AlignRelativePt */
MIRP[11101]	/* MoveIndirectRelPt */
SLOOP[ ]	/* SetLoopVariable */
ALIGNRP[ ]	/* AlignRelativePt */
MDAP[1]	/* MoveDirectAbsPt */
SLOOP[ ]	/* SetLoopVariable */
ALIGNRP[ ]	/* AlignRelativePt */
MIRP[11101]	/* MoveIndirectRelPt */
SLOOP[ ]	/* SetLoopVariable */
ALIGNRP[ ]	/* AlignRelativePt */
SVTCA[1]	/* SetFreedomAndProjectionVectorToAxis */
SDPVTL[1]	/* SetDualPVectorToLine */
MDAP[0]	/* MoveDirectAbsPt */
SFVTL[0]	/* SetFVectorToLine */
MDRP[00100]	/* MoveDirectRelPt */
SFVTL[0]	/* SetFVectorToLine */
MDRP[00100]	/* MoveDirectRelPt */
SFVTL[0]	/* SetFVectorToLine */
MDRP[00100]	/* MoveDirectRelPt */
SFVTL[0]	/* SetFVectorToLine */
MIRP[11100]	/* MoveIndirectRelPt */
SFVTL[0]	/* SetFVectorToLine */
MDRP[00100]	/* MoveDirectRelPt */
SFVTL[0]	/* SetFVectorToLine */
MDRP[00100]	/* MoveDirectRelPt */
SFVTL[0]	/* SetFVectorToLine */
MDRP[00100]	/* MoveDirectRelPt */
SFVTL[0]	/* SetFVectorToLine */
MDRP[00100]	/* MoveDirectRelPt */
SDPVTL[1]	/* SetDualPVectorToLine */
MDAP[0]	/* MoveDirectAbsPt */
SFVTL[0]	/* SetFVectorToLine */
MDRP[00100]	/* MoveDirectRelPt */
SFVTL[0]	/* SetFVectorToLine */
MDRP[00100]	/* MoveDirectRelPt */
SFVTL[0]	/* SetFVectorToLine */
MDRP[00100]	/* MoveDirectRelPt */
SFVTL[0]	/* SetFVectorToLine */
MDRP[00100]	/* MoveDirectRelPt */
SFVTL[0]	/* SetFVectorToLine */
MIRP[11100]	/* MoveIndirectRelPt */
SFVTL[0]	/* SetFVectorToLine */
MDRP[00100]	/* MoveDirectRelPt */
SFVTL[0]	/* SetFVectorToLine */
MDRP[00100]	/* MoveDirectRelPt */
SFVTL[0]	/* SetFVectorToLine */
MDRP[00100]	/* MoveDirectRelPt */
SFVTL[0]	/* SetFVectorToLine */
MDRP[00100]	/* MoveDirectRelPt */
SVTCA[1]	/* SetFreedomAndProjectionVectorToAxis */
MDAP[0]	/* MoveDirectAbsPt */
MDAP[0]	/* MoveDirectAbsPt */
MDAP[0]	/* MoveDirectAbsPt */
MDAP[0]	/* MoveDirectAbsPt */
MDAP[0]	/* MoveDirectAbsPt */
MDAP[0]	/* MoveDirectAbsPt */
MDAP[0]	/* MoveDirectAbsPt */
MDAP[0]	/* MoveDirectAbsPt */
MDAP[0]	/* MoveDirectAbsPt */
MDAP[0]	/* MoveDirectAbsPt */
MDAP[0]	/* MoveDirectAbsPt */
MDAP[0]	/* MoveDirectAbsPt */
MDAP[0]	/* MoveDirectAbsPt */
MDAP[0]	/* MoveDirectAbsPt */
MDAP[0]	/* MoveDirectAbsPt */
MDAP[0]	/* MoveDirectAbsPt */
MDAP[0]	/* MoveDirectAbsPt */
MDAP[0]	/* MoveDirectAbsPt */
MDAP[0]	/* MoveDirectAbsPt */
MDAP[0]	/* MoveDirectAbsPt */
SVTCA[0]	/* SetFreedomAndProjectionVectorToAxis */
IUP[1]	/* InterpolateUntPts */
IUP[0]	/* InterpolateUntPts */
SVTCA[1]	/* SetFreedomAndProjectionVectorToAxis */
MD[0]	/* MeasureDistance */
ROUND[00]	/* Round */
PUSHW[ ]	/* 2 values pushed */
13 32
MD[0]	/* MeasureDistance */
ROUND[00]	/* Round */
SUB[ ]	/* Subtract */
PUSHB[ ]	/* 1 value pushed */
64
GT[ ]	/* GreaterThan */
IF[ ]	/* If */
SHPIX[ ]	/* ShiftZoneByPixel */
SRP1[ ]	/* SetRefPoint1 */
SHZ[1]	/* ShiftZoneByLastPoint */
PUSHW[ ]	/* 2 values pushed */
32 -64
SHPIX[ ]	/* ShiftZoneByPixel */
EIF[ ]	/* EndIf */";
};
width = 1550;
},
{
layerId = "3C10D975-8B50-4E95-9C62-C508D3823290";
shapes = (
{
closed = 1;
nodes = (
(484,26,l),
(550,286,l),
(749,286,l),
(683,26,l),
(884,26,l),
(951,286,l),
(1249,286,l),
(1249,485,l),
(1006,485,l),
(1056,685,l),
(1385,685,l),
(1385,884,l),
(1109,884,l),
(1175,1148,l),
(972,1148,l),
(904,884,l),
(702,884,l),
(774,1148,l),
(567,1148,l),
(499,884,l),
(207,884,l),
(207,685,l),
(450,685,l),
(400,485,l),
(69,485,l),
(69,286,l),
(346,286,l),
(280,26,l)
);
},
{
closed = 1;
nodes = (
(651,685,l),
(854,685,l),
(804,485,l),
(601,485,l)
);
}
);
userData = {
assembly = "NPUSHB[ ]	/* 69 values pushed */
1 32 32 64 33 26 31 29 27 26 25 24 21 20 17 16 15 13 12 11 10 7 6 3 2 1 30 29 14 13 2 5 1 4 12 11 8 7 4 5 3 31 28 27 16 15 5 0 4 26 25 22 21 18 5 17 24 23 20 3 19 10 9 6 3 5 1 12 70
SROUND[ ]	/* SuperRound */
MDAP[1]	/* MoveDirectAbsPt */
SHZ[1]	/* ShiftZoneByLastPoint */
RTG[ ]	/* RoundToGrid */
SVTCA[0]	/* SetFreedomAndProjectionVectorToAxis */
MDAP[1]	/* MoveDirectAbsPt */
SLOOP[ ]	/* SetLoopVariable */
ALIGNRP[ ]	/* AlignRelativePt */
MDAP[1]	/* MoveDirectAbsPt */
SLOOP[ ]	/* SetLoopVariable */
ALIGNRP[ ]	/* AlignRelativePt */
MDAP[1]	/* MoveDirectAbsPt */
SLOOP[ ]	/* SetLoopVariable */
ALIGNRP[ ]	/* AlignRelativePt */
MIRP[11101]	/* MoveIndirectRelPt */
SLOOP[ ]	/* SetLoopVariable */
ALIGNRP[ ]	/* AlignRelativePt */
MDAP[1]	/* MoveDirectAbsPt */
SLOOP[ ]	/* SetLoopVariable */
ALIGNRP[ ]	/* AlignRelativePt */
MIRP[11101]	/* MoveIndirectRelPt */
SLOOP[ ]	/* SetLoopVariable */
ALIGNRP[ ]	/* AlignRelativePt */
SVTCA[1]	/* SetFreedomAndProjectionVectorToAxis */
MDAP[0]	/* MoveDirectAbsPt */
MDAP[0]	/* MoveDirectAbsPt */
MDAP[0]	/* MoveDirectAbsPt */
MDAP[0]	/* MoveDirectAbsPt */
MDAP[0]	/* MoveDirectAbsPt */
MDAP[0]	/* MoveDirectAbsPt */
MDAP[0]	/* MoveDirectAbsPt */
MDAP[0]	/* MoveDirectAbsPt */
MDAP[0]	/* MoveDirectAbsPt */
MDAP[0]	/* MoveDirectAbsPt */
MDAP[0]	/* MoveDirectAbsPt */
MDAP[0]	/* MoveDirectAbsPt */
MDAP[0]	/* MoveDirectAbsPt */
MDAP[0]	/* MoveDirectAbsPt */
MDAP[0]	/* MoveDirectAbsPt */
MDAP[0]	/* MoveDirectAbsPt */
MDAP[0]	/* MoveDirectAbsPt */
MDAP[0]	/* MoveDirectAbsPt */
MDAP[0]	/* MoveDirectAbsPt */
MDAP[0]	/* MoveDirectAbsPt */
SVTCA[0]	/* SetFreedomAndProjectionVectorToAxis */
IUP[1]	/* InterpolateUntPts */
IUP[0]	/* InterpolateUntPts */
SVTCA[1]	/* SetFreedomAndProjectionVectorToAxis */
MD[0]	/* MeasureDistance */
ROUND[00]	/* Round */
PUSHW[ ]	/* 2 values pushed */
12 32
MD[0]	/* MeasureDistance */
ROUND[00]	/* Round */
SUB[ ]	/* Subtract */
PUSHB[ ]	/* 1 value pushed */
64
GT[ ]	/* GreaterThan */
IF[ ]	/* If */
SHPIX[ ]	/* ShiftZoneByPixel */
SRP1[ ]	/* SetRefPoint1 */
SHZ[1]	/* ShiftZoneByLastPoint */
PUSHW[ ]	/* 2 values pushed */
32 -64
SHPIX[ ]	/* ShiftZoneByPixel */
EIF[ ]	/* EndIf */";
};
width = 1550;
}
);
note = numbersign;
unicode = 35;
},
{
glyphname = dollar;
lastChange = "2025-04-20 14:04:59 +0000";
layers = (
{
layerId = m01;
shapes = (
{
closed = 1;
nodes = (
(412,-134,l),
(412,0,l),
(571,9,o),
(667,83,qs),
(777,169,o),
(772,320,qs),
(769,426,o),
(652,520,qs),
(603,559,o),
(536,596,qs),
(495,618,o),
(412,660,q),
(412,1092,l),
(528,1060,o),
(618,948,q),
(694,1008,l),
(570,1162,o),
(412,1190,q),
(412,1312,l),
(364,1312,l),
(364,1190,l),
(228,1181,o),
(129,1123,qs),
(4,1050,o),
(6,928,qs),
(8,818,o),
(70,746,qs),
(123,684,o),
(228,634,qs),
(325,589,o),
(364,572,q),
(364,92,l),
(180,114,o),
(118,254,q),
(24,220,l),
(120,16,o),
(364,0,q),
(364,-134,l)
);
},
{
closed = 1;
nodes = (
(412,548,l),
(543,486,o),
(594,446,qs),
(670,386,o),
(670,312,qs),
(670,198,o),
(604,146,qs),
(543,98,o),
(412,90,q)
);
},
{
closed = 1;
nodes = (
(270,732,o),
(256,738,q),
(118,812,o),
(118,918,qs),
(118,1070,o),
(364,1092,q),
(364,684,l)
);
}
);
userData = {
assembly = "NPUSHB[ ]	/* 46 values pushed */
1 54 54 64 55 7 53 45 43 42 36 19 17 0 49 38 35 26 16 7 53 45 33 32 12 11 1 7 0 3 43 42 31 30 20 19 14 7 13 32 31 13 12 1 26 70
SROUND[ ]	/* SuperRound */
MDAP[1]	/* MoveDirectAbsPt */
SHZ[1]	/* ShiftZoneByLastPoint */
RTG[ ]	/* RoundToGrid */
SVTCA[0]	/* SetFreedomAndProjectionVectorToAxis */
MDAP[1]	/* MoveDirectAbsPt */
ALIGNRP[ ]	/* AlignRelativePt */
MDAP[1]	/* MoveDirectAbsPt */
ALIGNRP[ ]	/* AlignRelativePt */
SVTCA[1]	/* SetFreedomAndProjectionVectorToAxis */
MDAP[1]	/* MoveDirectAbsPt */
SLOOP[ ]	/* SetLoopVariable */
ALIGNRP[ ]	/* AlignRelativePt */
MIRP[11101]	/* MoveIndirectRelPt */
SLOOP[ ]	/* SetLoopVariable */
ALIGNRP[ ]	/* AlignRelativePt */
MDAP[0]	/* MoveDirectAbsPt */
MDAP[0]	/* MoveDirectAbsPt */
MDAP[0]	/* MoveDirectAbsPt */
MDAP[0]	/* MoveDirectAbsPt */
MDAP[0]	/* MoveDirectAbsPt */
MDAP[0]	/* MoveDirectAbsPt */
SVTCA[0]	/* SetFreedomAndProjectionVectorToAxis */
MDAP[0]	/* MoveDirectAbsPt */
MDAP[0]	/* MoveDirectAbsPt */
MDAP[0]	/* MoveDirectAbsPt */
MDAP[0]	/* MoveDirectAbsPt */
MDAP[0]	/* MoveDirectAbsPt */
MDAP[0]	/* MoveDirectAbsPt */
MDAP[0]	/* MoveDirectAbsPt */
MDAP[0]	/* MoveDirectAbsPt */
IUP[1]	/* InterpolateUntPts */
IUP[0]	/* InterpolateUntPts */
SVTCA[1]	/* SetFreedomAndProjectionVectorToAxis */
MD[0]	/* MeasureDistance */
ROUND[00]	/* Round */
PUSHW[ ]	/* 2 values pushed */
26 54
MD[0]	/* MeasureDistance */
ROUND[00]	/* Round */
SUB[ ]	/* Subtract */
PUSHB[ ]	/* 1 value pushed */
64
GT[ ]	/* GreaterThan */
IF[ ]	/* If */
SHPIX[ ]	/* ShiftZoneByPixel */
SRP1[ ]	/* SetRefPoint1 */
SHZ[1]	/* ShiftZoneByLastPoint */
PUSHW[ ]	/* 2 values pushed */
54 -64
SHPIX[ ]	/* ShiftZoneByPixel */
EIF[ ]	/* EndIf */";
};
width = 986;
},
{
layerId = "EFA29B47-3DC8-4F8A-813A-13C07BF7C797";
shapes = (
{
closed = 1;
nodes = (
(430,-134,l),
(430,-2,l),
(587,7,o),
(679,92,qs),
(777,181,o),
(772,328,qs),
(768,442,o),
(651,537,qs),
(588,589,o),
(430,670,q),
(430,1052,l),
(486,1035,o),
(543,980,qs),
(573,950,o),
(602,910,q),
(706,992,l),
(585,1162,o),
(430,1190,q),
(430,1312,l),
(346,1312,l),
(346,1192,l),
(208,1182,o),
(112,1114,qs),
(4,1037,o),
(6,918,qs),
(9,771,o),
(118,683,qs),
(166,644,o),
(346,560,q),
(346,128,l),
(195,147,o),
(144,288,q),
(18,242,l),
(51,153,o),
(91,109,qs),
(180,9,o),
(346,-2,q),
(346,-134,l)
);
},
{
closed = 1;
nodes = (
(430,518,l),
(533,468,o),
(575,433,qs),
(636,382,o),
(636,320,qs),
(636,218,o),
(583,173,qs),
(536,132,o),
(430,126,q)
);
},
{
closed = 1;
nodes = (
(241,768,o),
(211,792,qs),
(152,840,o),
(152,908,qs),
(152,971,o),
(209,1011,qs),
(262,1048,o),
(346,1056,q),
(346,714,l)
);
}
);
userData = {
assembly = "NPUSHB[ ]	/* 46 values pushed */
1 56 56 64 57 9 48 47 46 38 23 21 4 0 52 42 37 28 20 9 48 47 35 34 14 13 5 7 4 3 46 38 33 32 24 23 16 7 15 34 33 15 14 1 28 70
SROUND[ ]	/* SuperRound */
MDAP[1]	/* MoveDirectAbsPt */
SHZ[1]	/* ShiftZoneByLastPoint */
RTG[ ]	/* RoundToGrid */
SVTCA[0]	/* SetFreedomAndProjectionVectorToAxis */
MDAP[1]	/* MoveDirectAbsPt */
ALIGNRP[ ]	/* AlignRelativePt */
MDAP[1]	/* MoveDirectAbsPt */
ALIGNRP[ ]	/* AlignRelativePt */
SVTCA[1]	/* SetFreedomAndProjectionVectorToAxis */
MDAP[1]	/* MoveDirectAbsPt */
SLOOP[ ]	/* SetLoopVariable */
ALIGNRP[ ]	/* AlignRelativePt */
MIRP[11101]	/* MoveIndirectRelPt */
SLOOP[ ]	/* SetLoopVariable */
ALIGNRP[ ]	/* AlignRelativePt */
MDAP[0]	/* MoveDirectAbsPt */
MDAP[0]	/* MoveDirectAbsPt */
MDAP[0]	/* MoveDirectAbsPt */
MDAP[0]	/* MoveDirectAbsPt */
MDAP[0]	/* MoveDirectAbsPt */
MDAP[0]	/* MoveDirectAbsPt */
SVTCA[0]	/* SetFreedomAndProjectionVectorToAxis */
MDAP[0]	/* MoveDirectAbsPt */
MDAP[0]	/* MoveDirectAbsPt */
MDAP[0]	/* MoveDirectAbsPt */
MDAP[0]	/* MoveDirectAbsPt */
MDAP[0]	/* MoveDirectAbsPt */
MDAP[0]	/* MoveDirectAbsPt */
MDAP[0]	/* MoveDirectAbsPt */
MDAP[0]	/* MoveDirectAbsPt */
IUP[1]	/* InterpolateUntPts */
IUP[0]	/* InterpolateUntPts */
SVTCA[1]	/* SetFreedomAndProjectionVectorToAxis */
MD[0]	/* MeasureDistance */
ROUND[00]	/* Round */
PUSHW[ ]	/* 2 values pushed */
28 56
MD[0]	/* MeasureDistance */
ROUND[00]	/* Round */
SUB[ ]	/* Subtract */
PUSHB[ ]	/* 1 value pushed */
64
GT[ ]	/* GreaterThan */
IF[ ]	/* If */
SHPIX[ ]	/* ShiftZoneByPixel */
SRP1[ ]	/* SetRefPoint1 */
SHZ[1]	/* ShiftZoneByLastPoint */
PUSHW[ ]	/* 2 values pushed */
56 -64
SHPIX[ ]	/* ShiftZoneByPixel */
EIF[ ]	/* EndIf */";
};
width = 986;
},
{
layerId = "3C10D975-8B50-4E95-9C62-C508D3823290";
shapes = (
{
closed = 1;
nodes = (
(475,-126,l),
(475,2,l),
(621,22,o),
(708,104,qs),
(806,197,o),
(801,345,qs),
(797,461,o),
(686,557,qs),
(620,614,o),
(475,688,q),
(475,977,l),
(527,946,o),
(603,850,q),
(751,969,l),
(611,1146,o),
(475,1185,q),
(475,1308,l),
(330,1308,l),
(330,1191,l),
(201,1173,o),
(113,1108,qs),
(3,1028,o),
(6,902,qs),
(8,759,o),
(108,669,qs),
(169,615,o),
(330,542,q),
(330,196,l),
(239,223,o),
(185,348,q),
(3,281,l),
(62,152,o),
(133,90,qs),
(210,21,o),
(330,3,q),
(330,-126,l)
);
},
{
closed = 1;
nodes = (
(475,471,l),
(607,402,o),
(607,336,qs),
(607,265,o),
(574,231,qs),
(545,201,o),
(475,189,q)
);
},
{
closed = 1;
nodes = (
(208,822,o),
(208,894,qs),
(208,972,o),
(330,995,q),
(330,762,l)
);
}
);
userData = {
assembly = "NPUSHB[ ]	/* 46 values pushed */
1 48 48 64 49 32 42 41 40 36 27 25 10 8 46 38 32 24 15 7 40 36 20 19 11 10 3 7 2 3 42 41 28 27 22 21 1 7 0 21 20 2 1 1 7 70
SROUND[ ]	/* SuperRound */
MDAP[1]	/* MoveDirectAbsPt */
SHZ[1]	/* ShiftZoneByLastPoint */
RTG[ ]	/* RoundToGrid */
SVTCA[0]	/* SetFreedomAndProjectionVectorToAxis */
MDAP[1]	/* MoveDirectAbsPt */
ALIGNRP[ ]	/* AlignRelativePt */
MDAP[1]	/* MoveDirectAbsPt */
ALIGNRP[ ]	/* AlignRelativePt */
SVTCA[1]	/* SetFreedomAndProjectionVectorToAxis */
MDAP[1]	/* MoveDirectAbsPt */
SLOOP[ ]	/* SetLoopVariable */
ALIGNRP[ ]	/* AlignRelativePt */
MIRP[11101]	/* MoveIndirectRelPt */
SLOOP[ ]	/* SetLoopVariable */
ALIGNRP[ ]	/* AlignRelativePt */
MDAP[0]	/* MoveDirectAbsPt */
MDAP[0]	/* MoveDirectAbsPt */
MDAP[0]	/* MoveDirectAbsPt */
MDAP[0]	/* MoveDirectAbsPt */
MDAP[0]	/* MoveDirectAbsPt */
MDAP[0]	/* MoveDirectAbsPt */
SVTCA[0]	/* SetFreedomAndProjectionVectorToAxis */
MDAP[0]	/* MoveDirectAbsPt */
MDAP[0]	/* MoveDirectAbsPt */
MDAP[0]	/* MoveDirectAbsPt */
MDAP[0]	/* MoveDirectAbsPt */
MDAP[0]	/* MoveDirectAbsPt */
MDAP[0]	/* MoveDirectAbsPt */
MDAP[0]	/* MoveDirectAbsPt */
MDAP[0]	/* MoveDirectAbsPt */
IUP[1]	/* InterpolateUntPts */
IUP[0]	/* InterpolateUntPts */
SVTCA[1]	/* SetFreedomAndProjectionVectorToAxis */
MD[0]	/* MeasureDistance */
ROUND[00]	/* Round */
PUSHW[ ]	/* 2 values pushed */
7 48
MD[0]	/* MeasureDistance */
ROUND[00]	/* Round */
SUB[ ]	/* Subtract */
PUSHB[ ]	/* 1 value pushed */
64
GT[ ]	/* GreaterThan */
IF[ ]	/* If */
SHPIX[ ]	/* ShiftZoneByPixel */
SRP1[ ]	/* SetRefPoint1 */
SHZ[1]	/* ShiftZoneByLastPoint */
PUSHW[ ]	/* 2 values pushed */
48 -64
SHPIX[ ]	/* ShiftZoneByPixel */
EIF[ ]	/* EndIf */";
};
width = 986;
}
);
note = dollar;
unicode = 36;
},
{
glyphname = percent;
lastChange = "2025-04-20 14:04:59 +0000";
layers = (
{
layerId = m01;
shapes = (
{
closed = 1;
nodes = (
(434,-28,l),
(1226,1388,l),
(1132,1388,l),
(322,-28,l)
);
},
{
closed = 1;
nodes = (
(1300,70,o),
(1477,242,o),
(1478,362,qs),
(1479,483,o),
(1303,658,o),
(1182,658,qs),
(1060,658,o),
(886,486,o),
(886,364,qs),
(886,242,o),
(1058,70,o),
(1180,70,qs)
);
},
{
closed = 1;
nodes = (
(1093,152,o),
(969,277,o),
(970,364,qs),
(971,451,o),
(1095,575,o),
(1182,574,qs),
(1271,573,o),
(1391,450,o),
(1390,362,qs),
(1389,275,o),
(1267,152,o),
(1180,152,qs)
);
},
{
closed = 1;
nodes = (
(559,834,o),
(734,1005,o),
(734,1126,qs),
(734,1248,o),
(560,1420,o),
(438,1420,qs),
(316,1420,o),
(140,1250,o),
(140,1128,qs),
(140,1005,o),
(315,834,o),
(438,834,qs)
);
},
{
closed = 1;
nodes = (
(348,912,o),
(227,1040,o),
(228,1128,qs),
(229,1216,o),
(352,1338,o),
(440,1338,qs),
(527,1338,o),
(648,1212,o),
(646,1124,qs),
(644,1036,o),
(524,916,o),
(436,914,qs)
);
}
);
userData = {
assembly = "NPUSHB[ ]	/* 49 values pushed */
1 52 52 64 53 28 27 26 27 25 27 24 6 24 25 26 25 25 26 34 3 40 12 3 6 0 3 18 46 3 28 3 5 15 21 5 9 43 5 31 37 5 49 9 25 24 1 6 70
SROUND[ ]	/* SuperRound */
MDAP[1]	/* MoveDirectAbsPt */
SHZ[1]	/* ShiftZoneByLastPoint */
RTG[ ]	/* RoundToGrid */
SVTCA[0]	/* SetFreedomAndProjectionVectorToAxis */
MDAP[1]	/* MoveDirectAbsPt */
ALIGNRP[ ]	/* AlignRelativePt */
MDAP[1]	/* MoveDirectAbsPt */
MDAP[1]	/* MoveDirectAbsPt */
MIRP[11101]	/* MoveIndirectRelPt */
MDAP[1]	/* MoveDirectAbsPt */
MIRP[11101]	/* MoveIndirectRelPt */
SRP0[ ]	/* SetRefPoint0 */
MIRP[11101]	/* MoveIndirectRelPt */
MDAP[1]	/* MoveDirectAbsPt */
MIRP[11101]	/* MoveIndirectRelPt */
SVTCA[1]	/* SetFreedomAndProjectionVectorToAxis */
MDAP[1]	/* MoveDirectAbsPt */
MIRP[11101]	/* MoveIndirectRelPt */
MDAP[1]	/* MoveDirectAbsPt */
MIRP[11101]	/* MoveIndirectRelPt */
MDAP[1]	/* MoveDirectAbsPt */
MIRP[11101]	/* MoveIndirectRelPt */
MDAP[1]	/* MoveDirectAbsPt */
MIRP[11101]	/* MoveIndirectRelPt */
SDPVTL[1]	/* SetDualPVectorToLine */
MDAP[0]	/* MoveDirectAbsPt */
SFVTPV[ ]	/* SetFVectorToPVector */
MDRP[00100]	/* MoveDirectRelPt */
SFVTL[0]	/* SetFVectorToLine */
MIRP[11100]	/* MoveIndirectRelPt */
SFVTPV[ ]	/* SetFVectorToPVector */
MDRP[00100]	/* MoveDirectRelPt */
SVTCA[1]	/* SetFreedomAndProjectionVectorToAxis */
MDAP[0]	/* MoveDirectAbsPt */
MDAP[0]	/* MoveDirectAbsPt */
SVTCA[0]	/* SetFreedomAndProjectionVectorToAxis */
MDAP[0]	/* MoveDirectAbsPt */
MDAP[0]	/* MoveDirectAbsPt */
IUP[1]	/* InterpolateUntPts */
IUP[0]	/* InterpolateUntPts */
SVTCA[1]	/* SetFreedomAndProjectionVectorToAxis */
MD[0]	/* MeasureDistance */
ROUND[00]	/* Round */
PUSHW[ ]	/* 2 values pushed */
6 52
MD[0]	/* MeasureDistance */
ROUND[00]	/* Round */
SUB[ ]	/* Subtract */
PUSHB[ ]	/* 1 value pushed */
64
GT[ ]	/* GreaterThan */
IF[ ]	/* If */
SHPIX[ ]	/* ShiftZoneByPixel */
SRP1[ ]	/* SetRefPoint1 */
SHZ[1]	/* ShiftZoneByLastPoint */
PUSHW[ ]	/* 2 values pushed */
52 -64
SHPIX[ ]	/* ShiftZoneByPixel */
EIF[ ]	/* EndIf */";
};
width = 1628;
},
{
layerId = "EFA29B47-3DC8-4F8A-813A-13C07BF7C797";
shapes = (
{
closed = 1;
nodes = (
(454,-28,l),
(1244,1388,l),
(1114,1388,l),
(306,-28,l)
);
},
{
closed = 1;
nodes = (
(1294,67,o),
(1477,247,o),
(1477,372,qs),
(1477,497,o),
(1297,679,o),
(1171,679,qs),
(1044,679,o),
(863,499,o),
(863,374,qs),
(863,248,o),
(1044,67,o),
(1169,67,qs)
);
},
{
closed = 1;
nodes = (
(1085,164,o),
(961,289,o),
(962,374,qs),
(963,459,o),
(1085,580,o),
(1171,580,qs),
(1257,579,o),
(1378,457,o),
(1376,371,qs),
(1375,286,o),
(1254,164,o),
(1168,164,qs)
);
},
{
closed = 1;
nodes = (
(574,809,o),
(757,989,o),
(757,1114,qs),
(757,1238,o),
(575,1421,o),
(449,1421,qs),
(322,1421,o),
(141,1241,o),
(141,1116,qs),
(141,989,o),
(322,809,o),
(449,809,qs)
);
},
{
closed = 1;
nodes = (
(363,904,o),
(241,1030,o),
(242,1117,qs),
(243,1201,o),
(364,1322,o),
(451,1322,qs),
(536,1322,o),
(656,1199,o),
(654,1113,qs),
(653,1028,o),
(533,906,o),
(446,905,qs)
);
}
);
userData = {
assembly = "NPUSHB[ ]	/* 54 values pushed */
1 52 52 64 53 31 27 24 26 24 26 25 26 27 6 27 24 25 25 26 24 24 25 37 3 43 49 3 31 15 3 9 3 3 21 46 5 34 28 5 40 6 5 18 12 5 0 0 26 25 0 1 9 70
SROUND[ ]	/* SuperRound */
MDAP[1]	/* MoveDirectAbsPt */
SHZ[1]	/* ShiftZoneByLastPoint */
RTG[ ]	/* RoundToGrid */
SVTCA[0]	/* SetFreedomAndProjectionVectorToAxis */
MIAP[1]	/* MoveIndirectAbsPt */
ALIGNRP[ ]	/* AlignRelativePt */
MDAP[1]	/* MoveDirectAbsPt */
SRP0[ ]	/* SetRefPoint0 */
MIRP[11101]	/* MoveIndirectRelPt */
MDAP[1]	/* MoveDirectAbsPt */
MIRP[11101]	/* MoveIndirectRelPt */
MDAP[1]	/* MoveDirectAbsPt */
MIRP[11101]	/* MoveIndirectRelPt */
MDAP[1]	/* MoveDirectAbsPt */
MIRP[11101]	/* MoveIndirectRelPt */
SVTCA[1]	/* SetFreedomAndProjectionVectorToAxis */
MDAP[1]	/* MoveDirectAbsPt */
MIRP[11101]	/* MoveIndirectRelPt */
MDAP[1]	/* MoveDirectAbsPt */
MIRP[11101]	/* MoveIndirectRelPt */
MDAP[1]	/* MoveDirectAbsPt */
MIRP[11101]	/* MoveIndirectRelPt */
MDAP[1]	/* MoveDirectAbsPt */
MIRP[11101]	/* MoveIndirectRelPt */
SDPVTL[1]	/* SetDualPVectorToLine */
MDAP[0]	/* MoveDirectAbsPt */
SFVTL[0]	/* SetFVectorToLine */
MDRP[00100]	/* MoveDirectRelPt */
SFVTL[0]	/* SetFVectorToLine */
MIRP[11100]	/* MoveIndirectRelPt */
SFVTL[0]	/* SetFVectorToLine */
MDRP[00100]	/* MoveDirectRelPt */
SVTCA[1]	/* SetFreedomAndProjectionVectorToAxis */
MDAP[0]	/* MoveDirectAbsPt */
MDAP[0]	/* MoveDirectAbsPt */
SVTCA[0]	/* SetFreedomAndProjectionVectorToAxis */
MDAP[0]	/* MoveDirectAbsPt */
MDAP[0]	/* MoveDirectAbsPt */
IUP[1]	/* InterpolateUntPts */
IUP[0]	/* InterpolateUntPts */
SVTCA[1]	/* SetFreedomAndProjectionVectorToAxis */
MD[0]	/* MeasureDistance */
ROUND[00]	/* Round */
PUSHW[ ]	/* 2 values pushed */
9 52
MD[0]	/* MeasureDistance */
ROUND[00]	/* Round */
SUB[ ]	/* Subtract */
PUSHB[ ]	/* 1 value pushed */
64
GT[ ]	/* GreaterThan */
IF[ ]	/* If */
SHPIX[ ]	/* ShiftZoneByPixel */
SRP1[ ]	/* SetRefPoint1 */
SHZ[1]	/* ShiftZoneByLastPoint */
PUSHW[ ]	/* 2 values pushed */
52 -64
SHPIX[ ]	/* ShiftZoneByPixel */
EIF[ ]	/* EndIf */";
};
width = 1628;
},
{
layerId = "3C10D975-8B50-4E95-9C62-C508D3823290";
shapes = (
{
closed = 1;
nodes = (
(446,-26,l),
(1232,1381,l),
(1028,1381,l),
(224,-26,l)
);
},
{
closed = 1;
nodes = (
(1248,71,o),
(1437,261,o),
(1437,394,qs),
(1437,528,o),
(1248,718,o),
(1115,718,qs),
(981,718,o),
(792,528,o),
(792,394,qs),
(792,261,o),
(981,71,o),
(1115,71,qs)
);
},
{
closed = 1;
nodes = (
(1062,267,o),
(987,342,o),
(987,394,qs),
(987,447,o),
(1062,522,o),
(1115,522,qs),
(1167,522,o),
(1242,447,o),
(1242,394,qs),
(1242,342,o),
(1167,267,o),
(1115,267,qs)
);
},
{
closed = 1;
nodes = (
(553,767,o),
(742,957,o),
(742,1091,qs),
(742,1224,o),
(553,1414,o),
(419,1414,qs),
(286,1414,o),
(97,1224,o),
(97,1091,qs),
(97,957,o),
(286,767,o),
(419,767,qs)
);
},
{
closed = 1;
nodes = (
(367,963,o),
(292,1038,o),
(292,1091,qs),
(292,1143,o),
(367,1218,o),
(419,1218,qs),
(472,1218,o),
(547,1143,o),
(547,1091,qs),
(547,1038,o),
(472,963,o),
(419,963,qs)
);
}
);
userData = {
assembly = "NPUSHB[ ]	/* 45 values pushed */
1 52 52 64 53 21 46 40 34 28 27 26 18 12 0 49 43 37 31 27 25 21 15 9 3 27 26 27 24 6 24 25 26 26 27 25 25 26 6 25 24 0 1 3 70
SROUND[ ]	/* SuperRound */
MDAP[1]	/* MoveDirectAbsPt */
SHZ[1]	/* ShiftZoneByLastPoint */
RTG[ ]	/* RoundToGrid */
SVTCA[0]	/* SetFreedomAndProjectionVectorToAxis */
MIAP[1]	/* MoveIndirectAbsPt */
ALIGNRP[ ]	/* AlignRelativePt */
MDAP[1]	/* MoveDirectAbsPt */
SVTCA[1]	/* SetFreedomAndProjectionVectorToAxis */
SDPVTL[1]	/* SetDualPVectorToLine */
MDAP[0]	/* MoveDirectAbsPt */
SFVTL[0]	/* SetFVectorToLine */
MDRP[00100]	/* MoveDirectRelPt */
SFVTL[0]	/* SetFVectorToLine */
MIRP[11100]	/* MoveIndirectRelPt */
SFVTL[0]	/* SetFVectorToLine */
MDRP[00100]	/* MoveDirectRelPt */
SVTCA[1]	/* SetFreedomAndProjectionVectorToAxis */
MDAP[0]	/* MoveDirectAbsPt */
MDAP[0]	/* MoveDirectAbsPt */
MDAP[0]	/* MoveDirectAbsPt */
MDAP[0]	/* MoveDirectAbsPt */
MDAP[0]	/* MoveDirectAbsPt */
MDAP[0]	/* MoveDirectAbsPt */
MDAP[0]	/* MoveDirectAbsPt */
MDAP[0]	/* MoveDirectAbsPt */
MDAP[0]	/* MoveDirectAbsPt */
MDAP[0]	/* MoveDirectAbsPt */
SVTCA[0]	/* SetFreedomAndProjectionVectorToAxis */
MDAP[0]	/* MoveDirectAbsPt */
MDAP[0]	/* MoveDirectAbsPt */
MDAP[0]	/* MoveDirectAbsPt */
MDAP[0]	/* MoveDirectAbsPt */
MDAP[0]	/* MoveDirectAbsPt */
MDAP[0]	/* MoveDirectAbsPt */
MDAP[0]	/* MoveDirectAbsPt */
MDAP[0]	/* MoveDirectAbsPt */
MDAP[0]	/* MoveDirectAbsPt */
IUP[1]	/* InterpolateUntPts */
IUP[0]	/* InterpolateUntPts */
SVTCA[1]	/* SetFreedomAndProjectionVectorToAxis */
MD[0]	/* MeasureDistance */
ROUND[00]	/* Round */
PUSHW[ ]	/* 2 values pushed */
3 52
MD[0]	/* MeasureDistance */
ROUND[00]	/* Round */
SUB[ ]	/* Subtract */
PUSHB[ ]	/* 1 value pushed */
64
GT[ ]	/* GreaterThan */
IF[ ]	/* If */
SHPIX[ ]	/* ShiftZoneByPixel */
SRP1[ ]	/* SetRefPoint1 */
SHZ[1]	/* ShiftZoneByLastPoint */
PUSHW[ ]	/* 2 values pushed */
52 -64
SHPIX[ ]	/* ShiftZoneByPixel */
EIF[ ]	/* EndIf */";
};
width = 1628;
}
);
note = percent;
unicode = 37;
},
{
glyphname = ampersand;
lastChange = "2025-04-20 14:04:59 +0000";
layers = (
{
layerId = m01;
shapes = (
{
closed = 1;
nodes = (
(802,0,o),
(890,54,qs),
(1003,123,o),
(1003,246,qs),
(1003,353,o),
(917,421,qs),
(837,484,o),
(727,484,qs),
(570,484,o),
(460,402,qs),
(397,355,o),
(334,276,q),
(272,362,o),
(246,394,q),
(194,476,o),
(194,552,qs),
(194,612,o),
(230,666,qs),
(278,738,o),
(410,738,qs),
(980,738,l),
(980,1076,l),
(1176,1076,l),
(1176,1198,l),
(-10,1198,l),
(-10,1076,l),
(862,1076,l),
(862,860,l),
(334,860,l),
(244,836,o),
(206,810,qs),
(162,781,o),
(116,708,qs),
(76,645,o),
(76,556,qs),
(76,334,o),
(308,144,qs),
(427,47,o),
(608,8,qs),
(646,0,o),
(686,0,qs)
);
},
{
closed = 1;
nodes = (
(105,-20,o),
(166,37,o),
(166,76,qs),
(166,116,o),
(110,177,o),
(70,176,qs),
(30,175,o),
(-32,120,o),
(-32,80,qs),
(-32,40,o),
(26,-20,o),
(66,-20,qs)
);
},
{
closed = 1;
nodes = (
(574,115,o),
(420,198,q),
(504,323,o),
(664,360,qs),
(690,366,o),
(720,366,qs),
(865,366,o),
(882,266,qs),
(884,254,o),
(884,243,qs),
(884,185,o),
(775,113,o),
(688,114,qs)
);
}
);
userData = {
assembly = "NPUSHB[ ]	/* 52 values pushed */
1 66 66 64 67 51 62 26 22 9 58 53 52 51 50 49 40 30 18 0 2 6 48 47 2 13 12 14 13 4 47 46 55 4 34 52 49 48 3 12 4 50 51 50 1 34 0 3 0 1 6 70
SROUND[ ]	/* SuperRound */
MDAP[1]	/* MoveDirectAbsPt */
SHZ[1]	/* ShiftZoneByLastPoint */
RTG[ ]	/* RoundToGrid */
SVTCA[0]	/* SetFreedomAndProjectionVectorToAxis */
MIAP[1]	/* MoveIndirectAbsPt */
MIAP[1]	/* MoveIndirectAbsPt */
MIAP[1]	/* MoveIndirectAbsPt */
ALIGNRP[ ]	/* AlignRelativePt */
SRP0[ ]	/* SetRefPoint0 */
MIRP[11101]	/* MoveIndirectRelPt */
SLOOP[ ]	/* SetLoopVariable */
ALIGNRP[ ]	/* AlignRelativePt */
SRP0[ ]	/* SetRefPoint0 */
MIRP[11101]	/* MoveIndirectRelPt */
MDAP[1]	/* MoveDirectAbsPt */
ALIGNRP[ ]	/* AlignRelativePt */
MIRP[11101]	/* MoveIndirectRelPt */
ALIGNRP[ ]	/* AlignRelativePt */
SVTCA[1]	/* SetFreedomAndProjectionVectorToAxis */
MDAP[1]	/* MoveDirectAbsPt */
ALIGNRP[ ]	/* AlignRelativePt */
MIRP[11101]	/* MoveIndirectRelPt */
ALIGNRP[ ]	/* AlignRelativePt */
MDAP[1]	/* MoveDirectAbsPt */
MIRP[11101]	/* MoveIndirectRelPt */
MDAP[0]	/* MoveDirectAbsPt */
MDAP[0]	/* MoveDirectAbsPt */
MDAP[0]	/* MoveDirectAbsPt */
MDAP[0]	/* MoveDirectAbsPt */
MDAP[0]	/* MoveDirectAbsPt */
MDAP[0]	/* MoveDirectAbsPt */
MDAP[0]	/* MoveDirectAbsPt */
MDAP[0]	/* MoveDirectAbsPt */
MDAP[0]	/* MoveDirectAbsPt */
SVTCA[0]	/* SetFreedomAndProjectionVectorToAxis */
MDAP[0]	/* MoveDirectAbsPt */
MDAP[0]	/* MoveDirectAbsPt */
MDAP[0]	/* MoveDirectAbsPt */
MDAP[0]	/* MoveDirectAbsPt */
IUP[1]	/* InterpolateUntPts */
IUP[0]	/* InterpolateUntPts */
SVTCA[1]	/* SetFreedomAndProjectionVectorToAxis */
MD[0]	/* MeasureDistance */
ROUND[00]	/* Round */
PUSHW[ ]	/* 2 values pushed */
6 66
MD[0]	/* MeasureDistance */
ROUND[00]	/* Round */
SUB[ ]	/* Subtract */
PUSHB[ ]	/* 1 value pushed */
64
GT[ ]	/* GreaterThan */
IF[ ]	/* If */
SHPIX[ ]	/* ShiftZoneByPixel */
SRP1[ ]	/* SetRefPoint1 */
SHZ[1]	/* ShiftZoneByLastPoint */
PUSHW[ ]	/* 2 values pushed */
66 -64
SHPIX[ ]	/* ShiftZoneByPixel */
EIF[ ]	/* EndIf */";
};
width = 1140;
},
{
layerId = "EFA29B47-3DC8-4F8A-813A-13C07BF7C797";
shapes = (
{
closed = 1;
nodes = (
(781,-2,o),
(863,48,qs),
(956,105,o),
(970,208,qs),
(973,230,o),
(973,250,qs),
(973,370,o),
(875,429,qs),
(799,476,o),
(690,474,qs),
(550,472,o),
(476,401,q),
(435,348,o),
(394,296,q),
(278,417,o),
(278,537,qs),
(278,552,o),
(280,566,qs),
(296,676,o),
(454,676,qs),
(968,676,l),
(968,1038,l),
(1180,1038,l),
(1180,1198,l),
(-20,1198,l),
(-20,1038,l),
(806,1038,l),
(806,834,l),
(388,834,ls),
(200,834,o),
(136,676,qs),
(116,625,o),
(116,563,qs),
(116,450,o),
(168,352,qs),
(238,222,o),
(320,152,qs),
(446,45,o),
(578,10,qs),
(622,-2,o),
(672,-2,qs)
);
},
{
closed = 1;
nodes = (
(137,-3,o),
(198,54,o),
(198,94,qs),
(198,135,o),
(140,196,o),
(100,195,qs),
(60,194,o),
(-3,136,o),
(-2,96,qs),
(-1,56,o),
(57,-4,o),
(97,-4,qs)
);
},
{
closed = 1;
nodes = (
(642,153,o),
(618,158,qs),
(555,170,o),
(537,181,q),
(516,197,o),
(494,212,q),
(520,247,o),
(546,282,q),
(579,316,o),
(650,330,qs),
(668,334,o),
(690,334,qs),
(744,334,o),
(782,313,qs),
(827,288,o),
(827,243,qs),
(827,235,o),
(826,226,qs),
(813,153,o),
(674,153,qs)
);
}
);
userData = {
assembly = "NPUSHB[ ]	/* 48 values pushed */
1 73 73 64 74 0 61 55 47 13 9 70 64 51 41 40 39 38 31 17 7 0 37 36 2 2 1 38 37 1 3 0 4 39 3 2 4 36 35 40 39 1 67 23 0 1 38 70
SROUND[ ]	/* SuperRound */
MDAP[1]	/* MoveDirectAbsPt */
SHZ[1]	/* ShiftZoneByLastPoint */
RTG[ ]	/* RoundToGrid */
SVTCA[0]	/* SetFreedomAndProjectionVectorToAxis */
MIAP[1]	/* MoveIndirectAbsPt */
ALIGNRP[ ]	/* AlignRelativePt */
MIAP[1]	/* MoveIndirectAbsPt */
ALIGNRP[ ]	/* AlignRelativePt */
MDAP[1]	/* MoveDirectAbsPt */
ALIGNRP[ ]	/* AlignRelativePt */
MIRP[11101]	/* MoveIndirectRelPt */
ALIGNRP[ ]	/* AlignRelativePt */
SRP0[ ]	/* SetRefPoint0 */
MIRP[11101]	/* MoveIndirectRelPt */
SLOOP[ ]	/* SetLoopVariable */
ALIGNRP[ ]	/* AlignRelativePt */
SVTCA[1]	/* SetFreedomAndProjectionVectorToAxis */
MDAP[1]	/* MoveDirectAbsPt */
ALIGNRP[ ]	/* AlignRelativePt */
MIRP[11101]	/* MoveIndirectRelPt */
ALIGNRP[ ]	/* AlignRelativePt */
MDAP[0]	/* MoveDirectAbsPt */
MDAP[0]	/* MoveDirectAbsPt */
MDAP[0]	/* MoveDirectAbsPt */
MDAP[0]	/* MoveDirectAbsPt */
MDAP[0]	/* MoveDirectAbsPt */
MDAP[0]	/* MoveDirectAbsPt */
MDAP[0]	/* MoveDirectAbsPt */
MDAP[0]	/* MoveDirectAbsPt */
MDAP[0]	/* MoveDirectAbsPt */
MDAP[0]	/* MoveDirectAbsPt */
MDAP[0]	/* MoveDirectAbsPt */
SVTCA[0]	/* SetFreedomAndProjectionVectorToAxis */
MDAP[0]	/* MoveDirectAbsPt */
MDAP[0]	/* MoveDirectAbsPt */
MDAP[0]	/* MoveDirectAbsPt */
MDAP[0]	/* MoveDirectAbsPt */
MDAP[0]	/* MoveDirectAbsPt */
IUP[1]	/* InterpolateUntPts */
IUP[0]	/* InterpolateUntPts */
SVTCA[1]	/* SetFreedomAndProjectionVectorToAxis */
MD[0]	/* MeasureDistance */
ROUND[00]	/* Round */
PUSHW[ ]	/* 2 values pushed */
38 73
MD[0]	/* MeasureDistance */
ROUND[00]	/* Round */
SUB[ ]	/* Subtract */
PUSHB[ ]	/* 1 value pushed */
64
GT[ ]	/* GreaterThan */
IF[ ]	/* If */
SHPIX[ ]	/* ShiftZoneByPixel */
SRP1[ ]	/* SetRefPoint1 */
SHZ[1]	/* ShiftZoneByLastPoint */
PUSHW[ ]	/* 2 values pushed */
73 -64
SHPIX[ ]	/* ShiftZoneByPixel */
EIF[ ]	/* EndIf */";
};
width = 1132;
},
{
layerId = "3C10D975-8B50-4E95-9C62-C508D3823290";
shapes = (
{
closed = 1;
nodes = (
(799,-29,o),
(928,72,qs),
(1008,134,o),
(1008,246,qs),
(1008,370,o),
(905,450,qs),
(823,513,o),
(716,513,qs),
(574,513,o),
(380,367,q),
(349,407,o),
(337,422,q),
(299,480,o),
(299,528,qs),
(299,637,o),
(446,637,qs),
(972,637,l),
(972,987,l),
(1165,987,l),
(1165,1201,l),
(-9,1201,l),
(-9,987,l),
(761,987,l),
(761,851,l),
(369,851,l),
(272,825,o),
(228,796,qs),
(88,704,o),
(88,531,qs),
(88,348,o),
(248,184,qs),
(438,-10,o),
(660,-21,qs)
);
},
{
closed = 1;
nodes = (
(143,-23,o),
(223,57,o),
(223,114,qs),
(223,170,o),
(143,250,o),
(86,250,qs),
(30,250,o),
(-50,170,o),
(-50,114,qs),
(-50,57,o),
(30,-23,o),
(86,-23,qs)
);
},
{
closed = 1;
nodes = (
(639,177,o),
(536,223,q),
(626,312,o),
(692,321,qs),
(704,322,o),
(715,322,qs),
(788,322,o),
(799,260,qs),
(800,253,o),
(800,247,qs),
(800,177,o),
(683,177,qs)
);
}
);
userData = {
assembly = "NPUSHB[ ]	/* 47 values pushed */
1 57 57 64 58 31 55 49 39 27 26 10 8 2 1 51 47 32 31 30 29 28 27 22 14 4 1 0 36 2 42 32 29 28 3 0 4 30 31 30 1 33 18 0 1 36 70
SROUND[ ]	/* SuperRound */
MDAP[1]	/* MoveDirectAbsPt */
SHZ[1]	/* ShiftZoneByLastPoint */
RTG[ ]	/* RoundToGrid */
SVTCA[0]	/* SetFreedomAndProjectionVectorToAxis */
MIAP[1]	/* MoveIndirectAbsPt */
ALIGNRP[ ]	/* AlignRelativePt */
MIAP[1]	/* MoveIndirectAbsPt */
ALIGNRP[ ]	/* AlignRelativePt */
SRP0[ ]	/* SetRefPoint0 */
MIRP[11101]	/* MoveIndirectRelPt */
SLOOP[ ]	/* SetLoopVariable */
ALIGNRP[ ]	/* AlignRelativePt */
SVTCA[1]	/* SetFreedomAndProjectionVectorToAxis */
MDAP[1]	/* MoveDirectAbsPt */
MIRP[11101]	/* MoveIndirectRelPt */
MDAP[0]	/* MoveDirectAbsPt */
MDAP[0]	/* MoveDirectAbsPt */
MDAP[0]	/* MoveDirectAbsPt */
MDAP[0]	/* MoveDirectAbsPt */
MDAP[0]	/* MoveDirectAbsPt */
MDAP[0]	/* MoveDirectAbsPt */
MDAP[0]	/* MoveDirectAbsPt */
MDAP[0]	/* MoveDirectAbsPt */
MDAP[0]	/* MoveDirectAbsPt */
MDAP[0]	/* MoveDirectAbsPt */
MDAP[0]	/* MoveDirectAbsPt */
MDAP[0]	/* MoveDirectAbsPt */
MDAP[0]	/* MoveDirectAbsPt */
SVTCA[0]	/* SetFreedomAndProjectionVectorToAxis */
MDAP[0]	/* MoveDirectAbsPt */
MDAP[0]	/* MoveDirectAbsPt */
MDAP[0]	/* MoveDirectAbsPt */
MDAP[0]	/* MoveDirectAbsPt */
MDAP[0]	/* MoveDirectAbsPt */
MDAP[0]	/* MoveDirectAbsPt */
MDAP[0]	/* MoveDirectAbsPt */
MDAP[0]	/* MoveDirectAbsPt */
MDAP[0]	/* MoveDirectAbsPt */
IUP[1]	/* InterpolateUntPts */
IUP[0]	/* InterpolateUntPts */
SVTCA[1]	/* SetFreedomAndProjectionVectorToAxis */
MD[0]	/* MeasureDistance */
ROUND[00]	/* Round */
PUSHW[ ]	/* 2 values pushed */
36 57
MD[0]	/* MeasureDistance */
ROUND[00]	/* Round */
SUB[ ]	/* Subtract */
PUSHB[ ]	/* 1 value pushed */
64
GT[ ]	/* GreaterThan */
IF[ ]	/* If */
SHPIX[ ]	/* ShiftZoneByPixel */
SRP1[ ]	/* SetRefPoint1 */
SHZ[1]	/* ShiftZoneByLastPoint */
PUSHW[ ]	/* 2 values pushed */
57 -64
SHPIX[ ]	/* ShiftZoneByPixel */
EIF[ ]	/* EndIf */";
};
width = 1132;
}
);
note = ampersand;
unicode = 38;
},
{
glyphname = quotesingle;
lastChange = "2025-04-20 14:04:59 +0000";
layers = (
{
layerId = m01;
shapes = (
{
closed = 1;
nodes = (
(248,886,l),
(320,1256,o),
(320,1318,qs),
(320,1388,o),
(242,1388,qs),
(160,1388,o),
(160,1318,qs),
(160,1266,o),
(232,886,q)
);
}
);
userData = {
assembly = "NPUSHB[ ]	/* 15 values pushed */
1 9 9 64 10 6 6 2 2 4 8 0 1 2 70
SROUND[ ]	/* SuperRound */
MDAP[1]	/* MoveDirectAbsPt */
SHZ[1]	/* ShiftZoneByLastPoint */
RTG[ ]	/* RoundToGrid */
SVTCA[0]	/* SetFreedomAndProjectionVectorToAxis */
MDAP[1]	/* MoveDirectAbsPt */
ALIGNRP[ ]	/* AlignRelativePt */
MDAP[1]	/* MoveDirectAbsPt */
SVTCA[1]	/* SetFreedomAndProjectionVectorToAxis */
MDAP[1]	/* MoveDirectAbsPt */
MIRP[11101]	/* MoveIndirectRelPt */
SVTCA[0]	/* SetFreedomAndProjectionVectorToAxis */
IUP[1]	/* InterpolateUntPts */
IUP[0]	/* InterpolateUntPts */
SVTCA[1]	/* SetFreedomAndProjectionVectorToAxis */
MD[0]	/* MeasureDistance */
ROUND[00]	/* Round */
PUSHW[ ]	/* 2 values pushed */
2 9
MD[0]	/* MeasureDistance */
ROUND[00]	/* Round */
SUB[ ]	/* Subtract */
PUSHB[ ]	/* 1 value pushed */
64
GT[ ]	/* GreaterThan */
IF[ ]	/* If */
SHPIX[ ]	/* ShiftZoneByPixel */
SRP1[ ]	/* SetRefPoint1 */
SHZ[1]	/* ShiftZoneByLastPoint */
PUSHW[ ]	/* 2 values pushed */
9 -64
SHPIX[ ]	/* ShiftZoneByPixel */
EIF[ ]	/* EndIf */";
};
width = 500;
},
{
layerId = "EFA29B47-3DC8-4F8A-813A-13C07BF7C797";
shapes = (
{
closed = 1;
nodes = (
(278,886,l),
(352,1205,o),
(352,1304,qs),
(352,1343,o),
(320,1367,qs),
(292,1388,o),
(258,1388,qs),
(219,1388,o),
(190,1367,qs),
(158,1343,o),
(158,1304,qs),
(158,1231,o),
(232,886,q)
);
}
);
userData = {
assembly = "NPUSHB[ ]	/* 15 values pushed */
1 13 13 64 14 11 3 2 11 7 1 0 1 3 70
SROUND[ ]	/* SuperRound */
MDAP[1]	/* MoveDirectAbsPt */
SHZ[1]	/* ShiftZoneByLastPoint */
RTG[ ]	/* RoundToGrid */
SVTCA[0]	/* SetFreedomAndProjectionVectorToAxis */
MDAP[1]	/* MoveDirectAbsPt */
ALIGNRP[ ]	/* AlignRelativePt */
MDAP[1]	/* MoveDirectAbsPt */
SVTCA[1]	/* SetFreedomAndProjectionVectorToAxis */
MDAP[1]	/* MoveDirectAbsPt */
MIRP[11101]	/* MoveIndirectRelPt */
SVTCA[0]	/* SetFreedomAndProjectionVectorToAxis */
IUP[1]	/* InterpolateUntPts */
IUP[0]	/* InterpolateUntPts */
SVTCA[1]	/* SetFreedomAndProjectionVectorToAxis */
MD[0]	/* MeasureDistance */
ROUND[00]	/* Round */
PUSHW[ ]	/* 2 values pushed */
3 13
MD[0]	/* MeasureDistance */
ROUND[00]	/* Round */
SUB[ ]	/* Subtract */
PUSHB[ ]	/* 1 value pushed */
64
GT[ ]	/* GreaterThan */
IF[ ]	/* If */
SHPIX[ ]	/* ShiftZoneByPixel */
SRP1[ ]	/* SetRefPoint1 */
SHZ[1]	/* ShiftZoneByLastPoint */
PUSHW[ ]	/* 2 values pushed */
13 -64
SHPIX[ ]	/* ShiftZoneByPixel */
EIF[ ]	/* EndIf */";
};
width = 500;
},
{
layerId = "3C10D975-8B50-4E95-9C62-C508D3823290";
shapes = (
{
closed = 1;
nodes = (
(291,835,l),
(317,945,o),
(342,1054,qs),
(375,1198,o),
(375,1270,qs),
(375,1382,o),
(255,1382,qs),
(131,1382,o),
(131,1270,qs),
(131,1210,o),
(165,1053,qs),
(190,944,o),
(214,835,q)
);
}
);
userData = {
assembly = "NPUSHB[ ]	/* 14 values pushed */
1 13 13 64 14 9 9 5 7 1 0 1 5 70
SROUND[ ]	/* SuperRound */
MDAP[1]	/* MoveDirectAbsPt */
SHZ[1]	/* ShiftZoneByLastPoint */
RTG[ ]	/* RoundToGrid */
SVTCA[0]	/* SetFreedomAndProjectionVectorToAxis */
MDAP[1]	/* MoveDirectAbsPt */
ALIGNRP[ ]	/* AlignRelativePt */
MDAP[1]	/* MoveDirectAbsPt */
SVTCA[1]	/* SetFreedomAndProjectionVectorToAxis */
MDAP[0]	/* MoveDirectAbsPt */
MDAP[0]	/* MoveDirectAbsPt */
SVTCA[0]	/* SetFreedomAndProjectionVectorToAxis */
IUP[1]	/* InterpolateUntPts */
IUP[0]	/* InterpolateUntPts */
SVTCA[1]	/* SetFreedomAndProjectionVectorToAxis */
MD[0]	/* MeasureDistance */
ROUND[00]	/* Round */
PUSHW[ ]	/* 2 values pushed */
5 13
MD[0]	/* MeasureDistance */
ROUND[00]	/* Round */
SUB[ ]	/* Subtract */
PUSHB[ ]	/* 1 value pushed */
64
GT[ ]	/* GreaterThan */
IF[ ]	/* If */
SHPIX[ ]	/* ShiftZoneByPixel */
SRP1[ ]	/* SetRefPoint1 */
SHZ[1]	/* ShiftZoneByLastPoint */
PUSHW[ ]	/* 2 values pushed */
13 -64
SHPIX[ ]	/* ShiftZoneByPixel */
EIF[ ]	/* EndIf */";
};
width = 500;
}
);
note = quotesingle;
unicode = 39;
},
{
glyphname = parenleft;
lastChange = "2025-04-20 14:04:59 +0000";
layers = (
{
layerId = m01;
shapes = (
{
closed = 1;
nodes = (
(696,-302,l),
(262,-46,o),
(262,612,qs),
(262,967,o),
(410,1180,qs),
(494,1301,o),
(698,1442,q),
(696,1456,l),
(432,1318,o),
(280,1107,qs),
(112,875,o),
(112,596,qs),
(112,312,o),
(435,-193,o),
(692,-316,q)
);
}
);
userData = {
assembly = "NPUSHB[ ]	/* 15 values pushed */
1 15 15 64 16 11 11 6 2 0 10 3 1 6 70
SROUND[ ]	/* SuperRound */
MDAP[1]	/* MoveDirectAbsPt */
SHZ[1]	/* ShiftZoneByLastPoint */
RTG[ ]	/* RoundToGrid */
SVTCA[0]	/* SetFreedomAndProjectionVectorToAxis */
MDAP[1]	/* MoveDirectAbsPt */
MDAP[1]	/* MoveDirectAbsPt */
SVTCA[1]	/* SetFreedomAndProjectionVectorToAxis */
MDAP[0]	/* MoveDirectAbsPt */
MDAP[0]	/* MoveDirectAbsPt */
MDAP[0]	/* MoveDirectAbsPt */
MDAP[0]	/* MoveDirectAbsPt */
SVTCA[0]	/* SetFreedomAndProjectionVectorToAxis */
IUP[1]	/* InterpolateUntPts */
IUP[0]	/* InterpolateUntPts */
SVTCA[1]	/* SetFreedomAndProjectionVectorToAxis */
MD[0]	/* MeasureDistance */
ROUND[00]	/* Round */
PUSHW[ ]	/* 2 values pushed */
6 15
MD[0]	/* MeasureDistance */
ROUND[00]	/* Round */
SUB[ ]	/* Subtract */
PUSHB[ ]	/* 1 value pushed */
64
GT[ ]	/* GreaterThan */
IF[ ]	/* If */
SHPIX[ ]	/* ShiftZoneByPixel */
SRP1[ ]	/* SetRefPoint1 */
SHZ[1]	/* ShiftZoneByLastPoint */
PUSHW[ ]	/* 2 values pushed */
15 -64
SHPIX[ ]	/* ShiftZoneByPixel */
EIF[ ]	/* EndIf */";
};
width = 772;
},
{
layerId = "EFA29B47-3DC8-4F8A-813A-13C07BF7C797";
shapes = (
{
closed = 1;
nodes = (
(706,-286,l),
(449,-138,o),
(360,169,qs),
(310,339,o),
(310,612,qs),
(310,962,o),
(444,1172,qs),
(522,1295,o),
(706,1426,q),
(684,1462,l),
(413,1317,o),
(112,865,o),
(112,596,qs),
(112,314,o),
(266,59,qs),
(424,-200,o),
(678,-320,q)
);
}
);
userData = {
assembly = "NPUSHB[ ]	/* 15 values pushed */
1 17 17 64 18 0 13 8 4 0 16 9 1 13 70
SROUND[ ]	/* SuperRound */
MDAP[1]	/* MoveDirectAbsPt */
SHZ[1]	/* ShiftZoneByLastPoint */
RTG[ ]	/* RoundToGrid */
SVTCA[0]	/* SetFreedomAndProjectionVectorToAxis */
MDAP[1]	/* MoveDirectAbsPt */
MDAP[1]	/* MoveDirectAbsPt */
SVTCA[1]	/* SetFreedomAndProjectionVectorToAxis */
MDAP[0]	/* MoveDirectAbsPt */
MDAP[0]	/* MoveDirectAbsPt */
MDAP[0]	/* MoveDirectAbsPt */
MDAP[0]	/* MoveDirectAbsPt */
SVTCA[0]	/* SetFreedomAndProjectionVectorToAxis */
IUP[1]	/* InterpolateUntPts */
IUP[0]	/* InterpolateUntPts */
SVTCA[1]	/* SetFreedomAndProjectionVectorToAxis */
MD[0]	/* MeasureDistance */
ROUND[00]	/* Round */
PUSHW[ ]	/* 2 values pushed */
13 17
MD[0]	/* MeasureDistance */
ROUND[00]	/* Round */
SUB[ ]	/* Subtract */
PUSHB[ ]	/* 1 value pushed */
64
GT[ ]	/* GreaterThan */
IF[ ]	/* If */
SHPIX[ ]	/* ShiftZoneByPixel */
SRP1[ ]	/* SetRefPoint1 */
SHZ[1]	/* ShiftZoneByLastPoint */
PUSHW[ ]	/* 2 values pushed */
17 -64
SHPIX[ ]	/* ShiftZoneByPixel */
EIF[ ]	/* EndIf */";
};
width = 772;
},
{
layerId = "3C10D975-8B50-4E95-9C62-C508D3823290";
shapes = (
{
closed = 1;
nodes = (
(701,-248,l),
(303,-6,o),
(303,612,qs),
(303,893,o),
(391,1067,qs),
(478,1238,o),
(698,1395,q),
(682,1472,l),
(68,1140,o),
(68,597,qs),
(68,300,o),
(234,54,qs),
(393,-183,o),
(670,-319,q)
);
}
);
userData = {
assembly = "NPUSHB[ ]	/* 15 values pushed */
1 14 14 64 15 13 13 11 7 4 6 0 1 4 70
SROUND[ ]	/* SuperRound */
MDAP[1]	/* MoveDirectAbsPt */
SHZ[1]	/* ShiftZoneByLastPoint */
RTG[ ]	/* RoundToGrid */
SVTCA[0]	/* SetFreedomAndProjectionVectorToAxis */
MDAP[1]	/* MoveDirectAbsPt */
MDAP[1]	/* MoveDirectAbsPt */
SVTCA[1]	/* SetFreedomAndProjectionVectorToAxis */
MDAP[0]	/* MoveDirectAbsPt */
MDAP[0]	/* MoveDirectAbsPt */
MDAP[0]	/* MoveDirectAbsPt */
MDAP[0]	/* MoveDirectAbsPt */
SVTCA[0]	/* SetFreedomAndProjectionVectorToAxis */
IUP[1]	/* InterpolateUntPts */
IUP[0]	/* InterpolateUntPts */
SVTCA[1]	/* SetFreedomAndProjectionVectorToAxis */
MD[0]	/* MeasureDistance */
ROUND[00]	/* Round */
PUSHW[ ]	/* 2 values pushed */
4 14
MD[0]	/* MeasureDistance */
ROUND[00]	/* Round */
SUB[ ]	/* Subtract */
PUSHB[ ]	/* 1 value pushed */
64
GT[ ]	/* GreaterThan */
IF[ ]	/* If */
SHPIX[ ]	/* ShiftZoneByPixel */
SRP1[ ]	/* SetRefPoint1 */
SHZ[1]	/* ShiftZoneByLastPoint */
PUSHW[ ]	/* 2 values pushed */
14 -64
SHPIX[ ]	/* ShiftZoneByPixel */
EIF[ ]	/* EndIf */";
};
width = 772;
}
);
note = parenleft;
unicode = 40;
},
{
glyphname = parenright;
lastChange = "2025-04-20 14:04:59 +0000";
layers = (
{
layerId = m01;
shapes = (
{
closed = 1;
nodes = (
(341,-193,o),
(664,312,o),
(664,596,qs),
(664,875,o),
(496,1107,qs),
(344,1318,o),
(80,1456,q),
(78,1442,l),
(282,1301,o),
(366,1180,qs),
(514,967,o),
(514,612,qs),
(514,-46,o),
(80,-302,q),
(84,-316,l)
);
}
);
userData = {
assembly = "NPUSHB[ ]	/* 15 values pushed */
1 15 15 64 16 4 14 10 8 4 0 7 1 14 70
SROUND[ ]	/* SuperRound */
MDAP[1]	/* MoveDirectAbsPt */
SHZ[1]	/* ShiftZoneByLastPoint */
RTG[ ]	/* RoundToGrid */
SVTCA[0]	/* SetFreedomAndProjectionVectorToAxis */
MDAP[1]	/* MoveDirectAbsPt */
MDAP[1]	/* MoveDirectAbsPt */
SVTCA[1]	/* SetFreedomAndProjectionVectorToAxis */
MDAP[0]	/* MoveDirectAbsPt */
MDAP[0]	/* MoveDirectAbsPt */
MDAP[0]	/* MoveDirectAbsPt */
MDAP[0]	/* MoveDirectAbsPt */
SVTCA[0]	/* SetFreedomAndProjectionVectorToAxis */
IUP[1]	/* InterpolateUntPts */
IUP[0]	/* InterpolateUntPts */
SVTCA[1]	/* SetFreedomAndProjectionVectorToAxis */
MD[0]	/* MeasureDistance */
ROUND[00]	/* Round */
PUSHW[ ]	/* 2 values pushed */
14 15
MD[0]	/* MeasureDistance */
ROUND[00]	/* Round */
SUB[ ]	/* Subtract */
PUSHB[ ]	/* 1 value pushed */
64
GT[ ]	/* GreaterThan */
IF[ ]	/* If */
SHPIX[ ]	/* ShiftZoneByPixel */
SRP1[ ]	/* SetRefPoint1 */
SHZ[1]	/* ShiftZoneByLastPoint */
PUSHW[ ]	/* 2 values pushed */
15 -64
SHPIX[ ]	/* ShiftZoneByPixel */
EIF[ ]	/* EndIf */";
};
width = 772;
},
{
layerId = "EFA29B47-3DC8-4F8A-813A-13C07BF7C797";
shapes = (
{
closed = 1;
nodes = (
(352,-200,o),
(510,59,qs),
(664,314,o),
(664,596,qs),
(664,865,o),
(363,1317,o),
(92,1462,q),
(70,1426,l),
(254,1295,o),
(333,1172,qs),
(466,962,o),
(466,612,qs),
(466,339,o),
(417,169,qs),
(327,-138,o),
(70,-286,q),
(98,-320,l)
);
}
);
userData = {
assembly = "NPUSHB[ ]	/* 15 values pushed */
1 17 17 64 18 4 13 9 4 0 1 8 1 0 70
SROUND[ ]	/* SuperRound */
MDAP[1]	/* MoveDirectAbsPt */
SHZ[1]	/* ShiftZoneByLastPoint */
RTG[ ]	/* RoundToGrid */
SVTCA[0]	/* SetFreedomAndProjectionVectorToAxis */
MDAP[1]	/* MoveDirectAbsPt */
MDAP[1]	/* MoveDirectAbsPt */
SVTCA[1]	/* SetFreedomAndProjectionVectorToAxis */
MDAP[0]	/* MoveDirectAbsPt */
MDAP[0]	/* MoveDirectAbsPt */
MDAP[0]	/* MoveDirectAbsPt */
MDAP[0]	/* MoveDirectAbsPt */
SVTCA[0]	/* SetFreedomAndProjectionVectorToAxis */
IUP[1]	/* InterpolateUntPts */
IUP[0]	/* InterpolateUntPts */
SVTCA[1]	/* SetFreedomAndProjectionVectorToAxis */
MD[0]	/* MeasureDistance */
ROUND[00]	/* Round */
PUSHW[ ]	/* 2 values pushed */
0 17
MD[0]	/* MeasureDistance */
ROUND[00]	/* Round */
SUB[ ]	/* Subtract */
PUSHB[ ]	/* 1 value pushed */
64
GT[ ]	/* GreaterThan */
IF[ ]	/* If */
SHPIX[ ]	/* ShiftZoneByPixel */
SRP1[ ]	/* SetRefPoint1 */
SHZ[1]	/* ShiftZoneByLastPoint */
PUSHW[ ]	/* 2 values pushed */
17 -64
SHPIX[ ]	/* ShiftZoneByPixel */
EIF[ ]	/* EndIf */";
};
width = 772;
},
{
layerId = "3C10D975-8B50-4E95-9C62-C508D3823290";
shapes = (
{
closed = 1;
nodes = (
(375,-183,o),
(535,54,qs),
(701,300,o),
(701,597,qs),
(701,1140,o),
(87,1472,q),
(71,1395,l),
(290,1238,o),
(378,1067,qs),
(466,893,o),
(466,612,qs),
(466,-6,o),
(68,-248,q),
(98,-319,l)
);
}
);
userData = {
assembly = "NPUSHB[ ]	/* 15 values pushed */
1 14 14 64 15 10 10 7 3 1 8 0 1 1 70
SROUND[ ]	/* SuperRound */
MDAP[1]	/* MoveDirectAbsPt */
SHZ[1]	/* ShiftZoneByLastPoint */
RTG[ ]	/* RoundToGrid */
SVTCA[0]	/* SetFreedomAndProjectionVectorToAxis */
MDAP[1]	/* MoveDirectAbsPt */
MDAP[1]	/* MoveDirectAbsPt */
SVTCA[1]	/* SetFreedomAndProjectionVectorToAxis */
MDAP[0]	/* MoveDirectAbsPt */
MDAP[0]	/* MoveDirectAbsPt */
MDAP[0]	/* MoveDirectAbsPt */
MDAP[0]	/* MoveDirectAbsPt */
SVTCA[0]	/* SetFreedomAndProjectionVectorToAxis */
IUP[1]	/* InterpolateUntPts */
IUP[0]	/* InterpolateUntPts */
SVTCA[1]	/* SetFreedomAndProjectionVectorToAxis */
MD[0]	/* MeasureDistance */
ROUND[00]	/* Round */
PUSHW[ ]	/* 2 values pushed */
1 14
MD[0]	/* MeasureDistance */
ROUND[00]	/* Round */
SUB[ ]	/* Subtract */
PUSHB[ ]	/* 1 value pushed */
64
GT[ ]	/* GreaterThan */
IF[ ]	/* If */
SHPIX[ ]	/* ShiftZoneByPixel */
SRP1[ ]	/* SetRefPoint1 */
SHZ[1]	/* ShiftZoneByLastPoint */
PUSHW[ ]	/* 2 values pushed */
14 -64
SHPIX[ ]	/* ShiftZoneByPixel */
EIF[ ]	/* EndIf */";
};
width = 772;
}
);
note = parenright;
unicode = 41;
},
{
glyphname = asterisk;
lastChange = "2025-04-20 14:04:59 +0000";
layers = (
{
layerId = m01;
shapes = (
{
closed = 1;
nodes = (
(686,854,o),
(686,896,qs),
(686,972,o),
(414,1030,q),
(574,854,o),
(644,854,qs)
);
},
{
closed = 1;
nodes = (
(226,856,o),
(388,1028,q),
(118,976,o),
(118,898,qs),
(118,856,o),
(156,856,qs)
);
},
{
closed = 1;
nodes = (
(450,720,o),
(450,794,qs),
(450,870,o),
(400,1012,q),
(352,872,o),
(352,796,qs),
(352,720,o),
(402,720,qs)
);
},
{
closed = 1;
nodes = (
(230,1220,o),
(160,1220,qs),
(118,1220,o),
(118,1178,qs),
(118,1100,o),
(388,1048,q)
);
},
{
closed = 1;
nodes = (
(450,1210,o),
(450,1286,qs),
(450,1362,o),
(402,1362,qs),
(352,1362,o),
(352,1286,qs),
(352,1208,o),
(402,1064,q)
);
},
{
closed = 1;
nodes = (
(684,1108,o),
(684,1180,qs),
(684,1222,o),
(642,1222,qs),
(570,1222,o),
(414,1046,q)
);
}
);
userData = {
assembly = "NPUSHB[ ]	/* 38 values pushed */
1 40 40 64 41 30 36 34 32 28 20 16 14 6 4 0 34 28 14 0 30 38 14 12 18 2 14 8 22 12 3 26 8 10 24 1 2 70
SROUND[ ]	/* SuperRound */
MDAP[1]	/* MoveDirectAbsPt */
SHZ[1]	/* ShiftZoneByLastPoint */
RTG[ ]	/* RoundToGrid */
SVTCA[0]	/* SetFreedomAndProjectionVectorToAxis */
MDAP[1]	/* MoveDirectAbsPt */
MDAP[1]	/* MoveDirectAbsPt */
SVTCA[1]	/* SetFreedomAndProjectionVectorToAxis */
MDAP[1]	/* MoveDirectAbsPt */
ALIGNRP[ ]	/* AlignRelativePt */
MIRP[11101]	/* MoveIndirectRelPt */
ALIGNRP[ ]	/* AlignRelativePt */
SRP0[ ]	/* SetRefPoint0 */
MIRP[11101]	/* MoveIndirectRelPt */
ALIGNRP[ ]	/* AlignRelativePt */
SRP0[ ]	/* SetRefPoint0 */
MIRP[11101]	/* MoveIndirectRelPt */
ALIGNRP[ ]	/* AlignRelativePt */
MDAP[0]	/* MoveDirectAbsPt */
MDAP[0]	/* MoveDirectAbsPt */
MDAP[0]	/* MoveDirectAbsPt */
MDAP[0]	/* MoveDirectAbsPt */
SVTCA[0]	/* SetFreedomAndProjectionVectorToAxis */
MDAP[0]	/* MoveDirectAbsPt */
MDAP[0]	/* MoveDirectAbsPt */
MDAP[0]	/* MoveDirectAbsPt */
MDAP[0]	/* MoveDirectAbsPt */
MDAP[0]	/* MoveDirectAbsPt */
MDAP[0]	/* MoveDirectAbsPt */
MDAP[0]	/* MoveDirectAbsPt */
MDAP[0]	/* MoveDirectAbsPt */
MDAP[0]	/* MoveDirectAbsPt */
MDAP[0]	/* MoveDirectAbsPt */
IUP[1]	/* InterpolateUntPts */
IUP[0]	/* InterpolateUntPts */
SVTCA[1]	/* SetFreedomAndProjectionVectorToAxis */
MD[0]	/* MeasureDistance */
ROUND[00]	/* Round */
PUSHW[ ]	/* 2 values pushed */
2 40
MD[0]	/* MeasureDistance */
ROUND[00]	/* Round */
SUB[ ]	/* Subtract */
PUSHB[ ]	/* 1 value pushed */
64
GT[ ]	/* GreaterThan */
IF[ ]	/* If */
SHPIX[ ]	/* ShiftZoneByPixel */
SRP1[ ]	/* SetRefPoint1 */
SHZ[1]	/* ShiftZoneByLastPoint */
PUSHW[ ]	/* 2 values pushed */
40 -64
SHPIX[ ]	/* ShiftZoneByPixel */
EIF[ ]	/* EndIf */";
};
width = 802;
},
{
layerId = "EFA29B47-3DC8-4F8A-813A-13C07BF7C797";
shapes = (
{
closed = 1;
nodes = (
(458,720,o),
(458,804,qs),
(458,885,o),
(412,1014,q),
(560,849,o),
(636,849,qs),
(664,849,o),
(678,874,qs),
(685,887,o),
(685,900,qs),
(685,983,o),
(424,1038,q),
(424,1030,o),
(685,1124,o),
(685,1176,qs),
(685,1188,o),
(678,1200,qs),
(663,1226,o),
(634,1226,qs),
(557,1226,o),
(412,1062,q),
(458,1194,o),
(458,1276,qs),
(458,1362,o),
(402,1362,qs),
(343,1362,o),
(343,1275,qs),
(343,1193,o),
(390,1062,q),
(243,1225,o),
(167,1225,qs),
(140,1225,o),
(126,1200,qs),
(118,1186,o),
(118,1172,qs),
(118,1088,o),
(378,1038,q),
(118,988,o),
(118,903,qs),
(118,889,o),
(126,874,qs),
(139,851,o),
(165,851,qs),
(239,851,o),
(390,1014,q),
(343,886,o),
(343,805,qs),
(343,720,o),
(402,720,qs)
);
}
);
userData = {
assembly = "NPUSHB[ ]	/* 33 values pushed */
1 49 49 64 50 10 45 43 31 29 21 19 6 4 47 45 39 37 35 29 27 23 21 15 13 10 4 2 0 25 1 35 70
SROUND[ ]	/* SuperRound */
MDAP[1]	/* MoveDirectAbsPt */
SHZ[1]	/* ShiftZoneByLastPoint */
RTG[ ]	/* RoundToGrid */
SVTCA[0]	/* SetFreedomAndProjectionVectorToAxis */
MDAP[1]	/* MoveDirectAbsPt */
MDAP[1]	/* MoveDirectAbsPt */
SVTCA[1]	/* SetFreedomAndProjectionVectorToAxis */
MDAP[0]	/* MoveDirectAbsPt */
MDAP[0]	/* MoveDirectAbsPt */
MDAP[0]	/* MoveDirectAbsPt */
MDAP[0]	/* MoveDirectAbsPt */
MDAP[0]	/* MoveDirectAbsPt */
MDAP[0]	/* MoveDirectAbsPt */
MDAP[0]	/* MoveDirectAbsPt */
MDAP[0]	/* MoveDirectAbsPt */
MDAP[0]	/* MoveDirectAbsPt */
MDAP[0]	/* MoveDirectAbsPt */
MDAP[0]	/* MoveDirectAbsPt */
MDAP[0]	/* MoveDirectAbsPt */
MDAP[0]	/* MoveDirectAbsPt */
MDAP[0]	/* MoveDirectAbsPt */
SVTCA[0]	/* SetFreedomAndProjectionVectorToAxis */
MDAP[0]	/* MoveDirectAbsPt */
MDAP[0]	/* MoveDirectAbsPt */
MDAP[0]	/* MoveDirectAbsPt */
MDAP[0]	/* MoveDirectAbsPt */
MDAP[0]	/* MoveDirectAbsPt */
MDAP[0]	/* MoveDirectAbsPt */
MDAP[0]	/* MoveDirectAbsPt */
MDAP[0]	/* MoveDirectAbsPt */
IUP[1]	/* InterpolateUntPts */
IUP[0]	/* InterpolateUntPts */
SVTCA[1]	/* SetFreedomAndProjectionVectorToAxis */
MD[0]	/* MeasureDistance */
ROUND[00]	/* Round */
PUSHW[ ]	/* 2 values pushed */
35 49
MD[0]	/* MeasureDistance */
ROUND[00]	/* Round */
SUB[ ]	/* Subtract */
PUSHB[ ]	/* 1 value pushed */
64
GT[ ]	/* GreaterThan */
IF[ ]	/* If */
SHPIX[ ]	/* ShiftZoneByPixel */
SRP1[ ]	/* SetRefPoint1 */
SHZ[1]	/* ShiftZoneByLastPoint */
PUSHW[ ]	/* 2 values pushed */
49 -64
SHPIX[ ]	/* ShiftZoneByPixel */
EIF[ ]	/* EndIf */";
};
width = 802;
},
{
layerId = "3C10D975-8B50-4E95-9C62-C508D3823290";
shapes = (
{
closed = 1;
nodes = (
(549,1045,o),
(651,1102,qs),
(692,1125,o),
(692,1165,qs),
(692,1194,o),
(650,1235,o),
(621,1235,qs),
(601,1235,o),
(581,1223,qs),
(486,1166,o),
(425,1050,q)
);
},
{
closed = 1;
nodes = (
(201,842,o),
(222,854,qs),
(322,915,o),
(380,1024,q),
(249,1029,o),
(152,975,qs),
(112,954,o),
(112,912,qs),
(112,842,o),
(180,842,qs)
);
},
{
closed = 1;
nodes = (
(428,714,o),
(473,755,o),
(472,790,qs),
(470,901,o),
(400,1012,q),
(334,907,o),
(332,790,qs),
(331,714,o),
(400,714,qs)
);
},
{
closed = 1;
nodes = (
(317,1166,o),
(222,1223,qs),
(203,1234,o),
(182,1234,qs),
(154,1234,o),
(111,1193,o),
(111,1165,qs),
(111,1124,o),
(152,1101,qs),
(255,1044,o),
(378,1049,q)
);
},
{
closed = 1;
nodes = (
(691,841,o),
(691,911,qs),
(691,953,o),
(652,975,qs),
(555,1028,o),
(424,1023,q),
(481,914,o),
(582,853,qs),
(603,841,o),
(624,841,qs)
);
},
{
closed = 1;
nodes = (
(470,1175,o),
(472,1286,qs),
(473,1321,o),
(449,1343,qs),
(428,1362,o),
(400,1362,qs),
(331,1362,o),
(332,1286,qs),
(334,1169,o),
(400,1064,q)
);
}
);
userData = {
assembly = "NPUSHB[ ]	/* 33 values pushed */
1 61 61 64 62 52 59 55 48 42 38 32 28 24 17 8 59 52 48 44 38 34 28 21 15 10 6 0 2 12 1 21 70
SROUND[ ]	/* SuperRound */
MDAP[1]	/* MoveDirectAbsPt */
SHZ[1]	/* ShiftZoneByLastPoint */
RTG[ ]	/* RoundToGrid */
SVTCA[0]	/* SetFreedomAndProjectionVectorToAxis */
MDAP[1]	/* MoveDirectAbsPt */
MDAP[1]	/* MoveDirectAbsPt */
SVTCA[1]	/* SetFreedomAndProjectionVectorToAxis */
MDAP[0]	/* MoveDirectAbsPt */
MDAP[0]	/* MoveDirectAbsPt */
MDAP[0]	/* MoveDirectAbsPt */
MDAP[0]	/* MoveDirectAbsPt */
MDAP[0]	/* MoveDirectAbsPt */
MDAP[0]	/* MoveDirectAbsPt */
MDAP[0]	/* MoveDirectAbsPt */
MDAP[0]	/* MoveDirectAbsPt */
MDAP[0]	/* MoveDirectAbsPt */
MDAP[0]	/* MoveDirectAbsPt */
MDAP[0]	/* MoveDirectAbsPt */
MDAP[0]	/* MoveDirectAbsPt */
SVTCA[0]	/* SetFreedomAndProjectionVectorToAxis */
MDAP[0]	/* MoveDirectAbsPt */
MDAP[0]	/* MoveDirectAbsPt */
MDAP[0]	/* MoveDirectAbsPt */
MDAP[0]	/* MoveDirectAbsPt */
MDAP[0]	/* MoveDirectAbsPt */
MDAP[0]	/* MoveDirectAbsPt */
MDAP[0]	/* MoveDirectAbsPt */
MDAP[0]	/* MoveDirectAbsPt */
MDAP[0]	/* MoveDirectAbsPt */
MDAP[0]	/* MoveDirectAbsPt */
IUP[1]	/* InterpolateUntPts */
IUP[0]	/* InterpolateUntPts */
SVTCA[1]	/* SetFreedomAndProjectionVectorToAxis */
MD[0]	/* MeasureDistance */
ROUND[00]	/* Round */
PUSHW[ ]	/* 2 values pushed */
21 61
MD[0]	/* MeasureDistance */
ROUND[00]	/* Round */
SUB[ ]	/* Subtract */
PUSHB[ ]	/* 1 value pushed */
64
GT[ ]	/* GreaterThan */
IF[ ]	/* If */
SHPIX[ ]	/* ShiftZoneByPixel */
SRP1[ ]	/* SetRefPoint1 */
SHZ[1]	/* ShiftZoneByLastPoint */
PUSHW[ ]	/* 2 values pushed */
61 -64
SHPIX[ ]	/* ShiftZoneByPixel */
EIF[ ]	/* EndIf */";
};
width = 802;
}
);
note = asterisk;
unicode = 42;
},
{
glyphname = plus;
lastChange = "2025-04-20 14:05:12 +0000";
layers = (
{
layerId = m01;
shapes = (
{
closed = 1;
nodes = (
(678,120,l),
(678,538,l),
(1096,538,l),
(1096,660,l),
(678,660,l),
(678,1078,l),
(556,1078,l),
(556,660,l),
(138,660,l),
(138,538,l),
(556,538,l),
(556,120,l)
);
}
);
userData = {
assembly = "NPUSHB[ ]	/* 43 values pushed */
1 12 12 64 13 10 11 10 11 0 5 4 11 2 9 8 1 3 0 2 7 6 3 3 2 10 9 6 3 5 4 11 4 3 3 0 8 7 2 1 1 4 70
SROUND[ ]	/* SuperRound */
MDAP[1]	/* MoveDirectAbsPt */
SHZ[1]	/* ShiftZoneByLastPoint */
RTG[ ]	/* RoundToGrid */
SVTCA[0]	/* SetFreedomAndProjectionVectorToAxis */
MDAP[1]	/* MoveDirectAbsPt */
ALIGNRP[ ]	/* AlignRelativePt */
MDAP[1]	/* MoveDirectAbsPt */
ALIGNRP[ ]	/* AlignRelativePt */
MDAP[1]	/* MoveDirectAbsPt */
SLOOP[ ]	/* SetLoopVariable */
ALIGNRP[ ]	/* AlignRelativePt */
MIRP[11101]	/* MoveIndirectRelPt */
SLOOP[ ]	/* SetLoopVariable */
ALIGNRP[ ]	/* AlignRelativePt */
SVTCA[1]	/* SetFreedomAndProjectionVectorToAxis */
MDAP[1]	/* MoveDirectAbsPt */
SLOOP[ ]	/* SetLoopVariable */
ALIGNRP[ ]	/* AlignRelativePt */
MIRP[11101]	/* MoveIndirectRelPt */
SLOOP[ ]	/* SetLoopVariable */
ALIGNRP[ ]	/* AlignRelativePt */
SRP0[ ]	/* SetRefPoint0 */
MIRP[11101]	/* MoveIndirectRelPt */
ALIGNRP[ ]	/* AlignRelativePt */
SRP0[ ]	/* SetRefPoint0 */
MIRP[11101]	/* MoveIndirectRelPt */
ALIGNRP[ ]	/* AlignRelativePt */
SVTCA[0]	/* SetFreedomAndProjectionVectorToAxis */
IUP[1]	/* InterpolateUntPts */
IUP[0]	/* InterpolateUntPts */
SVTCA[1]	/* SetFreedomAndProjectionVectorToAxis */
MD[0]	/* MeasureDistance */
ROUND[00]	/* Round */
PUSHW[ ]	/* 2 values pushed */
4 12
MD[0]	/* MeasureDistance */
ROUND[00]	/* Round */
SUB[ ]	/* Subtract */
PUSHB[ ]	/* 1 value pushed */
64
GT[ ]	/* GreaterThan */
IF[ ]	/* If */
SHPIX[ ]	/* ShiftZoneByPixel */
SRP1[ ]	/* SetRefPoint1 */
SHZ[1]	/* ShiftZoneByLastPoint */
PUSHW[ ]	/* 2 values pushed */
12 -64
SHPIX[ ]	/* ShiftZoneByPixel */
EIF[ ]	/* EndIf */";
};
width = 1242;
},
{
layerId = "EFA29B47-3DC8-4F8A-813A-13C07BF7C797";
shapes = (
{
closed = 1;
nodes = (
(722,60,l),
(722,528,l),
(1178,528,l),
(1178,670,l),
(722,670,l),
(722,1142,l),
(560,1142,l),
(560,670,l),
(102,670,l),
(102,528,l),
(560,528,l),
(560,60,l)
);
}
);
userData = {
assembly = "NPUSHB[ ]	/* 39 values pushed */
1 12 12 64 13 0 11 6 5 0 8 7 4 3 3 2 10 9 2 3 1 11 10 7 3 6 5 5 4 1 3 0 9 8 3 2 1 5 70
SROUND[ ]	/* SuperRound */
MDAP[1]	/* MoveDirectAbsPt */
SHZ[1]	/* ShiftZoneByLastPoint */
RTG[ ]	/* RoundToGrid */
SVTCA[0]	/* SetFreedomAndProjectionVectorToAxis */
MDAP[1]	/* MoveDirectAbsPt */
ALIGNRP[ ]	/* AlignRelativePt */
MDAP[1]	/* MoveDirectAbsPt */
ALIGNRP[ ]	/* AlignRelativePt */
MDAP[1]	/* MoveDirectAbsPt */
SLOOP[ ]	/* SetLoopVariable */
ALIGNRP[ ]	/* AlignRelativePt */
MIRP[11101]	/* MoveIndirectRelPt */
SLOOP[ ]	/* SetLoopVariable */
ALIGNRP[ ]	/* AlignRelativePt */
SVTCA[1]	/* SetFreedomAndProjectionVectorToAxis */
MDAP[1]	/* MoveDirectAbsPt */
SLOOP[ ]	/* SetLoopVariable */
ALIGNRP[ ]	/* AlignRelativePt */
MIRP[11101]	/* MoveIndirectRelPt */
SLOOP[ ]	/* SetLoopVariable */
ALIGNRP[ ]	/* AlignRelativePt */
MDAP[0]	/* MoveDirectAbsPt */
MDAP[0]	/* MoveDirectAbsPt */
MDAP[0]	/* MoveDirectAbsPt */
MDAP[0]	/* MoveDirectAbsPt */
SVTCA[0]	/* SetFreedomAndProjectionVectorToAxis */
IUP[1]	/* InterpolateUntPts */
IUP[0]	/* InterpolateUntPts */
SVTCA[1]	/* SetFreedomAndProjectionVectorToAxis */
MD[0]	/* MeasureDistance */
ROUND[00]	/* Round */
PUSHW[ ]	/* 2 values pushed */
5 12
MD[0]	/* MeasureDistance */
ROUND[00]	/* Round */
SUB[ ]	/* Subtract */
PUSHB[ ]	/* 1 value pushed */
64
GT[ ]	/* GreaterThan */
IF[ ]	/* If */
SHPIX[ ]	/* ShiftZoneByPixel */
SRP1[ ]	/* SetRefPoint1 */
SHZ[1]	/* ShiftZoneByLastPoint */
PUSHW[ ]	/* 2 values pushed */
12 -64
SHPIX[ ]	/* ShiftZoneByPixel */
EIF[ ]	/* EndIf */";
};
width = 1304;
},
{
layerId = "3C10D975-8B50-4E95-9C62-C508D3823290";
shapes = (
{
closed = 1;
nodes = (
(772,70,l),
(772,496,l),
(1198,496,l),
(1198,706,l),
(772,706,l),
(772,1132,l),
(562,1132,l),
(562,706,l),
(138,706,l),
(138,496,l),
(562,496,l),
(562,70,l)
);
}
);
userData = {
assembly = "NPUSHB[ ]	/* 39 values pushed */
1 12 12 64 13 8 9 8 3 2 11 10 7 3 6 2 5 4 1 3 0 8 7 4 3 3 4 10 9 2 3 1 6 5 11 0 1 2 70
SROUND[ ]	/* SuperRound */
MDAP[1]	/* MoveDirectAbsPt */
SHZ[1]	/* ShiftZoneByLastPoint */
RTG[ ]	/* RoundToGrid */
SVTCA[0]	/* SetFreedomAndProjectionVectorToAxis */
MDAP[1]	/* MoveDirectAbsPt */
ALIGNRP[ ]	/* AlignRelativePt */
MDAP[1]	/* MoveDirectAbsPt */
ALIGNRP[ ]	/* AlignRelativePt */
MDAP[1]	/* MoveDirectAbsPt */
SLOOP[ ]	/* SetLoopVariable */
ALIGNRP[ ]	/* AlignRelativePt */
MIRP[11101]	/* MoveIndirectRelPt */
SLOOP[ ]	/* SetLoopVariable */
ALIGNRP[ ]	/* AlignRelativePt */
SVTCA[1]	/* SetFreedomAndProjectionVectorToAxis */
MDAP[1]	/* MoveDirectAbsPt */
SLOOP[ ]	/* SetLoopVariable */
ALIGNRP[ ]	/* AlignRelativePt */
MIRP[11101]	/* MoveIndirectRelPt */
SLOOP[ ]	/* SetLoopVariable */
ALIGNRP[ ]	/* AlignRelativePt */
MDAP[0]	/* MoveDirectAbsPt */
MDAP[0]	/* MoveDirectAbsPt */
MDAP[0]	/* MoveDirectAbsPt */
MDAP[0]	/* MoveDirectAbsPt */
SVTCA[0]	/* SetFreedomAndProjectionVectorToAxis */
IUP[1]	/* InterpolateUntPts */
IUP[0]	/* InterpolateUntPts */
SVTCA[1]	/* SetFreedomAndProjectionVectorToAxis */
MD[0]	/* MeasureDistance */
ROUND[00]	/* Round */
PUSHW[ ]	/* 2 values pushed */
2 12
MD[0]	/* MeasureDistance */
ROUND[00]	/* Round */
SUB[ ]	/* Subtract */
PUSHB[ ]	/* 1 value pushed */
64
GT[ ]	/* GreaterThan */
IF[ ]	/* If */
SHPIX[ ]	/* ShiftZoneByPixel */
SRP1[ ]	/* SetRefPoint1 */
SHZ[1]	/* ShiftZoneByLastPoint */
PUSHW[ ]	/* 2 values pushed */
12 -64
SHPIX[ ]	/* ShiftZoneByPixel */
EIF[ ]	/* EndIf */";
};
width = 1370;
}
);
note = plus;
unicode = 43;
},
{
glyphname = comma;
lastChange = "2025-04-20 14:04:59 +0000";
layers = (
{
layerId = m01;
shapes = (
{
closed = 1;
nodes = (
(313,-284,o),
(394,-198,qs),
(492,-95,o),
(492,4,qs),
(492,122,o),
(416,176,qs),
(366,212,o),
(300,212,qs),
(243,212,o),
(206,184,qs),
(165,151,o),
(170,96,qs),
(175,45,o),
(222,30,qs),
(244,23,o),
(318,22,qs),
(373,21,o),
(390,2,q),
(386,-40,o),
(384,-60,qs),
(380,-100,o),
(360,-136,qs),
(317,-215,o),
(212,-280,q),
(230,-322,l)
);
}
);
userData = {
assembly = "NPUSHB[ ]	/* 19 values pushed */
1 25 25 64 26 0 11 5 0 2 17 13 4 21 21 4 1 17 70
SROUND[ ]	/* SuperRound */
MDAP[1]	/* MoveDirectAbsPt */
SHZ[1]	/* ShiftZoneByLastPoint */
RTG[ ]	/* RoundToGrid */
SVTCA[0]	/* SetFreedomAndProjectionVectorToAxis */
MDAP[1]	/* MoveDirectAbsPt */
MDAP[1]	/* MoveDirectAbsPt */
SRP0[ ]	/* SetRefPoint0 */
MIRP[11101]	/* MoveIndirectRelPt */
SVTCA[1]	/* SetFreedomAndProjectionVectorToAxis */
MDAP[1]	/* MoveDirectAbsPt */
MIRP[11101]	/* MoveIndirectRelPt */
MDAP[0]	/* MoveDirectAbsPt */
MDAP[0]	/* MoveDirectAbsPt */
SVTCA[0]	/* SetFreedomAndProjectionVectorToAxis */
IUP[1]	/* InterpolateUntPts */
IUP[0]	/* InterpolateUntPts */
SVTCA[1]	/* SetFreedomAndProjectionVectorToAxis */
MD[0]	/* MeasureDistance */
ROUND[00]	/* Round */
PUSHW[ ]	/* 2 values pushed */
17 25
MD[0]	/* MeasureDistance */
ROUND[00]	/* Round */
SUB[ ]	/* Subtract */
PUSHB[ ]	/* 1 value pushed */
64
GT[ ]	/* GreaterThan */
IF[ ]	/* If */
SHPIX[ ]	/* ShiftZoneByPixel */
SRP1[ ]	/* SetRefPoint1 */
SHZ[1]	/* ShiftZoneByLastPoint */
PUSHW[ ]	/* 2 values pushed */
25 -64
SHPIX[ ]	/* ShiftZoneByPixel */
EIF[ ]	/* EndIf */";
};
width = 700;
},
{
layerId = "EFA29B47-3DC8-4F8A-813A-13C07BF7C797";
shapes = (
{
closed = 1;
nodes = (
(263,-304,o),
(348,-210,qs),
(452,-95,o),
(452,14,qs),
(452,139,o),
(378,197,qs),
(328,236,o),
(264,236,qs),
(211,236,o),
(172,207,qs),
(125,170,o),
(130,102,qs),
(134,47,o),
(191,22,qs),
(226,6,o),
(292,1,qs),
(342,-4,o),
(338,-10,q),
(348,-16,o),
(348,-36,qs),
(348,-84,o),
(306,-151,qs),
(255,-230,o),
(172,-284,q),
(192,-328,l)
);
}
);
userData = {
assembly = "NPUSHB[ ]	/* 16 values pushed */
1 25 25 64 26 4 13 9 21 2 4 0 8 1 21 70
SROUND[ ]	/* SuperRound */
MDAP[1]	/* MoveDirectAbsPt */
SHZ[1]	/* ShiftZoneByLastPoint */
RTG[ ]	/* RoundToGrid */
SVTCA[0]	/* SetFreedomAndProjectionVectorToAxis */
MDAP[1]	/* MoveDirectAbsPt */
MDAP[1]	/* MoveDirectAbsPt */
SVTCA[1]	/* SetFreedomAndProjectionVectorToAxis */
MDAP[1]	/* MoveDirectAbsPt */
MIRP[11101]	/* MoveIndirectRelPt */
MDAP[0]	/* MoveDirectAbsPt */
MDAP[0]	/* MoveDirectAbsPt */
SVTCA[0]	/* SetFreedomAndProjectionVectorToAxis */
IUP[1]	/* InterpolateUntPts */
IUP[0]	/* InterpolateUntPts */
SVTCA[1]	/* SetFreedomAndProjectionVectorToAxis */
MD[0]	/* MeasureDistance */
ROUND[00]	/* Round */
PUSHW[ ]	/* 2 values pushed */
21 25
MD[0]	/* MeasureDistance */
ROUND[00]	/* Round */
SUB[ ]	/* Subtract */
PUSHB[ ]	/* 1 value pushed */
64
GT[ ]	/* GreaterThan */
IF[ ]	/* If */
SHPIX[ ]	/* ShiftZoneByPixel */
SRP1[ ]	/* SetRefPoint1 */
SHZ[1]	/* ShiftZoneByLastPoint */
PUSHW[ ]	/* 2 values pushed */
25 -64
SHPIX[ ]	/* ShiftZoneByPixel */
EIF[ ]	/* EndIf */";
};
width = 700;
},
{
layerId = "3C10D975-8B50-4E95-9C62-C508D3823290";
shapes = (
{
closed = 1;
nodes = (
(318,-317,o),
(404,-226,qs),
(511,-113,o),
(513,4,qs),
(515,106,o),
(452,186,qs),
(384,272,o),
(281,272,qs),
(185,272,o),
(128,226,qs),
(77,185,o),
(77,125,qs),
(77,28,o),
(191,-8,qs),
(205,-13,o),
(222,-13,qs),
(238,-13,o),
(326,12,q),
(325,-28,o),
(325,-56,q),
(318,-124,o),
(264,-196,qs),
(216,-262,o),
(156,-299,q),
(190,-376,l)
);
}
);
userData = {
assembly = "NPUSHB[ ]	/* 19 values pushed */
1 25 25 64 26 23 9 9 3 23 2 15 19 2 11 0 1 15 70
SROUND[ ]	/* SuperRound */
MDAP[1]	/* MoveDirectAbsPt */
SHZ[1]	/* ShiftZoneByLastPoint */
RTG[ ]	/* RoundToGrid */
SVTCA[0]	/* SetFreedomAndProjectionVectorToAxis */
MIAP[1]	/* MoveIndirectAbsPt */
MDAP[1]	/* MoveDirectAbsPt */
MDAP[1]	/* MoveDirectAbsPt */
SVTCA[1]	/* SetFreedomAndProjectionVectorToAxis */
MDAP[1]	/* MoveDirectAbsPt */
MIRP[11101]	/* MoveIndirectRelPt */
MDAP[0]	/* MoveDirectAbsPt */
MDAP[0]	/* MoveDirectAbsPt */
SVTCA[0]	/* SetFreedomAndProjectionVectorToAxis */
MDAP[0]	/* MoveDirectAbsPt */
IUP[1]	/* InterpolateUntPts */
IUP[0]	/* InterpolateUntPts */
SVTCA[1]	/* SetFreedomAndProjectionVectorToAxis */
MD[0]	/* MeasureDistance */
ROUND[00]	/* Round */
PUSHW[ ]	/* 2 values pushed */
15 25
MD[0]	/* MeasureDistance */
ROUND[00]	/* Round */
SUB[ ]	/* Subtract */
PUSHB[ ]	/* 1 value pushed */
64
GT[ ]	/* GreaterThan */
IF[ ]	/* If */
SHPIX[ ]	/* ShiftZoneByPixel */
SRP1[ ]	/* SetRefPoint1 */
SHZ[1]	/* ShiftZoneByLastPoint */
PUSHW[ ]	/* 2 values pushed */
25 -64
SHPIX[ ]	/* ShiftZoneByPixel */
EIF[ ]	/* EndIf */";
};
width = 700;
}
);
note = comma;
unicode = 44;
},
{
glyphname = hyphen;
lastChange = "2025-04-20 15:30:12 +0000";
layers = (
{
layerId = m01;
shapes = (
{
closed = 1;
nodes = (
(904,538,l),
(904,660,l),
(132,660,l),
(132,538,l)
);
}
);
userData = {
assembly = "NPUSHB[ ]	/* 17 values pushed */
1 4 4 64 5 2 3 2 1 0 2 1 3 0 1 0 70
SROUND[ ]	/* SuperRound */
MDAP[1]	/* MoveDirectAbsPt */
SHZ[1]	/* ShiftZoneByLastPoint */
RTG[ ]	/* RoundToGrid */
SVTCA[0]	/* SetFreedomAndProjectionVectorToAxis */
MDAP[1]	/* MoveDirectAbsPt */
ALIGNRP[ ]	/* AlignRelativePt */
MDAP[1]	/* MoveDirectAbsPt */
ALIGNRP[ ]	/* AlignRelativePt */
SVTCA[1]	/* SetFreedomAndProjectionVectorToAxis */
MDAP[0]	/* MoveDirectAbsPt */
MDAP[0]	/* MoveDirectAbsPt */
MDAP[0]	/* MoveDirectAbsPt */
MDAP[0]	/* MoveDirectAbsPt */
SVTCA[0]	/* SetFreedomAndProjectionVectorToAxis */
IUP[1]	/* InterpolateUntPts */
IUP[0]	/* InterpolateUntPts */
SVTCA[1]	/* SetFreedomAndProjectionVectorToAxis */
MD[0]	/* MeasureDistance */
ROUND[00]	/* Round */
PUSHW[ ]	/* 2 values pushed */
0 4
MD[0]	/* MeasureDistance */
ROUND[00]	/* Round */
SUB[ ]	/* Subtract */
PUSHB[ ]	/* 1 value pushed */
64
GT[ ]	/* GreaterThan */
IF[ ]	/* If */
SHPIX[ ]	/* ShiftZoneByPixel */
SRP1[ ]	/* SetRefPoint1 */
SHZ[1]	/* ShiftZoneByLastPoint */
PUSHW[ ]	/* 2 values pushed */
4 -64
SHPIX[ ]	/* ShiftZoneByPixel */
EIF[ ]	/* EndIf */";
};
width = 1048;
},
{
layerId = "EFA29B47-3DC8-4F8A-813A-13C07BF7C797";
shapes = (
{
closed = 1;
nodes = (
(884,524,l),
(884,678,l),
(112,678,l),
(112,524,l)
);
}
);
userData = {
assembly = "NPUSHB[ ]	/* 17 values pushed */
1 4 4 64 5 0 3 2 1 0 3 2 1 0 1 1 70
SROUND[ ]	/* SuperRound */
MDAP[1]	/* MoveDirectAbsPt */
SHZ[1]	/* ShiftZoneByLastPoint */
RTG[ ]	/* RoundToGrid */
SVTCA[0]	/* SetFreedomAndProjectionVectorToAxis */
MDAP[1]	/* MoveDirectAbsPt */
ALIGNRP[ ]	/* AlignRelativePt */
MDAP[1]	/* MoveDirectAbsPt */
ALIGNRP[ ]	/* AlignRelativePt */
SVTCA[1]	/* SetFreedomAndProjectionVectorToAxis */
MDAP[0]	/* MoveDirectAbsPt */
MDAP[0]	/* MoveDirectAbsPt */
MDAP[0]	/* MoveDirectAbsPt */
MDAP[0]	/* MoveDirectAbsPt */
SVTCA[0]	/* SetFreedomAndProjectionVectorToAxis */
IUP[1]	/* InterpolateUntPts */
IUP[0]	/* InterpolateUntPts */
SVTCA[1]	/* SetFreedomAndProjectionVectorToAxis */
MD[0]	/* MeasureDistance */
ROUND[00]	/* Round */
PUSHW[ ]	/* 2 values pushed */
1 4
MD[0]	/* MeasureDistance */
ROUND[00]	/* Round */
SUB[ ]	/* Subtract */
PUSHB[ ]	/* 1 value pushed */
64
GT[ ]	/* GreaterThan */
IF[ ]	/* If */
SHPIX[ ]	/* ShiftZoneByPixel */
SRP1[ ]	/* SetRefPoint1 */
SHZ[1]	/* ShiftZoneByLastPoint */
PUSHW[ ]	/* 2 values pushed */
4 -64
SHPIX[ ]	/* ShiftZoneByPixel */
EIF[ ]	/* EndIf */";
};
width = 1048;
},
{
layerId = "3C10D975-8B50-4E95-9C62-C508D3823290";
shapes = (
{
closed = 1;
nodes = (
(1018,494,l),
(1018,704,l),
(118,704,l),
(118,494,l)
);
}
);
userData = {
assembly = "NPUSHB[ ]	/* 17 values pushed */
1 4 4 64 5 0 3 2 1 0 3 0 2 1 1 2 70
SROUND[ ]	/* SuperRound */
MDAP[1]	/* MoveDirectAbsPt */
SHZ[1]	/* ShiftZoneByLastPoint */
RTG[ ]	/* RoundToGrid */
SVTCA[0]	/* SetFreedomAndProjectionVectorToAxis */
MDAP[1]	/* MoveDirectAbsPt */
ALIGNRP[ ]	/* AlignRelativePt */
MDAP[1]	/* MoveDirectAbsPt */
ALIGNRP[ ]	/* AlignRelativePt */
SVTCA[1]	/* SetFreedomAndProjectionVectorToAxis */
MDAP[0]	/* MoveDirectAbsPt */
MDAP[0]	/* MoveDirectAbsPt */
MDAP[0]	/* MoveDirectAbsPt */
MDAP[0]	/* MoveDirectAbsPt */
SVTCA[0]	/* SetFreedomAndProjectionVectorToAxis */
IUP[1]	/* InterpolateUntPts */
IUP[0]	/* InterpolateUntPts */
SVTCA[1]	/* SetFreedomAndProjectionVectorToAxis */
MD[0]	/* MeasureDistance */
ROUND[00]	/* Round */
PUSHW[ ]	/* 2 values pushed */
2 4
MD[0]	/* MeasureDistance */
ROUND[00]	/* Round */
SUB[ ]	/* Subtract */
PUSHB[ ]	/* 1 value pushed */
64
GT[ ]	/* GreaterThan */
IF[ ]	/* If */
SHPIX[ ]	/* ShiftZoneByPixel */
SRP1[ ]	/* SetRefPoint1 */
SHZ[1]	/* ShiftZoneByLastPoint */
PUSHW[ ]	/* 2 values pushed */
4 -64
SHPIX[ ]	/* ShiftZoneByPixel */
EIF[ ]	/* EndIf */";
};
width = 1146;
}
);
note = hyphen;
unicode = 45;
},
{
glyphname = period;
lastChange = "2025-04-20 14:04:59 +0000";
layers = (
{
layerId = m01;
shapes = (
{
closed = 1;
nodes = (
(342,-26,o),
(420,48,o),
(420,100,qs),
(420,153,o),
(343,232,o),
(290,232,qs),
(236,232,o),
(162,154,o),
(162,100,qs),
(162,48,o),
(238,-26,o),
(290,-26,qs)
);
}
);
userData = {
assembly = "NPUSHB[ ]	/* 14 values pushed */
1 12 12 64 13 0 0 2 6 9 3 1 6 70
SROUND[ ]	/* SuperRound */
MDAP[1]	/* MoveDirectAbsPt */
SHZ[1]	/* ShiftZoneByLastPoint */
RTG[ ]	/* RoundToGrid */
SVTCA[0]	/* SetFreedomAndProjectionVectorToAxis */
MDAP[1]	/* MoveDirectAbsPt */
MDAP[1]	/* MoveDirectAbsPt */
SVTCA[1]	/* SetFreedomAndProjectionVectorToAxis */
MDAP[1]	/* MoveDirectAbsPt */
MIRP[11101]	/* MoveIndirectRelPt */
SVTCA[0]	/* SetFreedomAndProjectionVectorToAxis */
IUP[1]	/* InterpolateUntPts */
IUP[0]	/* InterpolateUntPts */
SVTCA[1]	/* SetFreedomAndProjectionVectorToAxis */
MD[0]	/* MeasureDistance */
ROUND[00]	/* Round */
PUSHW[ ]	/* 2 values pushed */
6 12
MD[0]	/* MeasureDistance */
ROUND[00]	/* Round */
SUB[ ]	/* Subtract */
PUSHB[ ]	/* 1 value pushed */
64
GT[ ]	/* GreaterThan */
IF[ ]	/* If */
SHPIX[ ]	/* ShiftZoneByPixel */
SRP1[ ]	/* SetRefPoint1 */
SHZ[1]	/* ShiftZoneByLastPoint */
PUSHW[ ]	/* 2 values pushed */
12 -64
SHPIX[ ]	/* ShiftZoneByPixel */
EIF[ ]	/* EndIf */";
};
width = 580;
},
{
layerId = "EFA29B47-3DC8-4F8A-813A-13C07BF7C797";
shapes = (
{
closed = 1;
nodes = (
(334,-26,o),
(373,5,qs),
(420,42,o),
(420,100,qs),
(420,154,o),
(343,232,o),
(290,232,qs),
(237,232,o),
(162,155,o),
(162,100,qs),
(162,40,o),
(208,4,qs),
(246,-26,o),
(290,-26,qs)
);
}
);
userData = {
assembly = "NPUSHB[ ]	/* 15 values pushed */
1 14 14 64 15 3 3 2 11 0 7 0 1 11 70
SROUND[ ]	/* SuperRound */
MDAP[1]	/* MoveDirectAbsPt */
SHZ[1]	/* ShiftZoneByLastPoint */
RTG[ ]	/* RoundToGrid */
SVTCA[0]	/* SetFreedomAndProjectionVectorToAxis */
MIAP[1]	/* MoveIndirectAbsPt */
MDAP[1]	/* MoveDirectAbsPt */
SVTCA[1]	/* SetFreedomAndProjectionVectorToAxis */
MDAP[1]	/* MoveDirectAbsPt */
MIRP[11101]	/* MoveIndirectRelPt */
SVTCA[0]	/* SetFreedomAndProjectionVectorToAxis */
IUP[1]	/* InterpolateUntPts */
IUP[0]	/* InterpolateUntPts */
SVTCA[1]	/* SetFreedomAndProjectionVectorToAxis */
MD[0]	/* MeasureDistance */
ROUND[00]	/* Round */
PUSHW[ ]	/* 2 values pushed */
11 14
MD[0]	/* MeasureDistance */
ROUND[00]	/* Round */
SUB[ ]	/* Subtract */
PUSHB[ ]	/* 1 value pushed */
64
GT[ ]	/* GreaterThan */
IF[ ]	/* If */
SHPIX[ ]	/* ShiftZoneByPixel */
SRP1[ ]	/* SetRefPoint1 */
SHZ[1]	/* ShiftZoneByLastPoint */
PUSHW[ ]	/* 2 values pushed */
14 -64
SHPIX[ ]	/* ShiftZoneByPixel */
EIF[ ]	/* EndIf */";
};
width = 580;
},
{
layerId = "3C10D975-8B50-4E95-9C62-C508D3823290";
shapes = (
{
closed = 1;
nodes = (
(363,-73,o),
(462,26,o),
(462,96,qs),
(462,167,o),
(363,266,o),
(293,266,qs),
(223,266,o),
(123,167,o),
(123,96,qs),
(123,26,o),
(223,-73,o),
(293,-73,qs)
);
}
);
userData = {
assembly = "NPUSHB[ ]	/* 14 values pushed */
1 12 12 64 13 9 3 2 9 6 0 1 3 70
SROUND[ ]	/* SuperRound */
MDAP[1]	/* MoveDirectAbsPt */
SHZ[1]	/* ShiftZoneByLastPoint */
RTG[ ]	/* RoundToGrid */
SVTCA[0]	/* SetFreedomAndProjectionVectorToAxis */
MDAP[1]	/* MoveDirectAbsPt */
MDAP[1]	/* MoveDirectAbsPt */
SVTCA[1]	/* SetFreedomAndProjectionVectorToAxis */
MDAP[1]	/* MoveDirectAbsPt */
MIRP[11101]	/* MoveIndirectRelPt */
SVTCA[0]	/* SetFreedomAndProjectionVectorToAxis */
IUP[1]	/* InterpolateUntPts */
IUP[0]	/* InterpolateUntPts */
SVTCA[1]	/* SetFreedomAndProjectionVectorToAxis */
MD[0]	/* MeasureDistance */
ROUND[00]	/* Round */
PUSHW[ ]	/* 2 values pushed */
3 12
MD[0]	/* MeasureDistance */
ROUND[00]	/* Round */
SUB[ ]	/* Subtract */
PUSHB[ ]	/* 1 value pushed */
64
GT[ ]	/* GreaterThan */
IF[ ]	/* If */
SHPIX[ ]	/* ShiftZoneByPixel */
SRP1[ ]	/* SetRefPoint1 */
SHZ[1]	/* ShiftZoneByLastPoint */
PUSHW[ ]	/* 2 values pushed */
12 -64
SHPIX[ ]	/* ShiftZoneByPixel */
EIF[ ]	/* EndIf */";
};
width = 580;
}
);
note = period;
unicode = 46;
},
{
glyphname = slash;
lastChange = "2025-04-20 14:05:12 +0000";
layers = (
{
layerId = m01;
shapes = (
{
closed = 1;
nodes = (
(110,-30,l),
(656,1410,l),
(536,1410,l),
(-10,-30,l)
);
}
);
userData = {
assembly = "NPUSHB[ ]	/* 28 values pushed */
1 4 4 64 5 3 3 1 1 0 1 2 6 2 3 0 0 1 3 3 0 3 2 1 0 1 1 70
SROUND[ ]	/* SuperRound */
MDAP[1]	/* MoveDirectAbsPt */
SHZ[1]	/* ShiftZoneByLastPoint */
RTG[ ]	/* RoundToGrid */
SVTCA[0]	/* SetFreedomAndProjectionVectorToAxis */
MDAP[1]	/* MoveDirectAbsPt */
ALIGNRP[ ]	/* AlignRelativePt */
MDAP[1]	/* MoveDirectAbsPt */
ALIGNRP[ ]	/* AlignRelativePt */
SVTCA[1]	/* SetFreedomAndProjectionVectorToAxis */
SDPVTL[1]	/* SetDualPVectorToLine */
MDAP[0]	/* MoveDirectAbsPt */
SFVTL[0]	/* SetFVectorToLine */
MDRP[00100]	/* MoveDirectRelPt */
SFVTL[0]	/* SetFVectorToLine */
MIRP[11100]	/* MoveIndirectRelPt */
SFVTL[0]	/* SetFVectorToLine */
MDRP[00100]	/* MoveDirectRelPt */
SVTCA[1]	/* SetFreedomAndProjectionVectorToAxis */
MDAP[0]	/* MoveDirectAbsPt */
MDAP[0]	/* MoveDirectAbsPt */
SVTCA[0]	/* SetFreedomAndProjectionVectorToAxis */
IUP[1]	/* InterpolateUntPts */
IUP[0]	/* InterpolateUntPts */
SVTCA[1]	/* SetFreedomAndProjectionVectorToAxis */
MD[0]	/* MeasureDistance */
ROUND[00]	/* Round */
PUSHW[ ]	/* 2 values pushed */
1 4
MD[0]	/* MeasureDistance */
ROUND[00]	/* Round */
SUB[ ]	/* Subtract */
PUSHB[ ]	/* 1 value pushed */
64
GT[ ]	/* GreaterThan */
IF[ ]	/* If */
SHPIX[ ]	/* ShiftZoneByPixel */
SRP1[ ]	/* SetRefPoint1 */
SHZ[1]	/* ShiftZoneByLastPoint */
PUSHW[ ]	/* 2 values pushed */
4 -64
SHPIX[ ]	/* ShiftZoneByPixel */
EIF[ ]	/* EndIf */";
};
width = 644;
},
{
layerId = "EFA29B47-3DC8-4F8A-813A-13C07BF7C797";
shapes = (
{
closed = 1;
nodes = (
(136,-30,l),
(666,1410,l),
(510,1410,l),
(-20,-30,l)
);
}
);
userData = {
assembly = "NPUSHB[ ]	/* 28 values pushed */
1 4 4 64 5 0 2 0 0 3 0 1 6 1 2 3 3 0 2 2 3 3 0 2 1 1 2 70
SROUND[ ]	/* SuperRound */
MDAP[1]	/* MoveDirectAbsPt */
SHZ[1]	/* ShiftZoneByLastPoint */
RTG[ ]	/* RoundToGrid */
SVTCA[0]	/* SetFreedomAndProjectionVectorToAxis */
MDAP[1]	/* MoveDirectAbsPt */
ALIGNRP[ ]	/* AlignRelativePt */
MDAP[1]	/* MoveDirectAbsPt */
ALIGNRP[ ]	/* AlignRelativePt */
SVTCA[1]	/* SetFreedomAndProjectionVectorToAxis */
SDPVTL[1]	/* SetDualPVectorToLine */
MDAP[0]	/* MoveDirectAbsPt */
SFVTL[0]	/* SetFVectorToLine */
MDRP[00100]	/* MoveDirectRelPt */
SFVTL[0]	/* SetFVectorToLine */
MIRP[11100]	/* MoveIndirectRelPt */
SFVTL[0]	/* SetFVectorToLine */
MDRP[00100]	/* MoveDirectRelPt */
SVTCA[1]	/* SetFreedomAndProjectionVectorToAxis */
MDAP[0]	/* MoveDirectAbsPt */
MDAP[0]	/* MoveDirectAbsPt */
SVTCA[0]	/* SetFreedomAndProjectionVectorToAxis */
IUP[1]	/* InterpolateUntPts */
IUP[0]	/* InterpolateUntPts */
SVTCA[1]	/* SetFreedomAndProjectionVectorToAxis */
MD[0]	/* MeasureDistance */
ROUND[00]	/* Round */
PUSHW[ ]	/* 2 values pushed */
2 4
MD[0]	/* MeasureDistance */
ROUND[00]	/* Round */
SUB[ ]	/* Subtract */
PUSHB[ ]	/* 1 value pushed */
64
GT[ ]	/* GreaterThan */
IF[ ]	/* If */
SHPIX[ ]	/* ShiftZoneByPixel */
SRP1[ ]	/* SetRefPoint1 */
SHZ[1]	/* ShiftZoneByLastPoint */
PUSHW[ ]	/* 2 values pushed */
4 -64
SHPIX[ ]	/* ShiftZoneByPixel */
EIF[ ]	/* EndIf */";
};
width = 644;
},
{
layerId = "3C10D975-8B50-4E95-9C62-C508D3823290";
shapes = (
{
closed = 1;
nodes = (
(164,-18,l),
(695,1411,l),
(479,1411,l),
(-53,-18,l)
);
}
);
userData = {
assembly = "NPUSHB[ ]	/* 29 values pushed */
1 4 4 64 5 3 3 1 1 0 1 2 6 2 3 0 0 1 3 3 0 3 2 1 0 0 1 1 70
SROUND[ ]	/* SuperRound */
MDAP[1]	/* MoveDirectAbsPt */
SHZ[1]	/* ShiftZoneByLastPoint */
RTG[ ]	/* RoundToGrid */
SVTCA[0]	/* SetFreedomAndProjectionVectorToAxis */
MIAP[1]	/* MoveIndirectAbsPt */
ALIGNRP[ ]	/* AlignRelativePt */
MDAP[1]	/* MoveDirectAbsPt */
ALIGNRP[ ]	/* AlignRelativePt */
SVTCA[1]	/* SetFreedomAndProjectionVectorToAxis */
SDPVTL[1]	/* SetDualPVectorToLine */
MDAP[0]	/* MoveDirectAbsPt */
SFVTL[0]	/* SetFVectorToLine */
MDRP[00100]	/* MoveDirectRelPt */
SFVTL[0]	/* SetFVectorToLine */
MIRP[11100]	/* MoveIndirectRelPt */
SFVTL[0]	/* SetFVectorToLine */
MDRP[00100]	/* MoveDirectRelPt */
SVTCA[1]	/* SetFreedomAndProjectionVectorToAxis */
MDAP[0]	/* MoveDirectAbsPt */
MDAP[0]	/* MoveDirectAbsPt */
SVTCA[0]	/* SetFreedomAndProjectionVectorToAxis */
IUP[1]	/* InterpolateUntPts */
IUP[0]	/* InterpolateUntPts */
SVTCA[1]	/* SetFreedomAndProjectionVectorToAxis */
MD[0]	/* MeasureDistance */
ROUND[00]	/* Round */
PUSHW[ ]	/* 2 values pushed */
1 4
MD[0]	/* MeasureDistance */
ROUND[00]	/* Round */
SUB[ ]	/* Subtract */
PUSHB[ ]	/* 1 value pushed */
64
GT[ ]	/* GreaterThan */
IF[ ]	/* If */
SHPIX[ ]	/* ShiftZoneByPixel */
SRP1[ ]	/* SetRefPoint1 */
SHZ[1]	/* ShiftZoneByLastPoint */
PUSHW[ ]	/* 2 values pushed */
4 -64
SHPIX[ ]	/* ShiftZoneByPixel */
EIF[ ]	/* EndIf */";
};
width = 644;
}
);
note = slash;
unicode = 47;
},
{
glyphname = zero;
lastChange = "2025-04-20 14:04:59 +0000";
layers = (
{
layerId = m01;
shapes = (
{
closed = 1;
nodes = (
(809,74,o),
(1128,392,o),
(1128,620,qs),
(1128,850,o),
(810,1168,o),
(580,1168,qs),
(352,1168,o),
(34,849,o),
(34,620,qs),
(34,392,o),
(352,74,o),
(580,74,qs)
);
},
{
closed = 1;
nodes = (
(403,194,o),
(154,443,o),
(154,620,qs),
(154,798,o),
(402,1048,o),
(580,1048,qs),
(759,1048,o),
(1008,799,o),
(1008,620,qs),
(1008,442,o),
(758,194,o),
(580,194,qs)
);
}
);
userData = {
assembly = "NPUSHB[ ]	/* 23 values pushed */
1 24 24 64 25 18 6 2 18 0 2 12 9 4 15 3 4 21 15 21 1 12 70
SROUND[ ]	/* SuperRound */
MDAP[1]	/* MoveDirectAbsPt */
SHZ[1]	/* ShiftZoneByLastPoint */
RTG[ ]	/* RoundToGrid */
SVTCA[0]	/* SetFreedomAndProjectionVectorToAxis */
MDAP[1]	/* MoveDirectAbsPt */
MDAP[1]	/* MoveDirectAbsPt */
SRP0[ ]	/* SetRefPoint0 */
MIRP[11101]	/* MoveIndirectRelPt */
SRP0[ ]	/* SetRefPoint0 */
MIRP[11101]	/* MoveIndirectRelPt */
SVTCA[1]	/* SetFreedomAndProjectionVectorToAxis */
MDAP[1]	/* MoveDirectAbsPt */
MIRP[11101]	/* MoveIndirectRelPt */
MDAP[1]	/* MoveDirectAbsPt */
MIRP[11101]	/* MoveIndirectRelPt */
SVTCA[0]	/* SetFreedomAndProjectionVectorToAxis */
IUP[1]	/* InterpolateUntPts */
IUP[0]	/* InterpolateUntPts */
SVTCA[1]	/* SetFreedomAndProjectionVectorToAxis */
MD[0]	/* MeasureDistance */
ROUND[00]	/* Round */
PUSHW[ ]	/* 2 values pushed */
12 24
MD[0]	/* MeasureDistance */
ROUND[00]	/* Round */
SUB[ ]	/* Subtract */
PUSHB[ ]	/* 1 value pushed */
64
GT[ ]	/* GreaterThan */
IF[ ]	/* If */
SHPIX[ ]	/* ShiftZoneByPixel */
SRP1[ ]	/* SetRefPoint1 */
SHZ[1]	/* ShiftZoneByLastPoint */
PUSHW[ ]	/* 2 values pushed */
24 -64
SHPIX[ ]	/* ShiftZoneByPixel */
EIF[ ]	/* EndIf */";
};
width = 1280;
},
{
layerId = "EFA29B47-3DC8-4F8A-813A-13C07BF7C797";
shapes = (
{
closed = 1;
nodes = (
(817,74,o),
(1138,395,o),
(1138,621,qs),
(1138,847,o),
(817,1168,o),
(591,1168,qs),
(365,1168,o),
(44,847,o),
(44,621,qs),
(44,395,o),
(365,74,o),
(591,74,qs)
);
},
{
closed = 1;
nodes = (
(431,234,o),
(204,461,o),
(204,621,qs),
(204,781,o),
(431,1008,o),
(591,1008,qs),
(751,1008,o),
(978,781,o),
(978,621,qs),
(978,461,o),
(751,234,o),
(591,234,qs)
);
}
);
userData = {
assembly = "NPUSHB[ ]	/* 23 values pushed */
1 24 24 64 25 18 6 2 18 0 2 12 9 4 15 3 4 21 15 21 1 12 70
SROUND[ ]	/* SuperRound */
MDAP[1]	/* MoveDirectAbsPt */
SHZ[1]	/* ShiftZoneByLastPoint */
RTG[ ]	/* RoundToGrid */
SVTCA[0]	/* SetFreedomAndProjectionVectorToAxis */
MDAP[1]	/* MoveDirectAbsPt */
MDAP[1]	/* MoveDirectAbsPt */
SRP0[ ]	/* SetRefPoint0 */
MIRP[11101]	/* MoveIndirectRelPt */
SRP0[ ]	/* SetRefPoint0 */
MIRP[11101]	/* MoveIndirectRelPt */
SVTCA[1]	/* SetFreedomAndProjectionVectorToAxis */
MDAP[1]	/* MoveDirectAbsPt */
MIRP[11101]	/* MoveIndirectRelPt */
MDAP[1]	/* MoveDirectAbsPt */
MIRP[11101]	/* MoveIndirectRelPt */
SVTCA[0]	/* SetFreedomAndProjectionVectorToAxis */
IUP[1]	/* InterpolateUntPts */
IUP[0]	/* InterpolateUntPts */
SVTCA[1]	/* SetFreedomAndProjectionVectorToAxis */
MD[0]	/* MeasureDistance */
ROUND[00]	/* Round */
PUSHW[ ]	/* 2 values pushed */
12 24
MD[0]	/* MeasureDistance */
ROUND[00]	/* Round */
SUB[ ]	/* Subtract */
PUSHB[ ]	/* 1 value pushed */
64
GT[ ]	/* GreaterThan */
IF[ ]	/* If */
SHPIX[ ]	/* ShiftZoneByPixel */
SRP1[ ]	/* SetRefPoint1 */
SHZ[1]	/* ShiftZoneByLastPoint */
PUSHW[ ]	/* 2 values pushed */
24 -64
SHPIX[ ]	/* ShiftZoneByPixel */
EIF[ ]	/* EndIf */";
};
width = 1280;
},
{
layerId = "3C10D975-8B50-4E95-9C62-C508D3823290";
shapes = (
{
closed = 1;
nodes = (
(813,70,o),
(1135,390,o),
(1135,620,qs),
(1135,852,o),
(814,1173,o),
(583,1173,qs),
(353,1173,o),
(32,851,o),
(32,620,qs),
(32,391,o),
(353,70,o),
(583,70,qs)
);
},
{
closed = 1;
nodes = (
(442,282,o),
(244,479,o),
(244,620,qs),
(244,762,o),
(441,961,o),
(583,961,qs),
(726,961,o),
(923,763,o),
(923,620,qs),
(923,479,o),
(725,282,o),
(583,282,qs)
);
}
);
userData = {
assembly = "NPUSHB[ ]	/* 17 values pushed */
1 24 24 64 25 9 18 12 21 15 9 3 6 0 1 3 70
SROUND[ ]	/* SuperRound */
MDAP[1]	/* MoveDirectAbsPt */
SHZ[1]	/* ShiftZoneByLastPoint */
RTG[ ]	/* RoundToGrid */
SVTCA[0]	/* SetFreedomAndProjectionVectorToAxis */
MDAP[1]	/* MoveDirectAbsPt */
MDAP[1]	/* MoveDirectAbsPt */
SVTCA[1]	/* SetFreedomAndProjectionVectorToAxis */
MDAP[0]	/* MoveDirectAbsPt */
MDAP[0]	/* MoveDirectAbsPt */
MDAP[0]	/* MoveDirectAbsPt */
MDAP[0]	/* MoveDirectAbsPt */
SVTCA[0]	/* SetFreedomAndProjectionVectorToAxis */
MDAP[0]	/* MoveDirectAbsPt */
MDAP[0]	/* MoveDirectAbsPt */
IUP[1]	/* InterpolateUntPts */
IUP[0]	/* InterpolateUntPts */
SVTCA[1]	/* SetFreedomAndProjectionVectorToAxis */
MD[0]	/* MeasureDistance */
ROUND[00]	/* Round */
PUSHW[ ]	/* 2 values pushed */
3 24
MD[0]	/* MeasureDistance */
ROUND[00]	/* Round */
SUB[ ]	/* Subtract */
PUSHB[ ]	/* 1 value pushed */
64
GT[ ]	/* GreaterThan */
IF[ ]	/* If */
SHPIX[ ]	/* ShiftZoneByPixel */
SRP1[ ]	/* SetRefPoint1 */
SHZ[1]	/* ShiftZoneByLastPoint */
PUSHW[ ]	/* 2 values pushed */
24 -64
SHPIX[ ]	/* ShiftZoneByPixel */
EIF[ ]	/* EndIf */";
};
width = 1233;
}
);
note = zero;
unicode = 48;
},
{
glyphname = one;
lastChange = "2025-04-20 14:04:59 +0000";
layers = (
{
layerId = m01;
shapes = (
{
closed = 1;
nodes = (
(992,-104,o),
(992,-92,qs),
(992,-87,o),
(988,-80,qs),
(959,-28,o),
(910,52,q),
(844,198,o),
(844,386,qs),
(844,438,o),
(850,517,qs),
(859,617,o),
(860,646,qs),
(874,939,o),
(874,913,qs),
(874,1261,o),
(492,1276,qs),
(277,1284,o),
(156,1174,qs),
(52,1079,o),
(58,938,qs),
(64,797,o),
(194,706,qs),
(302,631,o),
(431,631,qs),
(653,631,o),
(754,750,q),
(728,564,o),
(728,412,qs),
(728,366,o),
(732,330,qs),
(766,27,o),
(906,-78,qs),
(941,-104,o),
(976,-104,qs)
);
},
{
closed = 1;
nodes = (
(348,750,o),
(270,798,qs),
(181,853,o),
(178,946,qs),
(175,1053,o),
(275,1110,qs),
(357,1156,o),
(472,1156,qs),
(742,1156,o),
(752,948,qs),
(757,849,o),
(628,792,qs),
(533,750,o),
(444,750,qs)
);
}
);
userData = {
assembly = "NPUSHB[ ]	/* 23 values pushed */
1 48 48 64 49 10 40 34 22 20 44 38 32 26 20 18 10 4 30 12 1 26 70
SROUND[ ]	/* SuperRound */
MDAP[1]	/* MoveDirectAbsPt */
SHZ[1]	/* ShiftZoneByLastPoint */
RTG[ ]	/* RoundToGrid */
SVTCA[0]	/* SetFreedomAndProjectionVectorToAxis */
MDAP[1]	/* MoveDirectAbsPt */
MDAP[1]	/* MoveDirectAbsPt */
SVTCA[1]	/* SetFreedomAndProjectionVectorToAxis */
MDAP[0]	/* MoveDirectAbsPt */
MDAP[0]	/* MoveDirectAbsPt */
MDAP[0]	/* MoveDirectAbsPt */
MDAP[0]	/* MoveDirectAbsPt */
MDAP[0]	/* MoveDirectAbsPt */
MDAP[0]	/* MoveDirectAbsPt */
MDAP[0]	/* MoveDirectAbsPt */
MDAP[0]	/* MoveDirectAbsPt */
SVTCA[0]	/* SetFreedomAndProjectionVectorToAxis */
MDAP[0]	/* MoveDirectAbsPt */
MDAP[0]	/* MoveDirectAbsPt */
MDAP[0]	/* MoveDirectAbsPt */
MDAP[0]	/* MoveDirectAbsPt */
IUP[1]	/* InterpolateUntPts */
IUP[0]	/* InterpolateUntPts */
SVTCA[1]	/* SetFreedomAndProjectionVectorToAxis */
MD[0]	/* MeasureDistance */
ROUND[00]	/* Round */
PUSHW[ ]	/* 2 values pushed */
26 48
MD[0]	/* MeasureDistance */
ROUND[00]	/* Round */
SUB[ ]	/* Subtract */
PUSHB[ ]	/* 1 value pushed */
64
GT[ ]	/* GreaterThan */
IF[ ]	/* If */
SHPIX[ ]	/* ShiftZoneByPixel */
SRP1[ ]	/* SetRefPoint1 */
SHZ[1]	/* ShiftZoneByLastPoint */
PUSHW[ ]	/* 2 values pushed */
48 -64
SHPIX[ ]	/* ShiftZoneByPixel */
EIF[ ]	/* EndIf */";
};
width = 1040;
},
{
layerId = "EFA29B47-3DC8-4F8A-813A-13C07BF7C797";
shapes = (
{
closed = 1;
nodes = (
(969,-106,o),
(969,-66,qs),
(969,-56,o),
(966,-44,q),
(852,95,o),
(852,394,qs),
(852,552,o),
(859,641,qs),
(871,806,o),
(874,858,qs),
(893,1253,o),
(474,1266,qs),
(250,1273,o),
(137,1164,qs),
(42,1073,o),
(42,926,qs),
(42,767,o),
(172,679,qs),
(288,600,o),
(450,610,qs),
(527,614,o),
(615,647,qs),
(652,660,o),
(688,678,q),
(675,451,o),
(688,336,qs),
(712,121,o),
(796,-5,qs),
(865,-106,o),
(930,-106,qs)
);
},
{
closed = 1;
nodes = (
(344,764,o),
(280,808,qs),
(208,856,o),
(206,934,qs),
(204,1010,o),
(337,1104,o),
(454,1104,qs),
(541,1104,o),
(580,1092,qs),
(694,1056,o),
(700,934,qs),
(704,847,o),
(590,799,qs),
(507,764,o),
(428,764,qs)
);
}
);
userData = {
assembly = "NPUSHB[ ]	/* 23 values pushed */
1 45 45 64 46 10 37 30 22 18 41 33 26 18 16 10 6 2 0 12 1 26 70
SROUND[ ]	/* SuperRound */
MDAP[1]	/* MoveDirectAbsPt */
SHZ[1]	/* ShiftZoneByLastPoint */
RTG[ ]	/* RoundToGrid */
SVTCA[0]	/* SetFreedomAndProjectionVectorToAxis */
MDAP[1]	/* MoveDirectAbsPt */
MDAP[1]	/* MoveDirectAbsPt */
SVTCA[1]	/* SetFreedomAndProjectionVectorToAxis */
MDAP[0]	/* MoveDirectAbsPt */
MDAP[0]	/* MoveDirectAbsPt */
MDAP[0]	/* MoveDirectAbsPt */
MDAP[0]	/* MoveDirectAbsPt */
MDAP[0]	/* MoveDirectAbsPt */
MDAP[0]	/* MoveDirectAbsPt */
MDAP[0]	/* MoveDirectAbsPt */
MDAP[0]	/* MoveDirectAbsPt */
SVTCA[0]	/* SetFreedomAndProjectionVectorToAxis */
MDAP[0]	/* MoveDirectAbsPt */
MDAP[0]	/* MoveDirectAbsPt */
MDAP[0]	/* MoveDirectAbsPt */
MDAP[0]	/* MoveDirectAbsPt */
IUP[1]	/* InterpolateUntPts */
IUP[0]	/* InterpolateUntPts */
SVTCA[1]	/* SetFreedomAndProjectionVectorToAxis */
MD[0]	/* MeasureDistance */
ROUND[00]	/* Round */
PUSHW[ ]	/* 2 values pushed */
26 45
MD[0]	/* MeasureDistance */
ROUND[00]	/* Round */
SUB[ ]	/* Subtract */
PUSHB[ ]	/* 1 value pushed */
64
GT[ ]	/* GreaterThan */
IF[ ]	/* If */
SHPIX[ ]	/* ShiftZoneByPixel */
SRP1[ ]	/* SetRefPoint1 */
SHZ[1]	/* ShiftZoneByLastPoint */
PUSHW[ ]	/* 2 values pushed */
45 -64
SHPIX[ ]	/* ShiftZoneByPixel */
EIF[ ]	/* EndIf */";
};
width = 1040;
},
{
layerId = "3C10D975-8B50-4E95-9C62-C508D3823290";
shapes = (
{
closed = 1;
nodes = (
(988,-98,o),
(988,-35,qs),
(988,-12,o),
(907,121,q),
(853,244,o),
(853,404,qs),
(853,450,o),
(859,523,qs),
(866,615,o),
(867,641,qs),
(874,798,o),
(874,840,qs),
(874,1042,o),
(806,1139,qs),
(716,1265,o),
(483,1275,qs),
(301,1282,o),
(173,1194,qs),
(27,1093,o),
(35,910,qs),
(41,753,o),
(168,662,qs),
(282,580,o),
(443,580,qs),
(561,580,o),
(655,627,q),
(645,521,o),
(645,428,qs),
(645,270,o),
(705,112,qs),
(784,-98,o),
(922,-98,qs)
);
},
{
closed = 1;
nodes = (
(350,791,o),
(296,833,qs),
(246,872,o),
(246,927,qs),
(246,982,o),
(299,1019,qs),
(358,1061,o),
(463,1061,qs),
(661,1061,o),
(667,919,qs),
(670,860,o),
(578,822,qs),
(505,791,o),
(437,791,qs)
);
}
);
userData = {
assembly = "NPUSHB[ ]	/* 25 values pushed */
1 46 46 64 47 30 40 32 8 6 36 30 26 20 12 6 4 44 2 22 16 0 1 12 70
SROUND[ ]	/* SuperRound */
MDAP[1]	/* MoveDirectAbsPt */
SHZ[1]	/* ShiftZoneByLastPoint */
RTG[ ]	/* RoundToGrid */
SVTCA[0]	/* SetFreedomAndProjectionVectorToAxis */
MDAP[1]	/* MoveDirectAbsPt */
MDAP[1]	/* MoveDirectAbsPt */
SVTCA[1]	/* SetFreedomAndProjectionVectorToAxis */
MDAP[1]	/* MoveDirectAbsPt */
MIRP[11101]	/* MoveIndirectRelPt */
MDAP[0]	/* MoveDirectAbsPt */
MDAP[0]	/* MoveDirectAbsPt */
MDAP[0]	/* MoveDirectAbsPt */
MDAP[0]	/* MoveDirectAbsPt */
MDAP[0]	/* MoveDirectAbsPt */
MDAP[0]	/* MoveDirectAbsPt */
MDAP[0]	/* MoveDirectAbsPt */
SVTCA[0]	/* SetFreedomAndProjectionVectorToAxis */
MDAP[0]	/* MoveDirectAbsPt */
MDAP[0]	/* MoveDirectAbsPt */
MDAP[0]	/* MoveDirectAbsPt */
MDAP[0]	/* MoveDirectAbsPt */
IUP[1]	/* InterpolateUntPts */
IUP[0]	/* InterpolateUntPts */
SVTCA[1]	/* SetFreedomAndProjectionVectorToAxis */
MD[0]	/* MeasureDistance */
ROUND[00]	/* Round */
PUSHW[ ]	/* 2 values pushed */
12 46
MD[0]	/* MeasureDistance */
ROUND[00]	/* Round */
SUB[ ]	/* Subtract */
PUSHB[ ]	/* 1 value pushed */
64
GT[ ]	/* GreaterThan */
IF[ ]	/* If */
SHPIX[ ]	/* ShiftZoneByPixel */
SRP1[ ]	/* SetRefPoint1 */
SHZ[1]	/* ShiftZoneByLastPoint */
PUSHW[ ]	/* 2 values pushed */
46 -64
SHPIX[ ]	/* ShiftZoneByPixel */
EIF[ ]	/* EndIf */";
};
width = 1008;
}
);
note = one;
unicode = 49;
},
{
glyphname = two;
lastChange = "2025-04-20 14:04:59 +0000";
layers = (
{
layerId = m01;
shapes = (
{
closed = 1;
nodes = (
(836,6,o),
(836,44,qs),
(836,85,o),
(720,156,qs),
(641,204,o),
(538,254,q),
(1035,382,o),
(1038,796,qs),
(1041,1252,o),
(502,1252,qs),
(343,1252,o),
(222,1226,qs),
(46,1188,o),
(46,1124,qs),
(46,1112,o),
(49,1102,qs),
(59,1070,o),
(100,1070,qs),
(113,1070,o),
(228,1100,qs),
(373,1138,o),
(520,1132,qs),
(912,1116,o),
(918,798,qs),
(922,586,o),
(736,456,qs),
(589,353,o),
(430,352,qs),
(360,351,o),
(226,402,qs),
(184,418,o),
(148,418,qs),
(32,418,o),
(40,298,qs),
(44,230,o),
(156,210,qs),
(335,184,o),
(406,178,q),
(490,148,o),
(554,114,qs),
(652,64,o),
(690,46,qs),
(771,6,o),
(792,6,qs)
);
}
);
userData = {
assembly = "NPUSHB[ ]	/* 21 values pushed */
1 44 44 64 45 42 32 28 22 18 42 36 26 16 4 0 40 6 1 16 70
SROUND[ ]	/* SuperRound */
MDAP[1]	/* MoveDirectAbsPt */
SHZ[1]	/* ShiftZoneByLastPoint */
RTG[ ]	/* RoundToGrid */
SVTCA[0]	/* SetFreedomAndProjectionVectorToAxis */
MDAP[1]	/* MoveDirectAbsPt */
MDAP[1]	/* MoveDirectAbsPt */
SVTCA[1]	/* SetFreedomAndProjectionVectorToAxis */
MDAP[0]	/* MoveDirectAbsPt */
MDAP[0]	/* MoveDirectAbsPt */
MDAP[0]	/* MoveDirectAbsPt */
MDAP[0]	/* MoveDirectAbsPt */
MDAP[0]	/* MoveDirectAbsPt */
MDAP[0]	/* MoveDirectAbsPt */
SVTCA[0]	/* SetFreedomAndProjectionVectorToAxis */
MDAP[0]	/* MoveDirectAbsPt */
MDAP[0]	/* MoveDirectAbsPt */
MDAP[0]	/* MoveDirectAbsPt */
MDAP[0]	/* MoveDirectAbsPt */
IUP[1]	/* InterpolateUntPts */
IUP[0]	/* InterpolateUntPts */
SVTCA[1]	/* SetFreedomAndProjectionVectorToAxis */
MD[0]	/* MeasureDistance */
ROUND[00]	/* Round */
PUSHW[ ]	/* 2 values pushed */
16 44
MD[0]	/* MeasureDistance */
ROUND[00]	/* Round */
SUB[ ]	/* Subtract */
PUSHB[ ]	/* 1 value pushed */
64
GT[ ]	/* GreaterThan */
IF[ ]	/* If */
SHPIX[ ]	/* ShiftZoneByPixel */
SRP1[ ]	/* SetRefPoint1 */
SHZ[1]	/* ShiftZoneByLastPoint */
PUSHW[ ]	/* 2 values pushed */
44 -64
SHPIX[ ]	/* ShiftZoneByPixel */
EIF[ ]	/* EndIf */";
};
width = 1196;
},
{
layerId = "EFA29B47-3DC8-4F8A-813A-13C07BF7C797";
shapes = (
{
closed = 1;
nodes = (
(817,7,o),
(828,42,qs),
(832,54,o),
(832,64,qs),
(832,96,o),
(771,136,qs),
(646,220,o),
(600,258,q),
(808,330,o),
(908,443,qs),
(1026,575,o),
(1026,792,qs),
(1026,1013,o),
(902,1131,qs),
(766,1261,o),
(492,1252,qs),
(33,1237,o),
(33,1116,qs),
(33,1098,o),
(42,1078,qs),
(60,1037,o),
(100,1037,qs),
(117,1037,o),
(235,1069,qs),
(349,1101,o),
(450,1098,qs),
(685,1091,o),
(771,1032,qs),
(862,968,o),
(872,792,qs),
(883,584,o),
(705,465,qs),
(570,376,o),
(424,376,qs),
(365,376,o),
(229,448,o),
(160,446,qs),
(109,444,o),
(70,409,qs),
(26,368,o),
(30,306,qs),
(35,234,o),
(155,205,q),
(276,185,o),
(398,164,qs),
(470,149,o),
(613,75,qs),
(742,7,o),
(782,7,qs)
);
}
);
userData = {
assembly = "NPUSHB[ ]	/* 21 values pushed */
1 49 49 64 50 4 43 39 31 28 47 35 24 12 8 4 0 16 1 24 70
SROUND[ ]	/* SuperRound */
MDAP[1]	/* MoveDirectAbsPt */
SHZ[1]	/* ShiftZoneByLastPoint */
RTG[ ]	/* RoundToGrid */
SVTCA[0]	/* SetFreedomAndProjectionVectorToAxis */
MDAP[1]	/* MoveDirectAbsPt */
MDAP[1]	/* MoveDirectAbsPt */
SVTCA[1]	/* SetFreedomAndProjectionVectorToAxis */
MDAP[0]	/* MoveDirectAbsPt */
MDAP[0]	/* MoveDirectAbsPt */
MDAP[0]	/* MoveDirectAbsPt */
MDAP[0]	/* MoveDirectAbsPt */
MDAP[0]	/* MoveDirectAbsPt */
MDAP[0]	/* MoveDirectAbsPt */
SVTCA[0]	/* SetFreedomAndProjectionVectorToAxis */
MDAP[0]	/* MoveDirectAbsPt */
MDAP[0]	/* MoveDirectAbsPt */
MDAP[0]	/* MoveDirectAbsPt */
MDAP[0]	/* MoveDirectAbsPt */
IUP[1]	/* InterpolateUntPts */
IUP[0]	/* InterpolateUntPts */
SVTCA[1]	/* SetFreedomAndProjectionVectorToAxis */
MD[0]	/* MeasureDistance */
ROUND[00]	/* Round */
PUSHW[ ]	/* 2 values pushed */
24 49
MD[0]	/* MeasureDistance */
ROUND[00]	/* Round */
SUB[ ]	/* Subtract */
PUSHB[ ]	/* 1 value pushed */
64
GT[ ]	/* GreaterThan */
IF[ ]	/* If */
SHPIX[ ]	/* ShiftZoneByPixel */
SRP1[ ]	/* SetRefPoint1 */
SHZ[1]	/* ShiftZoneByLastPoint */
PUSHW[ ]	/* 2 values pushed */
49 -64
SHPIX[ ]	/* ShiftZoneByPixel */
EIF[ ]	/* EndIf */";
};
width = 1196;
},
{
layerId = "3C10D975-8B50-4E95-9C62-C508D3823290";
shapes = (
{
closed = 1;
nodes = (
(866,6,o),
(866,92,qs),
(866,167,o),
(677,273,q),
(1048,418,o),
(1051,782,qs),
(1054,1252,o),
(510,1252,qs),
(364,1252,o),
(235,1221,qs),
(43,1176,o),
(43,1083,qs),
(43,982,o),
(143,982,qs),
(162,982,o),
(273,1011,qs),
(390,1042,o),
(501,1042,qs),
(834,1042,o),
(839,783,qs),
(842,633,o),
(716,527,qs),
(598,427,o),
(444,426,qs),
(399,426,o),
(232,487,o),
(187,487,qs),
(27,487,o),
(38,322,qs),
(44,228,o),
(191,194,qs),
(222,187,o),
(412,171,q),
(436,161,o),
(603,76,qs),
(740,6,o),
(775,6,qs)
);
}
);
userData = {
assembly = "NPUSHB[ ]	/* 21 values pushed */
1 37 37 64 38 35 27 23 17 14 35 29 21 12 2 0 33 4 1 12 70
SROUND[ ]	/* SuperRound */
MDAP[1]	/* MoveDirectAbsPt */
SHZ[1]	/* ShiftZoneByLastPoint */
RTG[ ]	/* RoundToGrid */
SVTCA[0]	/* SetFreedomAndProjectionVectorToAxis */
MDAP[1]	/* MoveDirectAbsPt */
MDAP[1]	/* MoveDirectAbsPt */
SVTCA[1]	/* SetFreedomAndProjectionVectorToAxis */
MDAP[0]	/* MoveDirectAbsPt */
MDAP[0]	/* MoveDirectAbsPt */
MDAP[0]	/* MoveDirectAbsPt */
MDAP[0]	/* MoveDirectAbsPt */
MDAP[0]	/* MoveDirectAbsPt */
MDAP[0]	/* MoveDirectAbsPt */
SVTCA[0]	/* SetFreedomAndProjectionVectorToAxis */
MDAP[0]	/* MoveDirectAbsPt */
MDAP[0]	/* MoveDirectAbsPt */
MDAP[0]	/* MoveDirectAbsPt */
MDAP[0]	/* MoveDirectAbsPt */
IUP[1]	/* InterpolateUntPts */
IUP[0]	/* InterpolateUntPts */
SVTCA[1]	/* SetFreedomAndProjectionVectorToAxis */
MD[0]	/* MeasureDistance */
ROUND[00]	/* Round */
PUSHW[ ]	/* 2 values pushed */
12 37
MD[0]	/* MeasureDistance */
ROUND[00]	/* Round */
SUB[ ]	/* Subtract */
PUSHB[ ]	/* 1 value pushed */
64
GT[ ]	/* GreaterThan */
IF[ ]	/* If */
SHPIX[ ]	/* ShiftZoneByPixel */
SRP1[ ]	/* SetRefPoint1 */
SHZ[1]	/* ShiftZoneByLastPoint */
PUSHW[ ]	/* 2 values pushed */
37 -64
SHPIX[ ]	/* ShiftZoneByPixel */
EIF[ ]	/* EndIf */";
};
width = 1154;
}
);
note = two;
unicode = 50;
},
{
glyphname = three;
lastChange = "2025-04-20 14:04:59 +0000";
layers = (
{
layerId = m01;
shapes = (
{
closed = 1;
nodes = (
(960,2,o),
(960,42,qs),
(960,73,o),
(850,118,qs),
(811,134,o),
(754,148,qs),
(703,160,o),
(678,176,q),
(1021,278,o),
(1030,498,qs),
(1033,564,o),
(1000,616,qs),
(982,645,o),
(938,680,qs),
(904,707,o),
(902,720,q),
(902,730,o),
(936,754,qs),
(1042,828,o),
(1042,948,qs),
(1042,1096,o),
(876,1178,qs),
(731,1250,o),
(532,1250,qs),
(40,1250,o),
(40,1134,qs),
(40,1080,o),
(108,1080,qs),
(124,1080,o),
(198,1092,qs),
(450,1133,o),
(520,1130,qs),
(664,1124,o),
(766,1094,qs),
(929,1045,o),
(922,950,qs),
(910,780,o),
(662,780,qs),
(610,780,o),
(402,810,o),
(350,810,qs),
(282,810,o),
(223,794,qs),
(135,769,o),
(136,718,qs),
(137,642,o),
(312,642,qs),
(379,642,o),
(474,654,qs),
(663,678,o),
(696,678,qs),
(787,678,o),
(842,637,qs),
(905,590,o),
(905,503,qs),
(905,406,o),
(765,330,qs),
(640,261,o),
(536,266,qs),
(426,271,o),
(306,362,qs),
(235,416,o),
(152,416,qs),
(46,416,o),
(40,338,qs),
(32,243,o),
(174,214,qs),
(413,165,o),
(420,162,q),
(488,147,o),
(602,98,qs),
(735,41,o),
(772,30,qs),
(869,2,o),
(906,2,qs)
);
}
);
userData = {
assembly = "NPUSHB[ ]	/* 33 values pushed */
1 75 75 64 76 71 63 50 44 32 28 71 65 55 46 36 26 14 8 6 0 40 5 53 59 4 67 67 16 0 1 26 70
SROUND[ ]	/* SuperRound */
MDAP[1]	/* MoveDirectAbsPt */
SHZ[1]	/* ShiftZoneByLastPoint */
RTG[ ]	/* RoundToGrid */
SVTCA[0]	/* SetFreedomAndProjectionVectorToAxis */
MIAP[1]	/* MoveIndirectAbsPt */
MDAP[1]	/* MoveDirectAbsPt */
SRP0[ ]	/* SetRefPoint0 */
MIRP[11101]	/* MoveIndirectRelPt */
MDAP[1]	/* MoveDirectAbsPt */
MIRP[11101]	/* MoveIndirectRelPt */
SVTCA[1]	/* SetFreedomAndProjectionVectorToAxis */
MDAP[0]	/* MoveDirectAbsPt */
MDAP[0]	/* MoveDirectAbsPt */
MDAP[0]	/* MoveDirectAbsPt */
MDAP[0]	/* MoveDirectAbsPt */
MDAP[0]	/* MoveDirectAbsPt */
MDAP[0]	/* MoveDirectAbsPt */
MDAP[0]	/* MoveDirectAbsPt */
MDAP[0]	/* MoveDirectAbsPt */
MDAP[0]	/* MoveDirectAbsPt */
MDAP[0]	/* MoveDirectAbsPt */
SVTCA[0]	/* SetFreedomAndProjectionVectorToAxis */
MDAP[0]	/* MoveDirectAbsPt */
MDAP[0]	/* MoveDirectAbsPt */
MDAP[0]	/* MoveDirectAbsPt */
MDAP[0]	/* MoveDirectAbsPt */
MDAP[0]	/* MoveDirectAbsPt */
IUP[1]	/* InterpolateUntPts */
IUP[0]	/* InterpolateUntPts */
SVTCA[1]	/* SetFreedomAndProjectionVectorToAxis */
MD[0]	/* MeasureDistance */
ROUND[00]	/* Round */
PUSHW[ ]	/* 2 values pushed */
26 75
MD[0]	/* MeasureDistance */
ROUND[00]	/* Round */
SUB[ ]	/* Subtract */
PUSHB[ ]	/* 1 value pushed */
64
GT[ ]	/* GreaterThan */
IF[ ]	/* If */
SHPIX[ ]	/* ShiftZoneByPixel */
SRP1[ ]	/* SetRefPoint1 */
SHZ[1]	/* ShiftZoneByLastPoint */
PUSHW[ ]	/* 2 values pushed */
75 -64
SHPIX[ ]	/* ShiftZoneByPixel */
EIF[ ]	/* EndIf */";
};
width = 1212;
},
{
layerId = "EFA29B47-3DC8-4F8A-813A-13C07BF7C797";
shapes = (
{
closed = 1;
nodes = (
(948,6,o),
(960,40,qs),
(963,48,o),
(963,56,qs),
(963,107,o),
(710,196,o),
(710,202,qs),
(710,204,o),
(712,206,q),
(1049,310,o),
(1038,522,qs),
(1033,606,o),
(981,668,qs),
(937,719,o),
(938,722,q),
(1060,840,o),
(1060,940,qs),
(1060,1085,o),
(881,1174,qs),
(726,1250,o),
(532,1250,qs),
(381,1250,o),
(251,1228,qs),
(41,1194,o),
(41,1116,qs),
(41,1107,o),
(44,1098,qs),
(58,1050,o),
(136,1050,qs),
(183,1050,o),
(414,1098,o),
(458,1098,qs),
(903,1098,o),
(898,942,qs),
(894,798,o),
(685,798,qs),
(630,798,o),
(421,829,o),
(368,829,qs),
(263,829,o),
(131,765,o),
(132,716,qs),
(134,621,o),
(364,621,qs),
(421,621,o),
(478,628,qs),
(662,651,o),
(700,651,qs),
(850,651,o),
(874,522,qs),
(876,513,o),
(876,503,qs),
(876,427,o),
(757,368,qs),
(721,350,o),
(600,310,qs),
(571,300,o),
(537,300,qs),
(430,300,o),
(324,382,qs),
(250,439,o),
(162,439,qs),
(48,439,o),
(40,348,qs),
(32,259,o),
(181,208,q),
(300,177,o),
(418,146,q),
(548,100,o),
(677,55,qs),
(824,6,o),
(891,6,qs)
);
}
);
userData = {
assembly = "NPUSHB[ ]	/* 29 values pushed */
1 72 72 64 73 4 64 61 57 54 49 45 35 31 68 59 51 41 29 17 14 10 6 4 0 21 1 29 70
SROUND[ ]	/* SuperRound */
MDAP[1]	/* MoveDirectAbsPt */
SHZ[1]	/* ShiftZoneByLastPoint */
RTG[ ]	/* RoundToGrid */
SVTCA[0]	/* SetFreedomAndProjectionVectorToAxis */
MDAP[1]	/* MoveDirectAbsPt */
MDAP[1]	/* MoveDirectAbsPt */
SVTCA[1]	/* SetFreedomAndProjectionVectorToAxis */
MDAP[0]	/* MoveDirectAbsPt */
MDAP[0]	/* MoveDirectAbsPt */
MDAP[0]	/* MoveDirectAbsPt */
MDAP[0]	/* MoveDirectAbsPt */
MDAP[0]	/* MoveDirectAbsPt */
MDAP[0]	/* MoveDirectAbsPt */
MDAP[0]	/* MoveDirectAbsPt */
MDAP[0]	/* MoveDirectAbsPt */
MDAP[0]	/* MoveDirectAbsPt */
MDAP[0]	/* MoveDirectAbsPt */
SVTCA[0]	/* SetFreedomAndProjectionVectorToAxis */
MDAP[0]	/* MoveDirectAbsPt */
MDAP[0]	/* MoveDirectAbsPt */
MDAP[0]	/* MoveDirectAbsPt */
MDAP[0]	/* MoveDirectAbsPt */
MDAP[0]	/* MoveDirectAbsPt */
MDAP[0]	/* MoveDirectAbsPt */
MDAP[0]	/* MoveDirectAbsPt */
MDAP[0]	/* MoveDirectAbsPt */
IUP[1]	/* InterpolateUntPts */
IUP[0]	/* InterpolateUntPts */
SVTCA[1]	/* SetFreedomAndProjectionVectorToAxis */
MD[0]	/* MeasureDistance */
ROUND[00]	/* Round */
PUSHW[ ]	/* 2 values pushed */
29 72
MD[0]	/* MeasureDistance */
ROUND[00]	/* Round */
SUB[ ]	/* Subtract */
PUSHB[ ]	/* 1 value pushed */
64
GT[ ]	/* GreaterThan */
IF[ ]	/* If */
SHPIX[ ]	/* ShiftZoneByPixel */
SRP1[ ]	/* SetRefPoint1 */
SHZ[1]	/* ShiftZoneByLastPoint */
PUSHW[ ]	/* 2 values pushed */
72 -64
SHPIX[ ]	/* ShiftZoneByPixel */
EIF[ ]	/* EndIf */";
};
width = 1212;
},
{
layerId = "3C10D975-8B50-4E95-9C62-C508D3823290";
shapes = (
{
closed = 1;
nodes = (
(980,2,o),
(980,90,qs),
(980,160,o),
(823,216,q),
(1036,321,o),
(1044,506,qs),
(1048,623,o),
(945,712,q),
(1055,799,o),
(1055,922,qs),
(1055,1096,o),
(865,1184,qs),
(722,1250,o),
(538,1250,qs),
(38,1250,o),
(38,1092,qs),
(38,991,o),
(151,991,qs),
(169,991,o),
(241,1003,qs),
(445,1036,o),
(531,1036,qs),
(638,1036,o),
(737,1006,qs),
(846,974,o),
(846,915,qs),
(846,866,o),
(771,839,qs),
(715,819,o),
(657,819,qs),
(609,819,o),
(420,846,o),
(372,846,qs),
(288,846,o),
(219,820,qs),
(124,783,o),
(125,710,qs),
(127,589,o),
(337,589,qs),
(396,589,o),
(629,622,o),
(688,622,qs),
(812,622,o),
(827,523,qs),
(836,464,o),
(631,345,o),
(554,345,qs),
(486,345,o),
(275,485,o),
(191,485,qs),
(120,485,o),
(35,411,o),
(35,357,qs),
(35,303,o),
(77,260,qs),
(122,214,o),
(201,198,qs),
(307,176,ls),
(410,156,o),
(418,151,q),
(474,139,o),
(648,64,qs),
(793,2,o),
(879,2,qs)
);
}
);
userData = {
assembly = "NPUSHB[ ]	/* 29 values pushed */
1 64 64 64 65 60 52 48 40 37 31 28 23 20 62 60 54 44 33 26 17 4 2 0 56 6 1 17 70
SROUND[ ]	/* SuperRound */
MDAP[1]	/* MoveDirectAbsPt */
SHZ[1]	/* ShiftZoneByLastPoint */
RTG[ ]	/* RoundToGrid */
SVTCA[0]	/* SetFreedomAndProjectionVectorToAxis */
MDAP[1]	/* MoveDirectAbsPt */
MDAP[1]	/* MoveDirectAbsPt */
SVTCA[1]	/* SetFreedomAndProjectionVectorToAxis */
MDAP[0]	/* MoveDirectAbsPt */
MDAP[0]	/* MoveDirectAbsPt */
MDAP[0]	/* MoveDirectAbsPt */
MDAP[0]	/* MoveDirectAbsPt */
MDAP[0]	/* MoveDirectAbsPt */
MDAP[0]	/* MoveDirectAbsPt */
MDAP[0]	/* MoveDirectAbsPt */
MDAP[0]	/* MoveDirectAbsPt */
MDAP[0]	/* MoveDirectAbsPt */
MDAP[0]	/* MoveDirectAbsPt */
SVTCA[0]	/* SetFreedomAndProjectionVectorToAxis */
MDAP[0]	/* MoveDirectAbsPt */
MDAP[0]	/* MoveDirectAbsPt */
MDAP[0]	/* MoveDirectAbsPt */
MDAP[0]	/* MoveDirectAbsPt */
MDAP[0]	/* MoveDirectAbsPt */
MDAP[0]	/* MoveDirectAbsPt */
MDAP[0]	/* MoveDirectAbsPt */
MDAP[0]	/* MoveDirectAbsPt */
IUP[1]	/* InterpolateUntPts */
IUP[0]	/* InterpolateUntPts */
SVTCA[1]	/* SetFreedomAndProjectionVectorToAxis */
MD[0]	/* MeasureDistance */
ROUND[00]	/* Round */
PUSHW[ ]	/* 2 values pushed */
17 64
MD[0]	/* MeasureDistance */
ROUND[00]	/* Round */
SUB[ ]	/* Subtract */
PUSHB[ ]	/* 1 value pushed */
64
GT[ ]	/* GreaterThan */
IF[ ]	/* If */
SHPIX[ ]	/* ShiftZoneByPixel */
SRP1[ ]	/* SetRefPoint1 */
SHZ[1]	/* ShiftZoneByLastPoint */
PUSHW[ ]	/* 2 values pushed */
64 -64
SHPIX[ ]	/* ShiftZoneByPixel */
EIF[ ]	/* EndIf */";
};
width = 1169;
}
);
note = three;
unicode = 51;
},
{
glyphname = four;
lastChange = "2025-04-20 14:04:59 +0000";
layers = (
{
layerId = m01;
shapes = (
{
closed = 1;
nodes = (
(663,-2,o),
(775,64,qs),
(912,145,o),
(912,300,qs),
(912,382,o),
(882,440,qs),
(865,473,o),
(824,514,qs),
(792,546,o),
(788,562,q),
(786,584,o),
(828,628,qs),
(888,690,o),
(910,726,qs),
(956,800,o),
(956,892,qs),
(956,1168,o),
(638,1230,q),
(638,1110,l),
(836,1054,o),
(836,884,qs),
(836,777,o),
(760,704,qs),
(669,616,o),
(496,616,qs),
(323,616,o),
(232,704,qs),
(156,777,o),
(156,884,qs),
(156,1054,o),
(354,1110,q),
(354,1230,l),
(36,1168,o),
(36,892,qs),
(36,800,o),
(82,726,qs),
(104,690,o),
(164,628,qs),
(206,584,o),
(204,562,q),
(200,546,o),
(168,514,qs),
(128,474,o),
(110,440,qs),
(80,383,o),
(80,300,qs),
(80,145,o),
(217,64,qs),
(329,-2,o),
(496,-2,qs)
);
},
{
closed = 1;
nodes = (
(200,120,o),
(200,300,qs),
(200,424,o),
(296,468,qs),
(357,496,o),
(496,496,qs),
(635,496,o),
(696,468,qs),
(792,424,o),
(792,300,qs),
(792,120,o),
(496,120,qs)
);
}
);
userData = {
assembly = "NPUSHB[ ]	/* 37 values pushed */
1 62 62 64 63 9 44 43 35 15 7 6 4 2 9 54 2 29 46 2 41 58 2 21 56 4 25 0 4 50 43 7 25 0 1 41 70
SROUND[ ]	/* SuperRound */
MDAP[1]	/* MoveDirectAbsPt */
SHZ[1]	/* ShiftZoneByLastPoint */
RTG[ ]	/* RoundToGrid */
SVTCA[0]	/* SetFreedomAndProjectionVectorToAxis */
MIAP[1]	/* MoveIndirectAbsPt */
MDAP[1]	/* MoveDirectAbsPt */
ALIGNRP[ ]	/* AlignRelativePt */
MDAP[1]	/* MoveDirectAbsPt */
MIRP[11101]	/* MoveIndirectRelPt */
SRP0[ ]	/* SetRefPoint0 */
MIRP[11101]	/* MoveIndirectRelPt */
SVTCA[1]	/* SetFreedomAndProjectionVectorToAxis */
MDAP[1]	/* MoveDirectAbsPt */
MIRP[11101]	/* MoveIndirectRelPt */
MDAP[1]	/* MoveDirectAbsPt */
MIRP[11101]	/* MoveIndirectRelPt */
MDAP[1]	/* MoveDirectAbsPt */
MIRP[11101]	/* MoveIndirectRelPt */
MDAP[1]	/* MoveDirectAbsPt */
MIRP[11101]	/* MoveIndirectRelPt */
MDAP[0]	/* MoveDirectAbsPt */
MDAP[0]	/* MoveDirectAbsPt */
MDAP[0]	/* MoveDirectAbsPt */
MDAP[0]	/* MoveDirectAbsPt */
MDAP[0]	/* MoveDirectAbsPt */
MDAP[0]	/* MoveDirectAbsPt */
SVTCA[0]	/* SetFreedomAndProjectionVectorToAxis */
IUP[1]	/* InterpolateUntPts */
IUP[0]	/* InterpolateUntPts */
SVTCA[1]	/* SetFreedomAndProjectionVectorToAxis */
MD[0]	/* MeasureDistance */
ROUND[00]	/* Round */
PUSHW[ ]	/* 2 values pushed */
41 62
MD[0]	/* MeasureDistance */
ROUND[00]	/* Round */
SUB[ ]	/* Subtract */
PUSHB[ ]	/* 1 value pushed */
64
GT[ ]	/* GreaterThan */
IF[ ]	/* If */
SHPIX[ ]	/* ShiftZoneByPixel */
SRP1[ ]	/* SetRefPoint1 */
SHZ[1]	/* ShiftZoneByLastPoint */
PUSHW[ ]	/* 2 values pushed */
62 -64
SHPIX[ ]	/* ShiftZoneByPixel */
EIF[ ]	/* EndIf */";
};
width = 1112;
},
{
layerId = "EFA29B47-3DC8-4F8A-813A-13C07BF7C797";
shapes = (
{
closed = 1;
nodes = (
(682,-2,o),
(798,78,qs),
(924,164,o),
(924,310,qs),
(924,393,o),
(894,454,qs),
(875,493,o),
(838,531,qs),
(808,562,o),
(808,570,qs),
(808,602,o),
(848,641,qs),
(907,697,o),
(924,724,qs),
(964,787,o),
(964,876,qs),
(964,1037,o),
(888,1117,qs),
(807,1202,o),
(604,1234,q),
(604,1078,l),
(665,1073,o),
(719,1035,qs),
(800,978,o),
(800,876,qs),
(800,789,o),
(718,716,qs),
(629,636,o),
(508,636,qs),
(353,636,o),
(272,716,qs),
(206,782,o),
(206,876,qs),
(206,1032,o),
(390,1078,q),
(390,1234,l),
(232,1209,o),
(142,1122,qs),
(46,1030,o),
(46,884,qs),
(46,791,o),
(87,725,qs),
(107,694,o),
(165,639,qs),
(206,599,o),
(206,570,qs),
(206,553,o),
(175,522,qs),
(136,482,o),
(119,450,qs),
(88,392,o),
(88,310,qs),
(88,162,o),
(210,78,qs),
(324,-2,o),
(506,-2,qs)
);
},
{
closed = 1;
nodes = (
(248,148,o),
(248,310,qs),
(248,422,o),
(320,464,qs),
(377,498,o),
(508,498,qs),
(633,498,o),
(685,469,qs),
(758,428,o),
(758,310,qs),
(758,148,o),
(506,148,qs)
);
}
);
userData = {
assembly = "NPUSHB[ ]	/* 33 values pushed */
1 68 68 64 69 13 64 60 52 50 49 45 39 33 25 19 13 9 8 4 0 5 56 62 4 29 49 9 29 0 1 45 70
SROUND[ ]	/* SuperRound */
MDAP[1]	/* MoveDirectAbsPt */
SHZ[1]	/* ShiftZoneByLastPoint */
RTG[ ]	/* RoundToGrid */
SVTCA[0]	/* SetFreedomAndProjectionVectorToAxis */
MIAP[1]	/* MoveIndirectAbsPt */
MDAP[1]	/* MoveDirectAbsPt */
ALIGNRP[ ]	/* AlignRelativePt */
SRP0[ ]	/* SetRefPoint0 */
MIRP[11101]	/* MoveIndirectRelPt */
MDAP[1]	/* MoveDirectAbsPt */
MIRP[11101]	/* MoveIndirectRelPt */
SVTCA[1]	/* SetFreedomAndProjectionVectorToAxis */
MDAP[0]	/* MoveDirectAbsPt */
MDAP[0]	/* MoveDirectAbsPt */
MDAP[0]	/* MoveDirectAbsPt */
MDAP[0]	/* MoveDirectAbsPt */
MDAP[0]	/* MoveDirectAbsPt */
MDAP[0]	/* MoveDirectAbsPt */
MDAP[0]	/* MoveDirectAbsPt */
MDAP[0]	/* MoveDirectAbsPt */
MDAP[0]	/* MoveDirectAbsPt */
MDAP[0]	/* MoveDirectAbsPt */
MDAP[0]	/* MoveDirectAbsPt */
MDAP[0]	/* MoveDirectAbsPt */
MDAP[0]	/* MoveDirectAbsPt */
MDAP[0]	/* MoveDirectAbsPt */
SVTCA[0]	/* SetFreedomAndProjectionVectorToAxis */
IUP[1]	/* InterpolateUntPts */
IUP[0]	/* InterpolateUntPts */
SVTCA[1]	/* SetFreedomAndProjectionVectorToAxis */
MD[0]	/* MeasureDistance */
ROUND[00]	/* Round */
PUSHW[ ]	/* 2 values pushed */
45 68
MD[0]	/* MeasureDistance */
ROUND[00]	/* Round */
SUB[ ]	/* Subtract */
PUSHB[ ]	/* 1 value pushed */
64
GT[ ]	/* GreaterThan */
IF[ ]	/* If */
SHPIX[ ]	/* ShiftZoneByPixel */
SRP1[ ]	/* SetRefPoint1 */
SHZ[1]	/* ShiftZoneByLastPoint */
PUSHW[ ]	/* 2 values pushed */
68 -64
SHPIX[ ]	/* ShiftZoneByPixel */
EIF[ ]	/* EndIf */";
};
width = 1112;
},
{
layerId = "3C10D975-8B50-4E95-9C62-C508D3823290";
shapes = (
{
closed = 1;
nodes = (
(674,-2,o),
(792,71,qs),
(934,159,o),
(934,327,qs),
(934,421,o),
(908,468,qs),
(902,479,o),
(826,573,q),
(832,581,o),
(843,592,qs),
(974,729,o),
(974,870,qs),
(974,1042,o),
(860,1133,qs),
(770,1206,o),
(582,1243,q),
(582,1031,l),
(674,1005,o),
(712,975,qs),
(763,935,o),
(763,863,qs),
(763,765,o),
(682,713,qs),
(612,668,o),
(504,668,qs),
(396,668,o),
(326,713,qs),
(245,765,o),
(245,863,qs),
(245,935,o),
(295,975,qs),
(333,1005,o),
(425,1031,q),
(425,1243,l),
(238,1206,o),
(147,1133,qs),
(34,1042,o),
(34,870,qs),
(34,771,o),
(83,691,qs),
(113,642,o),
(184,575,q),
(143,522,o),
(102,469,q),
(74,421,o),
(74,327,qs),
(74,159,o),
(216,71,qs),
(333,-2,o),
(504,-2,qs)
);
},
{
closed = 1;
nodes = (
(285,213,o),
(285,327,qs),
(285,408,o),
(343,434,qs),
(389,455,o),
(504,455,qs),
(613,455,o),
(655,438,qs),
(722,411,o),
(722,327,qs),
(722,213,o),
(504,213,qs)
);
}
);
userData = {
assembly = "NPUSHB[ ]	/* 32 values pushed */
1 62 62 64 63 30 50 17 58 54 46 38 34 30 26 25 21 13 9 8 4 0 56 4 42 26 8 42 0 1 4 70
SROUND[ ]	/* SuperRound */
MDAP[1]	/* MoveDirectAbsPt */
SHZ[1]	/* ShiftZoneByLastPoint */
RTG[ ]	/* RoundToGrid */
SVTCA[0]	/* SetFreedomAndProjectionVectorToAxis */
MIAP[1]	/* MoveIndirectAbsPt */
MDAP[1]	/* MoveDirectAbsPt */
ALIGNRP[ ]	/* AlignRelativePt */
SRP0[ ]	/* SetRefPoint0 */
MIRP[11101]	/* MoveIndirectRelPt */
SVTCA[1]	/* SetFreedomAndProjectionVectorToAxis */
MDAP[0]	/* MoveDirectAbsPt */
MDAP[0]	/* MoveDirectAbsPt */
MDAP[0]	/* MoveDirectAbsPt */
MDAP[0]	/* MoveDirectAbsPt */
MDAP[0]	/* MoveDirectAbsPt */
MDAP[0]	/* MoveDirectAbsPt */
MDAP[0]	/* MoveDirectAbsPt */
MDAP[0]	/* MoveDirectAbsPt */
MDAP[0]	/* MoveDirectAbsPt */
MDAP[0]	/* MoveDirectAbsPt */
MDAP[0]	/* MoveDirectAbsPt */
MDAP[0]	/* MoveDirectAbsPt */
MDAP[0]	/* MoveDirectAbsPt */
MDAP[0]	/* MoveDirectAbsPt */
SVTCA[0]	/* SetFreedomAndProjectionVectorToAxis */
MDAP[0]	/* MoveDirectAbsPt */
MDAP[0]	/* MoveDirectAbsPt */
IUP[1]	/* InterpolateUntPts */
IUP[0]	/* InterpolateUntPts */
SVTCA[1]	/* SetFreedomAndProjectionVectorToAxis */
MD[0]	/* MeasureDistance */
ROUND[00]	/* Round */
PUSHW[ ]	/* 2 values pushed */
4 62
MD[0]	/* MeasureDistance */
ROUND[00]	/* Round */
SUB[ ]	/* Subtract */
PUSHB[ ]	/* 1 value pushed */
64
GT[ ]	/* GreaterThan */
IF[ ]	/* If */
SHPIX[ ]	/* ShiftZoneByPixel */
SRP1[ ]	/* SetRefPoint1 */
SHZ[1]	/* ShiftZoneByLastPoint */
PUSHW[ ]	/* 2 values pushed */
62 -64
SHPIX[ ]	/* ShiftZoneByPixel */
EIF[ ]	/* EndIf */";
};
width = 1075;
}
);
note = four;
unicode = 52;
},
{
glyphname = five;
lastChange = "2025-04-20 14:04:59 +0000";
layers = (
{
layerId = m01;
shapes = (
{
closed = 1;
nodes = (
(942,0,l),
(942,1198,l),
(822,1198,l),
(822,450,l),
(628,314,o),
(480,318,qs),
(385,320,o),
(278,384,qs),
(223,417,o),
(180,454,q),
(284,616,o),
(322,852,qs),
(326,877,o),
(326,904,qs),
(326,999,o),
(274,1091,qs),
(214,1198,o),
(126,1198,qs),
(12,1198,l),
(12,1076,l),
(56,1076,ls),
(130,1076,o),
(170,1019,qs),
(204,969,o),
(204,892,qs),
(204,871,o),
(202,858,qs),
(195,810,o),
(124,628,qs),
(60,463,o),
(62,426,q),
(80,371,o),
(174,302,qs),
(316,197,o),
(512,200,qs),
(593,201,o),
(696,250,qs),
(776,288,o),
(822,328,q),
(822,0,l)
);
}
);
userData = {
assembly = "NPUSHB[ ]	/* 39 values pushed */
1 40 40 64 41 0 36 7 3 32 28 23 22 17 11 39 38 3 3 2 2 1 0 22 21 4 0 2 1 0 39 24 23 3 0 1 1 22 70
SROUND[ ]	/* SuperRound */
MDAP[1]	/* MoveDirectAbsPt */
SHZ[1]	/* ShiftZoneByLastPoint */
RTG[ ]	/* RoundToGrid */
SVTCA[0]	/* SetFreedomAndProjectionVectorToAxis */
MIAP[1]	/* MoveIndirectAbsPt */
SLOOP[ ]	/* SetLoopVariable */
ALIGNRP[ ]	/* AlignRelativePt */
MIAP[1]	/* MoveIndirectAbsPt */
ALIGNRP[ ]	/* AlignRelativePt */
SRP0[ ]	/* SetRefPoint0 */
MIRP[11101]	/* MoveIndirectRelPt */
ALIGNRP[ ]	/* AlignRelativePt */
SVTCA[1]	/* SetFreedomAndProjectionVectorToAxis */
MDAP[1]	/* MoveDirectAbsPt */
ALIGNRP[ ]	/* AlignRelativePt */
MIRP[11101]	/* MoveIndirectRelPt */
SLOOP[ ]	/* SetLoopVariable */
ALIGNRP[ ]	/* AlignRelativePt */
MDAP[0]	/* MoveDirectAbsPt */
MDAP[0]	/* MoveDirectAbsPt */
MDAP[0]	/* MoveDirectAbsPt */
MDAP[0]	/* MoveDirectAbsPt */
MDAP[0]	/* MoveDirectAbsPt */
MDAP[0]	/* MoveDirectAbsPt */
SVTCA[0]	/* SetFreedomAndProjectionVectorToAxis */
MDAP[0]	/* MoveDirectAbsPt */
MDAP[0]	/* MoveDirectAbsPt */
MDAP[0]	/* MoveDirectAbsPt */
IUP[1]	/* InterpolateUntPts */
IUP[0]	/* InterpolateUntPts */
SVTCA[1]	/* SetFreedomAndProjectionVectorToAxis */
MD[0]	/* MeasureDistance */
ROUND[00]	/* Round */
PUSHW[ ]	/* 2 values pushed */
22 40
MD[0]	/* MeasureDistance */
ROUND[00]	/* Round */
SUB[ ]	/* Subtract */
PUSHB[ ]	/* 1 value pushed */
64
GT[ ]	/* GreaterThan */
IF[ ]	/* If */
SHPIX[ ]	/* ShiftZoneByPixel */
SRP1[ ]	/* SetRefPoint1 */
SHZ[1]	/* ShiftZoneByLastPoint */
PUSHW[ ]	/* 2 values pushed */
40 -64
SHPIX[ ]	/* ShiftZoneByPixel */
EIF[ ]	/* EndIf */";
};
width = 1140;
},
{
layerId = "EFA29B47-3DC8-4F8A-813A-13C07BF7C797";
shapes = (
{
closed = 1;
nodes = (
(960,0,l),
(960,1198,l),
(807,1198,l),
(807,478,l),
(784,445,o),
(696,397,qs),
(604,348,o),
(556,348,qs),
(345,348,o),
(216,453,q),
(313,660,o),
(348,846,qs),
(351,866,o),
(351,889,qs),
(351,993,o),
(298,1091,qs),
(240,1198,o),
(166,1198,qs),
(16,1198,l),
(16,1056,l),
(65,1056,ls),
(136,1056,o),
(172,997,qs),
(201,951,o),
(201,887,qs),
(201,869,o),
(198,855,qs),
(188,797,o),
(122,611,qs),
(59,432,o),
(57,422,q),
(90,359,o),
(183,295,qs),
(325,197,o),
(511,197,qs),
(586,197,o),
(679,235,qs),
(764,268,o),
(807,308,q),
(807,0,l)
);
}
);
userData = {
assembly = "NPUSHB[ ]	/* 37 values pushed */
1 40 40 64 41 0 33 21 20 6 2 31 27 22 21 16 10 38 37 2 3 1 2 39 0 39 38 23 3 22 1 1 0 0 1 21 70
SROUND[ ]	/* SuperRound */
MDAP[1]	/* MoveDirectAbsPt */
SHZ[1]	/* ShiftZoneByLastPoint */
RTG[ ]	/* RoundToGrid */
SVTCA[0]	/* SetFreedomAndProjectionVectorToAxis */
MIAP[1]	/* MoveIndirectAbsPt */
ALIGNRP[ ]	/* AlignRelativePt */
MIAP[1]	/* MoveIndirectAbsPt */
SLOOP[ ]	/* SetLoopVariable */
ALIGNRP[ ]	/* AlignRelativePt */
SVTCA[1]	/* SetFreedomAndProjectionVectorToAxis */
MDAP[1]	/* MoveDirectAbsPt */
ALIGNRP[ ]	/* AlignRelativePt */
MIRP[11101]	/* MoveIndirectRelPt */
SLOOP[ ]	/* SetLoopVariable */
ALIGNRP[ ]	/* AlignRelativePt */
MDAP[0]	/* MoveDirectAbsPt */
MDAP[0]	/* MoveDirectAbsPt */
MDAP[0]	/* MoveDirectAbsPt */
MDAP[0]	/* MoveDirectAbsPt */
MDAP[0]	/* MoveDirectAbsPt */
MDAP[0]	/* MoveDirectAbsPt */
SVTCA[0]	/* SetFreedomAndProjectionVectorToAxis */
MDAP[0]	/* MoveDirectAbsPt */
MDAP[0]	/* MoveDirectAbsPt */
MDAP[0]	/* MoveDirectAbsPt */
MDAP[0]	/* MoveDirectAbsPt */
MDAP[0]	/* MoveDirectAbsPt */
IUP[1]	/* InterpolateUntPts */
IUP[0]	/* InterpolateUntPts */
SVTCA[1]	/* SetFreedomAndProjectionVectorToAxis */
MD[0]	/* MeasureDistance */
ROUND[00]	/* Round */
PUSHW[ ]	/* 2 values pushed */
21 40
MD[0]	/* MeasureDistance */
ROUND[00]	/* Round */
SUB[ ]	/* Subtract */
PUSHB[ ]	/* 1 value pushed */
64
GT[ ]	/* GreaterThan */
IF[ ]	/* If */
SHPIX[ ]	/* ShiftZoneByPixel */
SRP1[ ]	/* SetRefPoint1 */
SHZ[1]	/* ShiftZoneByLastPoint */
PUSHW[ ]	/* 2 values pushed */
40 -64
SHPIX[ ]	/* ShiftZoneByPixel */
EIF[ ]	/* EndIf */";
};
width = 1140;
},
{
layerId = "3C10D975-8B50-4E95-9C62-C508D3823290";
shapes = (
{
closed = 1;
nodes = (
(961,0,l),
(961,1201,l),
(749,1201,l),
(749,491,l),
(606,395,o),
(499,395,qs),
(396,395,o),
(282,480,q),
(399,692,o),
(399,880,qs),
(399,987,o),
(341,1085,qs),
(272,1201,o),
(166,1201,qs),
(11,1201,l),
(11,987,l),
(102,987,ls),
(186,987,o),
(186,869,qs),
(186,830,o),
(166,770,q),
(132,685,o),
(97,601,qs),
(54,491,o),
(57,432,q),
(81,360,o),
(180,287,qs),
(320,183,o),
(482,183,qs),
(618,183,o),
(749,256,q),
(749,0,l)
);
}
);
userData = {
assembly = "NPUSHB[ ]	/* 39 values pushed */
1 32 32 64 33 30 26 3 1 24 22 17 16 13 7 29 28 1 3 0 2 31 30 16 15 4 17 30 29 18 3 17 1 31 0 0 1 16 70
SROUND[ ]	/* SuperRound */
MDAP[1]	/* MoveDirectAbsPt */
SHZ[1]	/* ShiftZoneByLastPoint */
RTG[ ]	/* RoundToGrid */
SVTCA[0]	/* SetFreedomAndProjectionVectorToAxis */
MIAP[1]	/* MoveIndirectAbsPt */
ALIGNRP[ ]	/* AlignRelativePt */
MIAP[1]	/* MoveIndirectAbsPt */
SLOOP[ ]	/* SetLoopVariable */
ALIGNRP[ ]	/* AlignRelativePt */
SRP0[ ]	/* SetRefPoint0 */
MIRP[11101]	/* MoveIndirectRelPt */
ALIGNRP[ ]	/* AlignRelativePt */
SVTCA[1]	/* SetFreedomAndProjectionVectorToAxis */
MDAP[1]	/* MoveDirectAbsPt */
ALIGNRP[ ]	/* AlignRelativePt */
MIRP[11101]	/* MoveIndirectRelPt */
SLOOP[ ]	/* SetLoopVariable */
ALIGNRP[ ]	/* AlignRelativePt */
MDAP[0]	/* MoveDirectAbsPt */
MDAP[0]	/* MoveDirectAbsPt */
MDAP[0]	/* MoveDirectAbsPt */
MDAP[0]	/* MoveDirectAbsPt */
MDAP[0]	/* MoveDirectAbsPt */
MDAP[0]	/* MoveDirectAbsPt */
SVTCA[0]	/* SetFreedomAndProjectionVectorToAxis */
MDAP[0]	/* MoveDirectAbsPt */
MDAP[0]	/* MoveDirectAbsPt */
MDAP[0]	/* MoveDirectAbsPt */
IUP[1]	/* InterpolateUntPts */
IUP[0]	/* InterpolateUntPts */
SVTCA[1]	/* SetFreedomAndProjectionVectorToAxis */
MD[0]	/* MeasureDistance */
ROUND[00]	/* Round */
PUSHW[ ]	/* 2 values pushed */
16 32
MD[0]	/* MeasureDistance */
ROUND[00]	/* Round */
SUB[ ]	/* Subtract */
PUSHB[ ]	/* 1 value pushed */
64
GT[ ]	/* GreaterThan */
IF[ ]	/* If */
SHPIX[ ]	/* ShiftZoneByPixel */
SRP1[ ]	/* SetRefPoint1 */
SHZ[1]	/* ShiftZoneByLastPoint */
PUSHW[ ]	/* 2 values pushed */
32 -64
SHPIX[ ]	/* ShiftZoneByPixel */
EIF[ ]	/* EndIf */";
};
width = 1102;
}
);
note = five;
unicode = 53;
},
{
glyphname = six;
lastChange = "2025-04-20 14:04:59 +0000";
layers = (
{
layerId = m01;
shapes = (
{
closed = 1;
nodes = (
(738,0,ls),
(791,0,o),
(804,4,qs),
(832,15,o),
(830,56,qs),
(827,120,o),
(738,120,qs),
(362,120,ls),
(152,120,o),
(152,280,qs),
(152,299,o),
(154,314,qs),
(180,500,o),
(398,500,qs),
(435,500,o),
(581,482,o),
(618,482,qs),
(803,482,o),
(798,572,qs),
(796,608,o),
(723,629,qs),
(669,644,o),
(620,644,qs),
(582,644,o),
(436,612,o),
(398,612,qs),
(291,612,o),
(225,670,qs),
(156,730,o),
(152,836,qs),
(148,938,o),
(268,994,qs),
(320,1018,o),
(398,1018,qs),
(461,1018,o),
(562,1000,qs),
(590,995,o),
(656,974,qs),
(719,954,o),
(746,954,qs),
(795,954,o),
(814,998,qs),
(820,1012,o),
(820,1022,qs),
(820,1055,o),
(762,1088,qs),
(681,1134,o),
(662,1158,qs),
(582,1257,o),
(582,1338,qs),
(582,1396,o),
(627,1434,qs),
(669,1470,o),
(728,1470,qs),
(754,1470,o),
(857,1450,o),
(882,1450,qs),
(908,1450,o),
(908,1468,qs),
(908,1500,o),
(830,1528,qs),
(764,1550,o),
(724,1550,qs),
(451,1547,o),
(464,1300,qs),
(467,1236,o),
(566,1112,q),
(466,1132,o),
(400,1132,qs),
(255,1132,o),
(152,1070,qs),
(30,997,o),
(30,860,qs),
(30,781,o),
(87,666,qs),
(142,556,o),
(142,556,q),
(142,552,o),
(34,388,o),
(34,306,qs),
(34,181,o),
(104,94,qs),
(180,0,o),
(302,0,qs)
);
}
);
userData = {
assembly = "NPUSHB[ ]	/* 44 values pushed */
1 84 84 64 85 6 82 48 42 25 8 82 76 72 69 60 55 46 35 21 6 0 2 15 11 5 2 31 4 80 39 4 51 58 57 4 64 2 65 64 0 1 76 70
SROUND[ ]	/* SuperRound */
MDAP[1]	/* MoveDirectAbsPt */
SHZ[1]	/* ShiftZoneByLastPoint */
RTG[ ]	/* RoundToGrid */
SVTCA[0]	/* SetFreedomAndProjectionVectorToAxis */
MIAP[1]	/* MoveIndirectAbsPt */
ALIGNRP[ ]	/* AlignRelativePt */
MDAP[1]	/* MoveDirectAbsPt */
SRP0[ ]	/* SetRefPoint0 */
MIRP[11101]	/* MoveIndirectRelPt */
ALIGNRP[ ]	/* AlignRelativePt */
MDAP[1]	/* MoveDirectAbsPt */
MIRP[11101]	/* MoveIndirectRelPt */
MDAP[1]	/* MoveDirectAbsPt */
MIRP[11101]	/* MoveIndirectRelPt */
SRP0[ ]	/* SetRefPoint0 */
MIRP[11101]	/* MoveIndirectRelPt */
SVTCA[1]	/* SetFreedomAndProjectionVectorToAxis */
MDAP[1]	/* MoveDirectAbsPt */
MIRP[11101]	/* MoveIndirectRelPt */
MDAP[0]	/* MoveDirectAbsPt */
MDAP[0]	/* MoveDirectAbsPt */
MDAP[0]	/* MoveDirectAbsPt */
MDAP[0]	/* MoveDirectAbsPt */
MDAP[0]	/* MoveDirectAbsPt */
MDAP[0]	/* MoveDirectAbsPt */
MDAP[0]	/* MoveDirectAbsPt */
MDAP[0]	/* MoveDirectAbsPt */
MDAP[0]	/* MoveDirectAbsPt */
MDAP[0]	/* MoveDirectAbsPt */
SVTCA[0]	/* SetFreedomAndProjectionVectorToAxis */
MDAP[0]	/* MoveDirectAbsPt */
MDAP[0]	/* MoveDirectAbsPt */
MDAP[0]	/* MoveDirectAbsPt */
MDAP[0]	/* MoveDirectAbsPt */
MDAP[0]	/* MoveDirectAbsPt */
IUP[1]	/* InterpolateUntPts */
IUP[0]	/* InterpolateUntPts */
SVTCA[1]	/* SetFreedomAndProjectionVectorToAxis */
MD[0]	/* MeasureDistance */
ROUND[00]	/* Round */
PUSHW[ ]	/* 2 values pushed */
76 84
MD[0]	/* MeasureDistance */
ROUND[00]	/* Round */
SUB[ ]	/* Subtract */
PUSHB[ ]	/* 1 value pushed */
64
GT[ ]	/* GreaterThan */
IF[ ]	/* If */
SHPIX[ ]	/* ShiftZoneByPixel */
SRP1[ ]	/* SetRefPoint1 */
SHZ[1]	/* ShiftZoneByLastPoint */
PUSHW[ ]	/* 2 values pushed */
84 -64
SHPIX[ ]	/* ShiftZoneByPixel */
EIF[ ]	/* EndIf */";
};
width = 1008;
},
{
layerId = "EFA29B47-3DC8-4F8A-813A-13C07BF7C797";
shapes = (
{
closed = 1;
nodes = (
(746,-2,ls),
(860,-2,o),
(854,86,qs),
(851,125,o),
(815,137,qs),
(797,142,o),
(746,142,qs),
(490,142,ls),
(339,142,o),
(296,157,qs),
(211,186,o),
(211,295,qs),
(211,309,o),
(212,324,qs),
(226,491,o),
(412,491,qs),
(449,491,o),
(597,474,o),
(634,474,qs),
(830,474,o),
(824,578,qs),
(822,614,o),
(713,664,o),
(637,664,qs),
(598,664,o),
(448,631,o),
(409,631,qs),
(212,631,o),
(202,836,qs),
(198,908,o),
(350,1006,o),
(458,1006,qs),
(522,1006,o),
(572,989,qs),
(717,940,o),
(738,934,qs),
(751,930,o),
(764,930,qs),
(836,930,o),
(848,1030,qs),
(851,1058,o),
(794,1084,qs),
(719,1117,o),
(690,1160,qs),
(640,1233,o),
(634,1244,qs),
(616,1279,o),
(616,1324,qs),
(616,1464,o),
(912,1464,q),
(931,1473,o),
(931,1485,qs),
(931,1508,o),
(811,1551,o),
(737,1551,qs),
(620,1551,o),
(548,1496,qs),
(458,1427,o),
(462,1286,qs),
(463,1257,o),
(546,1145,o),
(546,1139,qs),
(546,1137,o),
(544,1136,q),
(456,1146,o),
(367,1135,qs),
(233,1118,o),
(150,1057,qs),
(50,983,o),
(50,858,qs),
(50,754,o),
(101,677,qs),
(155,596,o),
(156,582,qs),
(159,535,o),
(108,476,qs),
(54,415,o),
(54,318,qs),
(54,181,o),
(213,-2,o),
(330,-2,qs)
);
}
);
userData = {
assembly = "NPUSHB[ ]	/* 37 values pushed */
1 81 81 64 82 12 45 40 32 26 75 71 67 61 52 43 35 24 12 2 5 2 16 37 5 48 57 56 5 63 9 64 63 0 1 75 70
SROUND[ ]	/* SuperRound */
MDAP[1]	/* MoveDirectAbsPt */
SHZ[1]	/* ShiftZoneByLastPoint */
RTG[ ]	/* RoundToGrid */
SVTCA[0]	/* SetFreedomAndProjectionVectorToAxis */
MIAP[1]	/* MoveIndirectAbsPt */
ALIGNRP[ ]	/* AlignRelativePt */
MDAP[1]	/* MoveDirectAbsPt */
SRP0[ ]	/* SetRefPoint0 */
MIRP[11101]	/* MoveIndirectRelPt */
ALIGNRP[ ]	/* AlignRelativePt */
MDAP[1]	/* MoveDirectAbsPt */
MIRP[11101]	/* MoveIndirectRelPt */
SVTCA[1]	/* SetFreedomAndProjectionVectorToAxis */
MDAP[1]	/* MoveDirectAbsPt */
MIRP[11101]	/* MoveIndirectRelPt */
MDAP[0]	/* MoveDirectAbsPt */
MDAP[0]	/* MoveDirectAbsPt */
MDAP[0]	/* MoveDirectAbsPt */
MDAP[0]	/* MoveDirectAbsPt */
MDAP[0]	/* MoveDirectAbsPt */
MDAP[0]	/* MoveDirectAbsPt */
MDAP[0]	/* MoveDirectAbsPt */
MDAP[0]	/* MoveDirectAbsPt */
MDAP[0]	/* MoveDirectAbsPt */
MDAP[0]	/* MoveDirectAbsPt */
SVTCA[0]	/* SetFreedomAndProjectionVectorToAxis */
MDAP[0]	/* MoveDirectAbsPt */
MDAP[0]	/* MoveDirectAbsPt */
MDAP[0]	/* MoveDirectAbsPt */
MDAP[0]	/* MoveDirectAbsPt */
IUP[1]	/* InterpolateUntPts */
IUP[0]	/* InterpolateUntPts */
SVTCA[1]	/* SetFreedomAndProjectionVectorToAxis */
MD[0]	/* MeasureDistance */
ROUND[00]	/* Round */
PUSHW[ ]	/* 2 values pushed */
75 81
MD[0]	/* MeasureDistance */
ROUND[00]	/* Round */
SUB[ ]	/* Subtract */
PUSHB[ ]	/* 1 value pushed */
64
GT[ ]	/* GreaterThan */
IF[ ]	/* If */
SHPIX[ ]	/* ShiftZoneByPixel */
SRP1[ ]	/* SetRefPoint1 */
SHZ[1]	/* ShiftZoneByLastPoint */
PUSHW[ ]	/* 2 values pushed */
81 -64
SHPIX[ ]	/* ShiftZoneByPixel */
EIF[ ]	/* EndIf */";
};
width = 1008;
},
{
layerId = "3C10D975-8B50-4E95-9C62-C508D3823290";
shapes = (
{
closed = 1;
nodes = (
(723,0,ls),
(788,0,o),
(815,14,qs),
(859,36,o),
(859,97,qs),
(859,144,o),
(827,176,qs),
(790,214,o),
(723,214,qs),
(381,214,ls),
(241,214,o),
(241,310,qs),
(241,461,o),
(414,461,qs),
(447,461,o),
(580,444,o),
(614,444,qs),
(719,444,o),
(778,481,qs),
(830,514,o),
(830,564,qs),
(830,617,o),
(775,655,qs),
(714,697,o),
(616,697,qs),
(581,697,o),
(448,667,o),
(414,667,qs),
(247,667,o),
(241,824,qs),
(239,880,o),
(298,912,qs),
(347,939,o),
(414,939,qs),
(466,939,o),
(554,923,qs),
(671,901,o),
(729,891,q),
(777,886,o),
(849,945,o),
(849,994,qs),
(849,1044,o),
(789,1087,qs),
(733,1124,o),
(677,1161,q),
(618,1211,o),
(618,1276,qs),
(618,1306,o),
(680,1355,o),
(714,1355,qs),
(738,1355,o),
(830,1337,o),
(854,1337,qs),
(936,1337,o),
(928,1405,qs),
(921,1465,o),
(840,1502,qs),
(773,1532,o),
(700,1532,qs),
(585,1532,o),
(504,1463,qs),
(420,1392,o),
(420,1285,qs),
(420,1217,o),
(459,1145,q),
(436,1147,o),
(416,1147,qs),
(264,1147,o),
(157,1078,qs),
(28,996,o),
(28,844,qs),
(28,765,o),
(93,632,o),
(127,567,q),
(94,513,o),
(61,459,q),
(32,403,o),
(32,334,qs),
(32,198,o),
(109,103,qs),
(193,0,o),
(327,0,qs)
);
}
);
userData = {
assembly = "NPUSHB[ ]	/* 41 values pushed */
1 82 82 64 83 77 79 67 65 36 33 25 22 16 12 77 69 67 61 58 54 45 38 29 20 9 3 41 40 4 49 0 5 73 73 50 49 0 1 61 70
SROUND[ ]	/* SuperRound */
MDAP[1]	/* MoveDirectAbsPt */
SHZ[1]	/* ShiftZoneByLastPoint */
RTG[ ]	/* RoundToGrid */
SVTCA[0]	/* SetFreedomAndProjectionVectorToAxis */
MIAP[1]	/* MoveIndirectAbsPt */
ALIGNRP[ ]	/* AlignRelativePt */
MDAP[1]	/* MoveDirectAbsPt */
SRP0[ ]	/* SetRefPoint0 */
MIRP[11101]	/* MoveIndirectRelPt */
SRP0[ ]	/* SetRefPoint0 */
MIRP[11101]	/* MoveIndirectRelPt */
ALIGNRP[ ]	/* AlignRelativePt */
SVTCA[1]	/* SetFreedomAndProjectionVectorToAxis */
MDAP[0]	/* MoveDirectAbsPt */
MDAP[0]	/* MoveDirectAbsPt */
MDAP[0]	/* MoveDirectAbsPt */
MDAP[0]	/* MoveDirectAbsPt */
MDAP[0]	/* MoveDirectAbsPt */
MDAP[0]	/* MoveDirectAbsPt */
MDAP[0]	/* MoveDirectAbsPt */
MDAP[0]	/* MoveDirectAbsPt */
MDAP[0]	/* MoveDirectAbsPt */
MDAP[0]	/* MoveDirectAbsPt */
MDAP[0]	/* MoveDirectAbsPt */
MDAP[0]	/* MoveDirectAbsPt */
SVTCA[0]	/* SetFreedomAndProjectionVectorToAxis */
MDAP[0]	/* MoveDirectAbsPt */
MDAP[0]	/* MoveDirectAbsPt */
MDAP[0]	/* MoveDirectAbsPt */
MDAP[0]	/* MoveDirectAbsPt */
MDAP[0]	/* MoveDirectAbsPt */
MDAP[0]	/* MoveDirectAbsPt */
MDAP[0]	/* MoveDirectAbsPt */
MDAP[0]	/* MoveDirectAbsPt */
MDAP[0]	/* MoveDirectAbsPt */
IUP[1]	/* InterpolateUntPts */
IUP[0]	/* InterpolateUntPts */
SVTCA[1]	/* SetFreedomAndProjectionVectorToAxis */
MD[0]	/* MeasureDistance */
ROUND[00]	/* Round */
PUSHW[ ]	/* 2 values pushed */
61 82
MD[0]	/* MeasureDistance */
ROUND[00]	/* Round */
SUB[ ]	/* Subtract */
PUSHB[ ]	/* 1 value pushed */
64
GT[ ]	/* GreaterThan */
IF[ ]	/* If */
SHPIX[ ]	/* ShiftZoneByPixel */
SRP1[ ]	/* SetRefPoint1 */
SHZ[1]	/* ShiftZoneByLastPoint */
PUSHW[ ]	/* 2 values pushed */
82 -64
SHPIX[ ]	/* ShiftZoneByPixel */
EIF[ ]	/* EndIf */";
};
width = 978;
}
);
note = six;
unicode = 54;
},
{
glyphname = seven;
lastChange = "2025-04-20 14:04:59 +0000";
layers = (
{
layerId = m01;
shapes = (
{
closed = 1;
nodes = (
(161,0,o),
(384,98,qs),
(689,232,o),
(850,352,qs),
(1087,529,o),
(1090,834,qs),
(1091,1014,o),
(940,1144,qs),
(893,1184,o),
(794,1214,qs),
(709,1240,o),
(638,1242,qs),
(503,1247,o),
(364,1171,qs),
(204,1084,o),
(204,958,qs),
(204,856,o),
(286,864,qs),
(324,868,o),
(346,916,q),
(358,954,o),
(374,997,qs),
(393,1049,o),
(474,1088,qs),
(545,1122,o),
(608,1124,qs),
(758,1128,o),
(852,1058,qs),
(976,966,o),
(976,820,qs),
(976,752,o),
(949,671,qs),
(921,586,o),
(880,536,qs),
(804,445,o),
(598,320,qs),
(418,211,o),
(268,146,qs),
(202,119,o),
(136,91,qs),
(30,44,o),
(28,20,qs),
(26,0,o),
(62,0,qs)
);
}
);
userData = {
assembly = "NPUSHB[ ]	/* 18 values pushed */
1 44 44 64 45 0 32 24 34 20 8 0 38 6 0 1 8 70
SROUND[ ]	/* SuperRound */
MDAP[1]	/* MoveDirectAbsPt */
SHZ[1]	/* ShiftZoneByLastPoint */
RTG[ ]	/* RoundToGrid */
SVTCA[0]	/* SetFreedomAndProjectionVectorToAxis */
MIAP[1]	/* MoveIndirectAbsPt */
MDAP[1]	/* MoveDirectAbsPt */
SVTCA[1]	/* SetFreedomAndProjectionVectorToAxis */
MDAP[0]	/* MoveDirectAbsPt */
MDAP[0]	/* MoveDirectAbsPt */
MDAP[0]	/* MoveDirectAbsPt */
MDAP[0]	/* MoveDirectAbsPt */
SVTCA[0]	/* SetFreedomAndProjectionVectorToAxis */
MDAP[0]	/* MoveDirectAbsPt */
MDAP[0]	/* MoveDirectAbsPt */
IUP[1]	/* InterpolateUntPts */
IUP[0]	/* InterpolateUntPts */
SVTCA[1]	/* SetFreedomAndProjectionVectorToAxis */
MD[0]	/* MeasureDistance */
ROUND[00]	/* Round */
PUSHW[ ]	/* 2 values pushed */
8 44
MD[0]	/* MeasureDistance */
ROUND[00]	/* Round */
SUB[ ]	/* Subtract */
PUSHB[ ]	/* 1 value pushed */
64
GT[ ]	/* GreaterThan */
IF[ ]	/* If */
SHPIX[ ]	/* ShiftZoneByPixel */
SRP1[ ]	/* SetRefPoint1 */
SHZ[1]	/* ShiftZoneByLastPoint */
PUSHW[ ]	/* 2 values pushed */
44 -64
SHPIX[ ]	/* ShiftZoneByPixel */
EIF[ ]	/* EndIf */";
};
width = 1238;
},
{
layerId = "EFA29B47-3DC8-4F8A-813A-13C07BF7C797";
shapes = (
{
closed = 1;
nodes = (
(144,2,o),
(313,72,qs),
(425,121,o),
(538,171,qs),
(693,237,o),
(842,344,qs),
(937,413,o),
(1006,520,qs),
(1091,652,o),
(1088,830,qs),
(1085,1020,o),
(946,1145,qs),
(838,1242,o),
(635,1242,qs),
(493,1242,o),
(351,1154,qs),
(200,1060,o),
(200,951,qs),
(200,843,o),
(294,843,qs),
(331,843,o),
(368,888,qs),
(371,892,o),
(420,965,qs),
(504,1090,o),
(607,1087,qs),
(761,1082,o),
(927,948,o),
(927,826,qs),
(927,797,o),
(922,766,qs),
(900,628,o),
(838,549,qs),
(792,490,o),
(658,396,qs),
(573,337,o),
(449,275,qs),
(434,268,o),
(27,78,o),
(27,38,qs),
(27,2,o),
(83,2,qs)
);
}
);
userData = {
assembly = "NPUSHB[ ]	/* 17 values pushed */
1 42 42 64 43 0 32 26 34 23 12 0 38 10 1 12 70
SROUND[ ]	/* SuperRound */
MDAP[1]	/* MoveDirectAbsPt */
SHZ[1]	/* ShiftZoneByLastPoint */
RTG[ ]	/* RoundToGrid */
SVTCA[0]	/* SetFreedomAndProjectionVectorToAxis */
MDAP[1]	/* MoveDirectAbsPt */
MDAP[1]	/* MoveDirectAbsPt */
SVTCA[1]	/* SetFreedomAndProjectionVectorToAxis */
MDAP[0]	/* MoveDirectAbsPt */
MDAP[0]	/* MoveDirectAbsPt */
MDAP[0]	/* MoveDirectAbsPt */
MDAP[0]	/* MoveDirectAbsPt */
SVTCA[0]	/* SetFreedomAndProjectionVectorToAxis */
MDAP[0]	/* MoveDirectAbsPt */
MDAP[0]	/* MoveDirectAbsPt */
IUP[1]	/* InterpolateUntPts */
IUP[0]	/* InterpolateUntPts */
SVTCA[1]	/* SetFreedomAndProjectionVectorToAxis */
MD[0]	/* MeasureDistance */
ROUND[00]	/* Round */
PUSHW[ ]	/* 2 values pushed */
12 42
MD[0]	/* MeasureDistance */
ROUND[00]	/* Round */
SUB[ ]	/* Subtract */
PUSHB[ ]	/* 1 value pushed */
64
GT[ ]	/* GreaterThan */
IF[ ]	/* If */
SHPIX[ ]	/* ShiftZoneByPixel */
SRP1[ ]	/* SetRefPoint1 */
SHZ[1]	/* ShiftZoneByLastPoint */
PUSHW[ ]	/* 2 values pushed */
42 -64
SHPIX[ ]	/* ShiftZoneByPixel */
EIF[ ]	/* EndIf */";
};
width = 1238;
},
{
layerId = "3C10D975-8B50-4E95-9C62-C508D3823290";
shapes = (
{
closed = 1;
nodes = (
(125,-2,o),
(181,14,qs),
(339,58,o),
(523,149,qs),
(731,252,o),
(840,333,qs),
(1084,515,o),
(1084,791,qs),
(1084,974,o),
(965,1100,qs),
(836,1235,o),
(617,1243,qs),
(475,1248,o),
(333,1167,qs),
(167,1073,o),
(167,931,qs),
(167,864,o),
(202,826,qs),
(233,791,o),
(280,791,qs),
(358,791,o),
(396,874,q),
(416,936,o),
(421,946,qs),
(437,974,o),
(479,999,qs),
(539,1033,o),
(612,1033,qs),
(716,1033,o),
(792,972,qs),
(873,906,o),
(873,804,qs),
(873,668,o),
(721,484,o),
(497,356,qs),
(318,254,o),
(145,182,qs),
(0,121,o),
(9,50,qs),
(15,-2,o),
(86,-2,qs)
);
}
);
userData = {
assembly = "NPUSHB[ ]	/* 18 values pushed */
1 41 41 64 42 18 39 6 35 28 18 10 14 26 0 1 28 70
SROUND[ ]	/* SuperRound */
MDAP[1]	/* MoveDirectAbsPt */
SHZ[1]	/* ShiftZoneByLastPoint */
RTG[ ]	/* RoundToGrid */
SVTCA[0]	/* SetFreedomAndProjectionVectorToAxis */
MIAP[1]	/* MoveIndirectAbsPt */
MDAP[1]	/* MoveDirectAbsPt */
SVTCA[1]	/* SetFreedomAndProjectionVectorToAxis */
MDAP[0]	/* MoveDirectAbsPt */
MDAP[0]	/* MoveDirectAbsPt */
MDAP[0]	/* MoveDirectAbsPt */
MDAP[0]	/* MoveDirectAbsPt */
SVTCA[0]	/* SetFreedomAndProjectionVectorToAxis */
MDAP[0]	/* MoveDirectAbsPt */
MDAP[0]	/* MoveDirectAbsPt */
IUP[1]	/* InterpolateUntPts */
IUP[0]	/* InterpolateUntPts */
SVTCA[1]	/* SetFreedomAndProjectionVectorToAxis */
MD[0]	/* MeasureDistance */
ROUND[00]	/* Round */
PUSHW[ ]	/* 2 values pushed */
28 41
MD[0]	/* MeasureDistance */
ROUND[00]	/* Round */
SUB[ ]	/* Subtract */
PUSHB[ ]	/* 1 value pushed */
64
GT[ ]	/* GreaterThan */
IF[ ]	/* If */
SHPIX[ ]	/* ShiftZoneByPixel */
SRP1[ ]	/* SetRefPoint1 */
SHZ[1]	/* ShiftZoneByLastPoint */
PUSHW[ ]	/* 2 values pushed */
41 -64
SHPIX[ ]	/* ShiftZoneByPixel */
EIF[ ]	/* EndIf */";
};
width = 1184;
}
);
note = seven;
unicode = 55;
},
{
glyphname = eight;
lastChange = "2025-04-20 14:04:59 +0000";
layers = (
{
layerId = m01;
shapes = (
{
closed = 1;
nodes = (
(1120,0,o),
(1120,64,qs),
(1120,126,o),
(1036,126,qs),
(1021,126,o),
(979,122,qs),
(943,118,o),
(922,120,qs),
(515,151,o),
(376,444,qs),
(306,592,o),
(306,830,qs),
(306,872,o),
(308,904,q),
(1122,904,l),
(1122,1024,l),
(308,1024,l),
(308,1156,ls),
(308,1200,o),
(266,1200,qs),
(228,1200,o),
(164,1166,qs),
(87,1125,o),
(50,1042,qs),
(26,988,o),
(26,950,qs),
(26,904,o),
(68,904,qs),
(188,904,l),
(184,868,o),
(184,806,qs),
(184,580,o),
(252,420,qs),
(339,216,o),
(519,106,qs),
(693,0,o),
(920,0,qs)
);
}
);
userData = {
assembly = "NPUSHB[ ]	/* 33 values pushed */
1 37 37 64 38 0 11 36 35 34 26 23 21 13 3 0 24 23 1 3 0 4 36 35 7 4 15 32 15 0 1 26 70
SROUND[ ]	/* SuperRound */
MDAP[1]	/* MoveDirectAbsPt */
SHZ[1]	/* ShiftZoneByLastPoint */
RTG[ ]	/* RoundToGrid */
SVTCA[0]	/* SetFreedomAndProjectionVectorToAxis */
MIAP[1]	/* MoveIndirectAbsPt */
MDAP[1]	/* MoveDirectAbsPt */
SRP0[ ]	/* SetRefPoint0 */
MIRP[11101]	/* MoveIndirectRelPt */
MDAP[1]	/* MoveDirectAbsPt */
ALIGNRP[ ]	/* AlignRelativePt */
MIRP[11101]	/* MoveIndirectRelPt */
SLOOP[ ]	/* SetLoopVariable */
ALIGNRP[ ]	/* AlignRelativePt */
SVTCA[1]	/* SetFreedomAndProjectionVectorToAxis */
MDAP[0]	/* MoveDirectAbsPt */
MDAP[0]	/* MoveDirectAbsPt */
MDAP[0]	/* MoveDirectAbsPt */
MDAP[0]	/* MoveDirectAbsPt */
MDAP[0]	/* MoveDirectAbsPt */
MDAP[0]	/* MoveDirectAbsPt */
MDAP[0]	/* MoveDirectAbsPt */
MDAP[0]	/* MoveDirectAbsPt */
MDAP[0]	/* MoveDirectAbsPt */
SVTCA[0]	/* SetFreedomAndProjectionVectorToAxis */
MDAP[0]	/* MoveDirectAbsPt */
IUP[1]	/* InterpolateUntPts */
IUP[0]	/* InterpolateUntPts */
SVTCA[1]	/* SetFreedomAndProjectionVectorToAxis */
MD[0]	/* MeasureDistance */
ROUND[00]	/* Round */
PUSHW[ ]	/* 2 values pushed */
26 37
MD[0]	/* MeasureDistance */
ROUND[00]	/* Round */
SUB[ ]	/* Subtract */
PUSHB[ ]	/* 1 value pushed */
64
GT[ ]	/* GreaterThan */
IF[ ]	/* If */
SHPIX[ ]	/* ShiftZoneByPixel */
SRP1[ ]	/* SetRefPoint1 */
SHZ[1]	/* ShiftZoneByLastPoint */
PUSHW[ ]	/* 2 values pushed */
37 -64
SHPIX[ ]	/* ShiftZoneByPixel */
EIF[ ]	/* EndIf */";
};
width = 1286;
},
{
layerId = "EFA29B47-3DC8-4F8A-813A-13C07BF7C797";
shapes = (
{
closed = 1;
nodes = (
(1125,-5,o),
(1122,62,qs),
(1118,148,o),
(1034,155,q),
(949,154,o),
(864,152,q),
(731,162,o),
(670,189,qs),
(516,256,o),
(402,462,qs),
(326,599,o),
(326,796,qs),
(326,841,o),
(330,876,q),
(1122,876,l),
(1122,1030,l),
(358,1030,l),
(358,1146,ls),
(358,1205,o),
(291,1205,qs),
(183,1205,o),
(92,1118,qs),
(64,1091,o),
(19,987,o),
(19,944,qs),
(19,876,o),
(78,876,qs),
(180,876,l),
(176,835,o),
(176,782,qs),
(176,567,o),
(246,420,qs),
(448,-2,o),
(910,-2,qs),
(931,-2,o),
(1006,-5,o),
(1021,-5,qs)
);
}
);
userData = {
assembly = "NPUSHB[ ]	/* 31 values pushed */
1 37 37 64 38 0 11 9 36 35 34 27 24 22 13 3 0 25 24 1 3 0 4 36 35 32 15 0 1 27 70
SROUND[ ]	/* SuperRound */
MDAP[1]	/* MoveDirectAbsPt */
SHZ[1]	/* ShiftZoneByLastPoint */
RTG[ ]	/* RoundToGrid */
SVTCA[0]	/* SetFreedomAndProjectionVectorToAxis */
MIAP[1]	/* MoveIndirectAbsPt */
MDAP[1]	/* MoveDirectAbsPt */
MDAP[1]	/* MoveDirectAbsPt */
ALIGNRP[ ]	/* AlignRelativePt */
MIRP[11101]	/* MoveIndirectRelPt */
SLOOP[ ]	/* SetLoopVariable */
ALIGNRP[ ]	/* AlignRelativePt */
SVTCA[1]	/* SetFreedomAndProjectionVectorToAxis */
MDAP[0]	/* MoveDirectAbsPt */
MDAP[0]	/* MoveDirectAbsPt */
MDAP[0]	/* MoveDirectAbsPt */
MDAP[0]	/* MoveDirectAbsPt */
MDAP[0]	/* MoveDirectAbsPt */
MDAP[0]	/* MoveDirectAbsPt */
MDAP[0]	/* MoveDirectAbsPt */
MDAP[0]	/* MoveDirectAbsPt */
MDAP[0]	/* MoveDirectAbsPt */
SVTCA[0]	/* SetFreedomAndProjectionVectorToAxis */
MDAP[0]	/* MoveDirectAbsPt */
MDAP[0]	/* MoveDirectAbsPt */
IUP[1]	/* InterpolateUntPts */
IUP[0]	/* InterpolateUntPts */
SVTCA[1]	/* SetFreedomAndProjectionVectorToAxis */
MD[0]	/* MeasureDistance */
ROUND[00]	/* Round */
PUSHW[ ]	/* 2 values pushed */
27 37
MD[0]	/* MeasureDistance */
ROUND[00]	/* Round */
SUB[ ]	/* Subtract */
PUSHB[ ]	/* 1 value pushed */
64
GT[ ]	/* GreaterThan */
IF[ ]	/* If */
SHPIX[ ]	/* ShiftZoneByPixel */
SRP1[ ]	/* SetRefPoint1 */
SHZ[1]	/* ShiftZoneByLastPoint */
PUSHW[ ]	/* 2 values pushed */
37 -64
SHPIX[ ]	/* ShiftZoneByPixel */
EIF[ ]	/* EndIf */";
};
width = 1286;
},
{
layerId = "3C10D975-8B50-4E95-9C62-C508D3823290";
shapes = (
{
closed = 1;
nodes = (
(1128,0,o),
(1128,110,qs),
(1128,203,o),
(1035,214,q),
(945,216,o),
(899,213,q),
(618,234,o),
(494,394,qs),
(382,540,o),
(383,829,q),
(1130,829,l),
(1130,1042,l),
(385,1042,l),
(385,1111,ls),
(385,1203,o),
(295,1203,qs),
(191,1203,o),
(24,1027,o),
(24,923,qs),
(24,829,o),
(114,829,qs),
(170,829,l),
(169,811,o),
(169,791,qs),
(169,561,o),
(239,401,qs),
(322,214,o),
(486,110,qs),
(658,0,o),
(894,0,qs)
);
}
);
userData = {
assembly = "NPUSHB[ ]	/* 33 values pushed */
1 30 30 64 31 28 29 28 27 26 21 18 16 8 0 6 4 4 10 29 19 18 3 0 4 28 27 24 10 0 1 21 70
SROUND[ ]	/* SuperRound */
MDAP[1]	/* MoveDirectAbsPt */
SHZ[1]	/* ShiftZoneByLastPoint */
RTG[ ]	/* RoundToGrid */
SVTCA[0]	/* SetFreedomAndProjectionVectorToAxis */
MIAP[1]	/* MoveIndirectAbsPt */
MDAP[1]	/* MoveDirectAbsPt */
MDAP[1]	/* MoveDirectAbsPt */
ALIGNRP[ ]	/* AlignRelativePt */
MIRP[11101]	/* MoveIndirectRelPt */
SLOOP[ ]	/* SetLoopVariable */
ALIGNRP[ ]	/* AlignRelativePt */
SRP0[ ]	/* SetRefPoint0 */
MIRP[11101]	/* MoveIndirectRelPt */
ALIGNRP[ ]	/* AlignRelativePt */
SVTCA[1]	/* SetFreedomAndProjectionVectorToAxis */
MDAP[0]	/* MoveDirectAbsPt */
MDAP[0]	/* MoveDirectAbsPt */
MDAP[0]	/* MoveDirectAbsPt */
MDAP[0]	/* MoveDirectAbsPt */
MDAP[0]	/* MoveDirectAbsPt */
MDAP[0]	/* MoveDirectAbsPt */
MDAP[0]	/* MoveDirectAbsPt */
MDAP[0]	/* MoveDirectAbsPt */
MDAP[0]	/* MoveDirectAbsPt */
SVTCA[0]	/* SetFreedomAndProjectionVectorToAxis */
IUP[1]	/* InterpolateUntPts */
IUP[0]	/* InterpolateUntPts */
SVTCA[1]	/* SetFreedomAndProjectionVectorToAxis */
MD[0]	/* MeasureDistance */
ROUND[00]	/* Round */
PUSHW[ ]	/* 2 values pushed */
21 30
MD[0]	/* MeasureDistance */
ROUND[00]	/* Round */
SUB[ ]	/* Subtract */
PUSHB[ ]	/* 1 value pushed */
64
GT[ ]	/* GreaterThan */
IF[ ]	/* If */
SHPIX[ ]	/* ShiftZoneByPixel */
SRP1[ ]	/* SetRefPoint1 */
SHZ[1]	/* ShiftZoneByLastPoint */
PUSHW[ ]	/* 2 values pushed */
30 -64
SHPIX[ ]	/* ShiftZoneByPixel */
EIF[ ]	/* EndIf */";
};
width = 1239;
}
);
note = eight;
unicode = 56;
},
{
glyphname = nine;
lastChange = "2025-04-20 14:04:59 +0000";
layers = (
{
layerId = m01;
shapes = (
{
closed = 1;
nodes = (
(1120,0,o),
(1120,64,qs),
(1120,126,o),
(1036,126,qs),
(1021,126,o),
(979,122,qs),
(943,118,o),
(922,120,qs),
(520,149,o),
(376,444,qs),
(306,587,o),
(306,814,qs),
(306,862,o),
(308,898,q),
(816,898,ls),
(891,898,o),
(922,894,q),
(1063,894,o),
(1060,944,qs),
(1057,990,o),
(1004,1014,qs),
(931,1048,o),
(908,1076,qs),
(826,1177,o),
(826,1256,qs),
(826,1313,o),
(871,1351,qs),
(914,1386,o),
(972,1386,qs),
(998,1386,o),
(1101,1366,o),
(1126,1366,qs),
(1153,1366,o),
(1153,1385,qs),
(1153,1412,o),
(1092,1438,qs),
(1021,1469,o),
(968,1468,qs),
(844,1467,o),
(776,1406,qs),
(702,1340,o),
(710,1218,qs),
(714,1159,o),
(754,1092,qs),
(765,1074,o),
(810,1018,q),
(308,1018,l),
(308,1156,ls),
(308,1198,o),
(268,1198,qs),
(230,1198,o),
(164,1164,qs),
(110,1136,o),
(88,1115,qs),
(62,1090,o),
(20,985,o),
(20,948,qs),
(20,898,o),
(64,898,qs),
(188,898,l),
(184,852,o),
(184,792,qs),
(184,572,o),
(250,420,qs),
(339,214,o),
(518,105,qs),
(691,0,o),
(920,0,qs)
);
}
);
userData = {
assembly = "NPUSHB[ ]	/* 44 values pushed */
1 68 68 64 69 48 65 50 10 63 48 36 35 34 25 22 20 12 2 40 2 57 53 5 44 6 4 14 67 23 22 3 0 4 36 35 44 32 1 14 0 1 25 70
SROUND[ ]	/* SuperRound */
MDAP[1]	/* MoveDirectAbsPt */
SHZ[1]	/* ShiftZoneByLastPoint */
RTG[ ]	/* RoundToGrid */
SVTCA[0]	/* SetFreedomAndProjectionVectorToAxis */
MIAP[1]	/* MoveIndirectAbsPt */
MIAP[1]	/* MoveIndirectAbsPt */
MDAP[1]	/* MoveDirectAbsPt */
MDAP[1]	/* MoveDirectAbsPt */
ALIGNRP[ ]	/* AlignRelativePt */
MIRP[11101]	/* MoveIndirectRelPt */
SLOOP[ ]	/* SetLoopVariable */
ALIGNRP[ ]	/* AlignRelativePt */
SRP0[ ]	/* SetRefPoint0 */
MIRP[11101]	/* MoveIndirectRelPt */
SRP0[ ]	/* SetRefPoint0 */
MIRP[11101]	/* MoveIndirectRelPt */
SVTCA[1]	/* SetFreedomAndProjectionVectorToAxis */
MDAP[1]	/* MoveDirectAbsPt */
MIRP[11101]	/* MoveIndirectRelPt */
MDAP[0]	/* MoveDirectAbsPt */
MDAP[0]	/* MoveDirectAbsPt */
MDAP[0]	/* MoveDirectAbsPt */
MDAP[0]	/* MoveDirectAbsPt */
MDAP[0]	/* MoveDirectAbsPt */
MDAP[0]	/* MoveDirectAbsPt */
MDAP[0]	/* MoveDirectAbsPt */
MDAP[0]	/* MoveDirectAbsPt */
MDAP[0]	/* MoveDirectAbsPt */
MDAP[0]	/* MoveDirectAbsPt */
SVTCA[0]	/* SetFreedomAndProjectionVectorToAxis */
MDAP[0]	/* MoveDirectAbsPt */
MDAP[0]	/* MoveDirectAbsPt */
MDAP[0]	/* MoveDirectAbsPt */
IUP[1]	/* InterpolateUntPts */
IUP[0]	/* InterpolateUntPts */
SVTCA[1]	/* SetFreedomAndProjectionVectorToAxis */
MD[0]	/* MeasureDistance */
ROUND[00]	/* Round */
PUSHW[ ]	/* 2 values pushed */
25 68
MD[0]	/* MeasureDistance */
ROUND[00]	/* Round */
SUB[ ]	/* Subtract */
PUSHB[ ]	/* 1 value pushed */
64
GT[ ]	/* GreaterThan */
IF[ ]	/* If */
SHPIX[ ]	/* ShiftZoneByPixel */
SRP1[ ]	/* SetRefPoint1 */
SHZ[1]	/* ShiftZoneByLastPoint */
PUSHW[ ]	/* 2 values pushed */
68 -64
SHPIX[ ]	/* ShiftZoneByPixel */
EIF[ ]	/* EndIf */";
};
width = 1272;
},
{
layerId = "EFA29B47-3DC8-4F8A-813A-13C07BF7C797";
shapes = (
{
closed = 1;
nodes = (
(1130,-5,o),
(1130,62,qs),
(1130,118,o),
(1104,138,qs),
(1082,154,o),
(1029,154,qs),
(1022,154,o),
(959,152,qs),
(909,150,o),
(872,152,qs),
(746,158,o),
(679,188,qs),
(525,256,o),
(410,462,qs),
(334,598,o),
(334,795,qs),
(334,841,o),
(338,876,q),
(1010,876,ls),
(1018,876,o),
(1057,874,o),
(1067,874,qs),
(1126,874,o),
(1126,912,qs),
(1126,926,o),
(1113,964,o),
(1034,992,qs),
(947,1023,o),
(918,1062,qs),
(867,1131,o),
(856,1149,qs),
(828,1199,o),
(828,1253,qs),
(828,1267,o),
(830,1282,qs),
(840,1367,o),
(984,1407,qs),
(1044,1424,o),
(1126,1430,q),
(1144,1439,o),
(1144,1449,qs),
(1144,1468,o),
(1048,1498,o),
(984,1498,qs),
(865,1498,o),
(786,1447,qs),
(687,1382,o),
(684,1250,qs),
(681,1113,o),
(782,1030,q),
(366,1030,l),
(366,1146,ls),
(366,1205,o),
(298,1205,qs),
(190,1205,o),
(100,1118,qs),
(72,1091,o),
(50,1040,qs),
(27,986,o),
(27,944,qs),
(27,876,o),
(86,876,qs),
(188,876,l),
(184,838,o),
(184,789,qs),
(184,570,o),
(256,420,qs),
(458,-2,o),
(918,-2,qs),
(940,-2,o),
(1014,-5,o),
(1029,-5,qs)
);
}
);
userData = {
assembly = "NPUSHB[ ]	/* 41 values pushed */
1 72 72 64 73 50 37 67 58 50 41 40 39 31 28 26 17 3 56 2 43 69 29 28 1 4 0 4 41 40 13 11 9 4 22 47 19 0 1 31 70
SROUND[ ]	/* SuperRound */
MDAP[1]	/* MoveDirectAbsPt */
SHZ[1]	/* ShiftZoneByLastPoint */
RTG[ ]	/* RoundToGrid */
SVTCA[0]	/* SetFreedomAndProjectionVectorToAxis */
MIAP[1]	/* MoveIndirectAbsPt */
MDAP[1]	/* MoveDirectAbsPt */
MDAP[1]	/* MoveDirectAbsPt */
MIRP[11101]	/* MoveIndirectRelPt */
ALIGNRP[ ]	/* AlignRelativePt */
ALIGNRP[ ]	/* AlignRelativePt */
MDAP[1]	/* MoveDirectAbsPt */
ALIGNRP[ ]	/* AlignRelativePt */
MIRP[11101]	/* MoveIndirectRelPt */
SLOOP[ ]	/* SetLoopVariable */
ALIGNRP[ ]	/* AlignRelativePt */
SVTCA[1]	/* SetFreedomAndProjectionVectorToAxis */
MDAP[1]	/* MoveDirectAbsPt */
MIRP[11101]	/* MoveIndirectRelPt */
MDAP[0]	/* MoveDirectAbsPt */
MDAP[0]	/* MoveDirectAbsPt */
MDAP[0]	/* MoveDirectAbsPt */
MDAP[0]	/* MoveDirectAbsPt */
MDAP[0]	/* MoveDirectAbsPt */
MDAP[0]	/* MoveDirectAbsPt */
MDAP[0]	/* MoveDirectAbsPt */
MDAP[0]	/* MoveDirectAbsPt */
MDAP[0]	/* MoveDirectAbsPt */
MDAP[0]	/* MoveDirectAbsPt */
MDAP[0]	/* MoveDirectAbsPt */
SVTCA[0]	/* SetFreedomAndProjectionVectorToAxis */
MDAP[0]	/* MoveDirectAbsPt */
IUP[1]	/* InterpolateUntPts */
IUP[0]	/* InterpolateUntPts */
SVTCA[1]	/* SetFreedomAndProjectionVectorToAxis */
MD[0]	/* MeasureDistance */
ROUND[00]	/* Round */
PUSHW[ ]	/* 2 values pushed */
31 72
MD[0]	/* MeasureDistance */
ROUND[00]	/* Round */
SUB[ ]	/* Subtract */
PUSHB[ ]	/* 1 value pushed */
64
GT[ ]	/* GreaterThan */
IF[ ]	/* If */
SHPIX[ ]	/* ShiftZoneByPixel */
SRP1[ ]	/* SetRefPoint1 */
SHZ[1]	/* ShiftZoneByLastPoint */
PUSHW[ ]	/* 2 values pushed */
72 -64
SHPIX[ ]	/* ShiftZoneByPixel */
EIF[ ]	/* EndIf */";
};
width = 1272;
},
{
layerId = "3C10D975-8B50-4E95-9C62-C508D3823290";
shapes = (
{
closed = 1;
nodes = (
(1017,0,o),
(1068,27,qs),
(1127,57,o),
(1127,121,qs),
(1127,131,o),
(1126,142,qs),
(1116,211,o),
(991,211,qs),
(881,211,o),
(900,210,qs),
(741,221,o),
(622,288,qs),
(381,424,o),
(383,827,q),
(896,826,ls),
(1031,826,o),
(1067,885,qs),
(1076,900,o),
(1076,917,qs),
(1076,953,o),
(993,1028,qs),
(914,1100,o),
(908,1105,q),
(865,1155,o),
(865,1208,qs),
(865,1277,o),
(942,1277,qs),
(966,1277,o),
(1059,1258,o),
(1083,1258,qs),
(1168,1258,o),
(1159,1328,qs),
(1151,1389,o),
(993,1458,o),
(913,1458,qs),
(796,1458,o),
(721,1389,qs),
(644,1317,o),
(644,1206,qs),
(644,1122,o),
(692,1041,q),
(385,1041,l),
(385,1116,ls),
(385,1206,o),
(297,1206,qs),
(250,1206,o),
(178,1169,qs),
(19,1086,o),
(19,925,qs),
(19,827,o),
(110,827,qs),
(170,827,l),
(169,805,o),
(169,781,qs),
(169,551,o),
(242,392,qs),
(327,206,o),
(504,100,qs),
(670,0,o),
(894,0,qs)
);
}
);
userData = {
assembly = "NPUSHB[ ]	/* 41 values pushed */
1 60 60 64 61 28 30 15 56 46 41 35 28 21 19 18 17 11 8 6 33 5 25 52 50 4 0 46 9 8 3 45 4 19 18 25 0 0 1 11 70
SROUND[ ]	/* SuperRound */
MDAP[1]	/* MoveDirectAbsPt */
SHZ[1]	/* ShiftZoneByLastPoint */
RTG[ ]	/* RoundToGrid */
SVTCA[0]	/* SetFreedomAndProjectionVectorToAxis */
MIAP[1]	/* MoveIndirectAbsPt */
MDAP[1]	/* MoveDirectAbsPt */
MDAP[1]	/* MoveDirectAbsPt */
ALIGNRP[ ]	/* AlignRelativePt */
MIRP[11101]	/* MoveIndirectRelPt */
SLOOP[ ]	/* SetLoopVariable */
ALIGNRP[ ]	/* AlignRelativePt */
SRP0[ ]	/* SetRefPoint0 */
MIRP[11101]	/* MoveIndirectRelPt */
ALIGNRP[ ]	/* AlignRelativePt */
SRP0[ ]	/* SetRefPoint0 */
MIRP[11101]	/* MoveIndirectRelPt */
SVTCA[1]	/* SetFreedomAndProjectionVectorToAxis */
MDAP[0]	/* MoveDirectAbsPt */
MDAP[0]	/* MoveDirectAbsPt */
MDAP[0]	/* MoveDirectAbsPt */
MDAP[0]	/* MoveDirectAbsPt */
MDAP[0]	/* MoveDirectAbsPt */
MDAP[0]	/* MoveDirectAbsPt */
MDAP[0]	/* MoveDirectAbsPt */
MDAP[0]	/* MoveDirectAbsPt */
MDAP[0]	/* MoveDirectAbsPt */
MDAP[0]	/* MoveDirectAbsPt */
MDAP[0]	/* MoveDirectAbsPt */
MDAP[0]	/* MoveDirectAbsPt */
SVTCA[0]	/* SetFreedomAndProjectionVectorToAxis */
MDAP[0]	/* MoveDirectAbsPt */
MDAP[0]	/* MoveDirectAbsPt */
IUP[1]	/* InterpolateUntPts */
IUP[0]	/* InterpolateUntPts */
SVTCA[1]	/* SetFreedomAndProjectionVectorToAxis */
MD[0]	/* MeasureDistance */
ROUND[00]	/* Round */
PUSHW[ ]	/* 2 values pushed */
11 60
MD[0]	/* MeasureDistance */
ROUND[00]	/* Round */
SUB[ ]	/* Subtract */
PUSHB[ ]	/* 1 value pushed */
64
GT[ ]	/* GreaterThan */
IF[ ]	/* If */
SHPIX[ ]	/* ShiftZoneByPixel */
SRP1[ ]	/* SetRefPoint1 */
SHZ[1]	/* ShiftZoneByLastPoint */
PUSHW[ ]	/* 2 values pushed */
60 -64
SHPIX[ ]	/* ShiftZoneByPixel */
EIF[ ]	/* EndIf */";
};
width = 1226;
}
);
note = nine;
unicode = 57;
},
{
glyphname = colon;
lastChange = "2025-04-20 14:04:59 +0000";
layers = (
{
layerId = m01;
shapes = (
{
closed = 1;
nodes = (
(487,838,o),
(552,905,o),
(552,952,qs),
(552,998,o),
(486,1064,o),
(440,1064,qs),
(393,1064,o),
(326,999,o),
(326,952,qs),
(326,904,o),
(392,838,o),
(440,838,qs)
);
},
{
closed = 1;
nodes = (
(487,-2,o),
(552,65,o),
(552,112,qs),
(552,158,o),
(486,224,o),
(440,224,qs),
(393,224,o),
(326,159,o),
(326,112,qs),
(326,64,o),
(392,-2,o),
(440,-2,qs)
);
}
);
userData = {
assembly = "NPUSHB[ ]	/* 23 values pushed */
1 24 24 64 25 6 18 6 2 12 0 9 4 3 15 4 21 3 21 0 1 0 70
SROUND[ ]	/* SuperRound */
MDAP[1]	/* MoveDirectAbsPt */
SHZ[1]	/* ShiftZoneByLastPoint */
RTG[ ]	/* RoundToGrid */
SVTCA[0]	/* SetFreedomAndProjectionVectorToAxis */
MIAP[1]	/* MoveIndirectAbsPt */
MDAP[1]	/* MoveDirectAbsPt */
SRP0[ ]	/* SetRefPoint0 */
MIRP[11101]	/* MoveIndirectRelPt */
SRP0[ ]	/* SetRefPoint0 */
MIRP[11101]	/* MoveIndirectRelPt */
SVTCA[1]	/* SetFreedomAndProjectionVectorToAxis */
MDAP[1]	/* MoveDirectAbsPt */
ALIGNRP[ ]	/* AlignRelativePt */
MIRP[11101]	/* MoveIndirectRelPt */
ALIGNRP[ ]	/* AlignRelativePt */
SVTCA[0]	/* SetFreedomAndProjectionVectorToAxis */
IUP[1]	/* InterpolateUntPts */
IUP[0]	/* InterpolateUntPts */
SVTCA[1]	/* SetFreedomAndProjectionVectorToAxis */
MD[0]	/* MeasureDistance */
ROUND[00]	/* Round */
PUSHW[ ]	/* 2 values pushed */
0 24
MD[0]	/* MeasureDistance */
ROUND[00]	/* Round */
SUB[ ]	/* Subtract */
PUSHB[ ]	/* 1 value pushed */
64
GT[ ]	/* GreaterThan */
IF[ ]	/* If */
SHPIX[ ]	/* ShiftZoneByPixel */
SRP1[ ]	/* SetRefPoint1 */
SHZ[1]	/* ShiftZoneByLastPoint */
PUSHW[ ]	/* 2 values pushed */
24 -64
SHPIX[ ]	/* ShiftZoneByPixel */
EIF[ ]	/* EndIf */";
};
width = 800;
},
{
layerId = "EFA29B47-3DC8-4F8A-813A-13C07BF7C797";
shapes = (
{
closed = 1;
nodes = (
(500,-26,o),
(539,5,qs),
(586,42,o),
(586,100,qs),
(586,154,o),
(509,232,o),
(456,232,qs),
(403,232,o),
(328,155,o),
(328,100,qs),
(328,40,o),
(373,4,qs),
(411,-26,o),
(456,-26,qs)
);
},
{
closed = 1;
nodes = (
(500,808,o),
(539,838,qs),
(586,874,o),
(586,932,qs),
(586,986,o),
(509,1064,o),
(456,1064,qs),
(403,1064,o),
(328,987,o),
(328,932,qs),
(328,872,o),
(373,837,qs),
(411,808,o),
(456,808,qs)
);
}
);
userData = {
assembly = "NPUSHB[ ]	/* 23 values pushed */
1 28 28 64 29 3 25 11 2 17 3 7 4 0 14 4 21 0 21 0 1 11 70
SROUND[ ]	/* SuperRound */
MDAP[1]	/* MoveDirectAbsPt */
SHZ[1]	/* ShiftZoneByLastPoint */
RTG[ ]	/* RoundToGrid */
SVTCA[0]	/* SetFreedomAndProjectionVectorToAxis */
MIAP[1]	/* MoveIndirectAbsPt */
MDAP[1]	/* MoveDirectAbsPt */
SRP0[ ]	/* SetRefPoint0 */
MIRP[11101]	/* MoveIndirectRelPt */
SRP0[ ]	/* SetRefPoint0 */
MIRP[11101]	/* MoveIndirectRelPt */
SVTCA[1]	/* SetFreedomAndProjectionVectorToAxis */
MDAP[1]	/* MoveDirectAbsPt */
ALIGNRP[ ]	/* AlignRelativePt */
MIRP[11101]	/* MoveIndirectRelPt */
ALIGNRP[ ]	/* AlignRelativePt */
SVTCA[0]	/* SetFreedomAndProjectionVectorToAxis */
IUP[1]	/* InterpolateUntPts */
IUP[0]	/* InterpolateUntPts */
SVTCA[1]	/* SetFreedomAndProjectionVectorToAxis */
MD[0]	/* MeasureDistance */
ROUND[00]	/* Round */
PUSHW[ ]	/* 2 values pushed */
11 28
MD[0]	/* MeasureDistance */
ROUND[00]	/* Round */
SUB[ ]	/* Subtract */
PUSHB[ ]	/* 1 value pushed */
64
GT[ ]	/* GreaterThan */
IF[ ]	/* If */
SHPIX[ ]	/* ShiftZoneByPixel */
SRP1[ ]	/* SetRefPoint1 */
SHZ[1]	/* ShiftZoneByLastPoint */
PUSHW[ ]	/* 2 values pushed */
28 -64
SHPIX[ ]	/* ShiftZoneByPixel */
EIF[ ]	/* EndIf */";
};
width = 800;
},
{
layerId = "3C10D975-8B50-4E95-9C62-C508D3823290";
shapes = (
{
closed = 1;
nodes = (
(504,673,o),
(591,760,o),
(591,821,qs),
(591,882,o),
(504,969,o),
(443,969,qs),
(382,969,o),
(295,882,o),
(295,821,qs),
(295,760,o),
(382,673,o),
(443,673,qs)
);
},
{
closed = 1;
nodes = (
(509,46,o),
(596,133,o),
(596,194,qs),
(596,255,o),
(509,342,o),
(448,342,qs),
(387,342,o),
(300,255,o),
(300,194,qs),
(300,133,o),
(387,46,o),
(448,46,qs)
);
}
);
userData = {
assembly = "NPUSHB[ ]	/* 22 values pushed */
1 24 24 64 25 18 6 0 12 2 18 9 4 3 15 4 21 3 21 1 0 70
SROUND[ ]	/* SuperRound */
MDAP[1]	/* MoveDirectAbsPt */
SHZ[1]	/* ShiftZoneByLastPoint */
RTG[ ]	/* RoundToGrid */
SVTCA[0]	/* SetFreedomAndProjectionVectorToAxis */
MDAP[1]	/* MoveDirectAbsPt */
MDAP[1]	/* MoveDirectAbsPt */
SRP0[ ]	/* SetRefPoint0 */
MIRP[11101]	/* MoveIndirectRelPt */
SRP0[ ]	/* SetRefPoint0 */
MIRP[11101]	/* MoveIndirectRelPt */
SVTCA[1]	/* SetFreedomAndProjectionVectorToAxis */
MDAP[1]	/* MoveDirectAbsPt */
MIRP[11101]	/* MoveIndirectRelPt */
MDAP[0]	/* MoveDirectAbsPt */
MDAP[0]	/* MoveDirectAbsPt */
SVTCA[0]	/* SetFreedomAndProjectionVectorToAxis */
IUP[1]	/* InterpolateUntPts */
IUP[0]	/* InterpolateUntPts */
SVTCA[1]	/* SetFreedomAndProjectionVectorToAxis */
MD[0]	/* MeasureDistance */
ROUND[00]	/* Round */
PUSHW[ ]	/* 2 values pushed */
0 24
MD[0]	/* MeasureDistance */
ROUND[00]	/* Round */
SUB[ ]	/* Subtract */
PUSHB[ ]	/* 1 value pushed */
64
GT[ ]	/* GreaterThan */
IF[ ]	/* If */
SHPIX[ ]	/* ShiftZoneByPixel */
SRP1[ ]	/* SetRefPoint1 */
SHZ[1]	/* ShiftZoneByLastPoint */
PUSHW[ ]	/* 2 values pushed */
24 -64
SHPIX[ ]	/* ShiftZoneByPixel */
EIF[ ]	/* EndIf */";
};
width = 800;
}
);
note = colon;
unicode = 58;
},
{
glyphname = semicolon;
lastChange = "2025-04-20 14:04:59 +0000";
layers = (
{
layerId = m01;
shapes = (
{
closed = 1;
nodes = (
(293,-284,o),
(374,-198,qs),
(472,-95,o),
(472,4,qs),
(472,122,o),
(396,176,qs),
(346,212,o),
(280,212,qs),
(223,212,o),
(186,184,qs),
(145,151,o),
(150,96,qs),
(155,45,o),
(202,30,qs),
(224,23,o),
(298,22,qs),
(353,21,o),
(370,2,q),
(366,-40,o),
(364,-60,qs),
(360,-100,o),
(340,-136,qs),
(297,-215,o),
(192,-280,q),
(210,-322,l)
);
},
{
closed = 1;
nodes = (
(387,838,o),
(452,905,o),
(452,952,qs),
(452,998,o),
(386,1064,o),
(340,1064,qs),
(293,1064,o),
(226,999,o),
(226,952,qs),
(226,904,o),
(292,838,o),
(340,838,qs)
);
}
);
userData = {
assembly = "NPUSHB[ ]	/* 25 values pushed */
1 37 37 64 38 0 11 5 0 2 17 25 2 31 34 4 28 21 4 13 28 4 1 17 70
SROUND[ ]	/* SuperRound */
MDAP[1]	/* MoveDirectAbsPt */
SHZ[1]	/* ShiftZoneByLastPoint */
RTG[ ]	/* RoundToGrid */
SVTCA[0]	/* SetFreedomAndProjectionVectorToAxis */
MDAP[1]	/* MoveDirectAbsPt */
MDAP[1]	/* MoveDirectAbsPt */
MDAP[1]	/* MoveDirectAbsPt */
MIRP[11101]	/* MoveIndirectRelPt */
SRP0[ ]	/* SetRefPoint0 */
MIRP[11101]	/* MoveIndirectRelPt */
SVTCA[1]	/* SetFreedomAndProjectionVectorToAxis */
MDAP[1]	/* MoveDirectAbsPt */
MIRP[11101]	/* MoveIndirectRelPt */
MDAP[1]	/* MoveDirectAbsPt */
MIRP[11101]	/* MoveIndirectRelPt */
MDAP[0]	/* MoveDirectAbsPt */
MDAP[0]	/* MoveDirectAbsPt */
SVTCA[0]	/* SetFreedomAndProjectionVectorToAxis */
IUP[1]	/* InterpolateUntPts */
IUP[0]	/* InterpolateUntPts */
SVTCA[1]	/* SetFreedomAndProjectionVectorToAxis */
MD[0]	/* MeasureDistance */
ROUND[00]	/* Round */
PUSHW[ ]	/* 2 values pushed */
17 37
MD[0]	/* MeasureDistance */
ROUND[00]	/* Round */
SUB[ ]	/* Subtract */
PUSHB[ ]	/* 1 value pushed */
64
GT[ ]	/* GreaterThan */
IF[ ]	/* If */
SHPIX[ ]	/* ShiftZoneByPixel */
SRP1[ ]	/* SetRefPoint1 */
SHZ[1]	/* ShiftZoneByLastPoint */
PUSHW[ ]	/* 2 values pushed */
37 -64
SHPIX[ ]	/* ShiftZoneByPixel */
EIF[ ]	/* EndIf */";
};
width = 700;
},
{
layerId = "EFA29B47-3DC8-4F8A-813A-13C07BF7C797";
shapes = (
{
closed = 1;
nodes = (
(273,-304,o),
(358,-210,qs),
(462,-95,o),
(462,14,qs),
(462,139,o),
(388,197,qs),
(338,236,o),
(274,236,qs),
(221,236,o),
(182,207,qs),
(135,170,o),
(140,102,qs),
(144,47,o),
(201,22,qs),
(236,6,o),
(302,1,qs),
(352,-4,o),
(348,-10,q),
(358,-16,o),
(358,-36,qs),
(358,-84,o),
(316,-151,qs),
(265,-230,o),
(182,-284,q),
(202,-328,l)
);
},
{
closed = 1;
nodes = (
(370,808,o),
(409,838,qs),
(456,874,o),
(456,932,qs),
(456,986,o),
(379,1064,o),
(326,1064,qs),
(273,1064,o),
(198,987,o),
(198,932,qs),
(198,872,o),
(243,837,qs),
(281,808,o),
(326,808,qs)
);
}
);
userData = {
assembly = "NPUSHB[ ]	/* 22 values pushed */
1 39 39 64 40 18 14 35 27 23 18 11 2 3 7 4 0 0 22 1 35 70
SROUND[ ]	/* SuperRound */
MDAP[1]	/* MoveDirectAbsPt */
SHZ[1]	/* ShiftZoneByLastPoint */
RTG[ ]	/* RoundToGrid */
SVTCA[0]	/* SetFreedomAndProjectionVectorToAxis */
MDAP[1]	/* MoveDirectAbsPt */
MDAP[1]	/* MoveDirectAbsPt */
SRP0[ ]	/* SetRefPoint0 */
MIRP[11101]	/* MoveIndirectRelPt */
SVTCA[1]	/* SetFreedomAndProjectionVectorToAxis */
MDAP[1]	/* MoveDirectAbsPt */
MIRP[11101]	/* MoveIndirectRelPt */
MDAP[0]	/* MoveDirectAbsPt */
MDAP[0]	/* MoveDirectAbsPt */
MDAP[0]	/* MoveDirectAbsPt */
MDAP[0]	/* MoveDirectAbsPt */
SVTCA[0]	/* SetFreedomAndProjectionVectorToAxis */
MDAP[0]	/* MoveDirectAbsPt */
IUP[1]	/* InterpolateUntPts */
IUP[0]	/* InterpolateUntPts */
SVTCA[1]	/* SetFreedomAndProjectionVectorToAxis */
MD[0]	/* MeasureDistance */
ROUND[00]	/* Round */
PUSHW[ ]	/* 2 values pushed */
35 39
MD[0]	/* MeasureDistance */
ROUND[00]	/* Round */
SUB[ ]	/* Subtract */
PUSHB[ ]	/* 1 value pushed */
64
GT[ ]	/* GreaterThan */
IF[ ]	/* If */
SHPIX[ ]	/* ShiftZoneByPixel */
SRP1[ ]	/* SetRefPoint1 */
SHZ[1]	/* ShiftZoneByLastPoint */
PUSHW[ ]	/* 2 values pushed */
39 -64
SHPIX[ ]	/* ShiftZoneByPixel */
EIF[ ]	/* EndIf */";
};
width = 700;
},
{
layerId = "3C10D975-8B50-4E95-9C62-C508D3823290";
shapes = (
{
closed = 1;
nodes = (
(318,-317,o),
(404,-226,qs),
(511,-113,o),
(513,4,qs),
(515,106,o),
(452,186,qs),
(384,272,o),
(281,272,qs),
(185,272,o),
(128,226,qs),
(77,185,o),
(77,125,qs),
(77,28,o),
(191,-8,qs),
(205,-13,o),
(222,-13,qs),
(238,-13,o),
(326,12,q),
(325,-28,o),
(325,-56,q),
(318,-124,o),
(264,-196,qs),
(216,-262,o),
(156,-299,q),
(190,-376,l)
);
},
{
closed = 1;
nodes = (
(386,673,o),
(473,760,o),
(473,821,qs),
(473,882,o),
(386,969,o),
(325,969,qs),
(264,969,o),
(177,882,o),
(177,821,qs),
(177,760,o),
(264,673,o),
(325,673,qs)
);
}
);
userData = {
assembly = "NPUSHB[ ]	/* 28 values pushed */
1 37 37 64 38 35 21 21 15 35 2 27 0 2 6 9 4 3 31 4 23 3 14 23 0 1 27 70
SROUND[ ]	/* SuperRound */
MDAP[1]	/* MoveDirectAbsPt */
SHZ[1]	/* ShiftZoneByLastPoint */
RTG[ ]	/* RoundToGrid */
SVTCA[0]	/* SetFreedomAndProjectionVectorToAxis */
MIAP[1]	/* MoveIndirectAbsPt */
MDAP[1]	/* MoveDirectAbsPt */
MDAP[1]	/* MoveDirectAbsPt */
SRP0[ ]	/* SetRefPoint0 */
MIRP[11101]	/* MoveIndirectRelPt */
SRP0[ ]	/* SetRefPoint0 */
MIRP[11101]	/* MoveIndirectRelPt */
SVTCA[1]	/* SetFreedomAndProjectionVectorToAxis */
MDAP[1]	/* MoveDirectAbsPt */
MIRP[11101]	/* MoveIndirectRelPt */
MDAP[1]	/* MoveDirectAbsPt */
MIRP[11101]	/* MoveIndirectRelPt */
MDAP[0]	/* MoveDirectAbsPt */
MDAP[0]	/* MoveDirectAbsPt */
SVTCA[0]	/* SetFreedomAndProjectionVectorToAxis */
MDAP[0]	/* MoveDirectAbsPt */
IUP[1]	/* InterpolateUntPts */
IUP[0]	/* InterpolateUntPts */
SVTCA[1]	/* SetFreedomAndProjectionVectorToAxis */
MD[0]	/* MeasureDistance */
ROUND[00]	/* Round */
PUSHW[ ]	/* 2 values pushed */
27 37
MD[0]	/* MeasureDistance */
ROUND[00]	/* Round */
SUB[ ]	/* Subtract */
PUSHB[ ]	/* 1 value pushed */
64
GT[ ]	/* GreaterThan */
IF[ ]	/* If */
SHPIX[ ]	/* ShiftZoneByPixel */
SRP1[ ]	/* SetRefPoint1 */
SHZ[1]	/* ShiftZoneByLastPoint */
PUSHW[ ]	/* 2 values pushed */
37 -64
SHPIX[ ]	/* ShiftZoneByPixel */
EIF[ ]	/* EndIf */";
};
width = 700;
}
);
note = semicolon;
unicode = 59;
},
{
glyphname = less;
lastChange = "2025-04-20 14:04:59 +0000";
layers = (
{
layerId = m01;
shapes = (
{
closed = 1;
nodes = (
(1743,0,o),
(1834,100,qs),
(1911,184,o),
(1912,312,qs),
(1913,510,o),
(1674,640,q),
(1810,714,o),
(1884,822,qs),
(1944,910,o),
(1998,1076,q),
(2074,1076,l),
(2074,1198,l),
(1074,1198,l),
(1095,1331,o),
(1194,1448,qs),
(1320,1598,o),
(1498,1598,qs),
(1558,1598,o),
(1632,1576,qs),
(1801,1526,o),
(1994,1388,qs),
(2096,1311,o),
(2138,1276,qs),
(2149,1267,o),
(2152,1264,q),
(2154,1418,l),
(2144,1424,o),
(2138,1430,q),
(2019,1519,o),
(2014,1522,qs),
(1812,1652,o),
(1666,1694,qs),
(1583,1718,o),
(1498,1718,qs),
(1280,1718,o),
(966,1417,o),
(954,1198,q),
(866,1198,l),
(866,1076,l),
(954,1076,l),
(952,857,o),
(964,722,qs),
(992,412,o),
(1121,226,qs),
(1279,0,o),
(1568,0,qs)
);
},
{
closed = 1;
nodes = (
(872,-104,o),
(872,-92,qs),
(872,-87,o),
(868,-80,qs),
(796,52,l),
(736,198,o),
(736,386,qs),
(736,395,o),
(758,646,qs),
(767,803,o),
(768,868,qs),
(769,893,o),
(769,917,qs),
(769,1077,o),
(708,1156,qs),
(625,1264,o),
(412,1270,qs),
(22,1282,o),
(22,938,qs),
(22,802,o),
(120,714,qs),
(215,631,o),
(353,631,qs),
(498,631,o),
(632,722,q),
(604,522,o),
(604,404,qs),
(604,365,o),
(608,330,qs),
(642,29,o),
(786,-78,qs),
(821,-104,o),
(856,-104,qs)
);
},
{
closed = 1;
nodes = (
(268,748,o),
(209,798,qs),
(147,851,o),
(144,946,qs),
(139,1150,o),
(392,1150,qs),
(645,1150,o),
(642,948,qs),
(641,846,o),
(528,790,qs),
(444,748,o),
(364,748,qs)
);
},
{
closed = 1;
nodes = (
(1334,114,o),
(1198,340,qs),
(1143,432,o),
(1108,564,q),
(1428,564,o),
(1500,574,qs),
(1510,575,o),
(1521,575,qs),
(1598,575,o),
(1686,498,qs),
(1784,411,o),
(1790,326,qs),
(1797,225,o),
(1726,172,qs),
(1660,122,o),
(1560,120,qs)
);
},
{
closed = 1;
nodes = (
(1074,836,o),
(1074,1076,q),
(1878,1076,l),
(1818,914,o),
(1746,828,qs),
(1684,754,o),
(1554,708,qs),
(1493,686,o),
(1306,684,qs),
(1090,684,l)
);
}
);
userData = {
assembly = "NPUSHB[ ]	/* 61 values pushed */
1 117 117 64 118 45 115 95 94 85 79 71 65 63 8 0 111 103 92 91 87 83 75 69 63 61 53 48 45 33 32 21 19 14 13 12 92 91 32 31 15 5 14 4 12 107 4 25 37 55 25 0 34 33 13 3 12 1 1 69 70
SROUND[ ]	/* SuperRound */
MDAP[1]	/* MoveDirectAbsPt */
SHZ[1]	/* ShiftZoneByLastPoint */
RTG[ ]	/* RoundToGrid */
SVTCA[0]	/* SetFreedomAndProjectionVectorToAxis */
MIAP[1]	/* MoveIndirectAbsPt */
SLOOP[ ]	/* SetLoopVariable */
ALIGNRP[ ]	/* AlignRelativePt */
MIAP[1]	/* MoveIndirectAbsPt */
MDAP[1]	/* MoveDirectAbsPt */
MDAP[1]	/* MoveDirectAbsPt */
SRP0[ ]	/* SetRefPoint0 */
MIRP[11101]	/* MoveIndirectRelPt */
SRP0[ ]	/* SetRefPoint0 */
MIRP[11101]	/* MoveIndirectRelPt */
SLOOP[ ]	/* SetLoopVariable */
ALIGNRP[ ]	/* AlignRelativePt */
SVTCA[1]	/* SetFreedomAndProjectionVectorToAxis */
MDAP[0]	/* MoveDirectAbsPt */
MDAP[0]	/* MoveDirectAbsPt */
MDAP[0]	/* MoveDirectAbsPt */
MDAP[0]	/* MoveDirectAbsPt */
MDAP[0]	/* MoveDirectAbsPt */
MDAP[0]	/* MoveDirectAbsPt */
MDAP[0]	/* MoveDirectAbsPt */
MDAP[0]	/* MoveDirectAbsPt */
MDAP[0]	/* MoveDirectAbsPt */
MDAP[0]	/* MoveDirectAbsPt */
MDAP[0]	/* MoveDirectAbsPt */
MDAP[0]	/* MoveDirectAbsPt */
MDAP[0]	/* MoveDirectAbsPt */
MDAP[0]	/* MoveDirectAbsPt */
MDAP[0]	/* MoveDirectAbsPt */
MDAP[0]	/* MoveDirectAbsPt */
MDAP[0]	/* MoveDirectAbsPt */
MDAP[0]	/* MoveDirectAbsPt */
MDAP[0]	/* MoveDirectAbsPt */
MDAP[0]	/* MoveDirectAbsPt */
SVTCA[0]	/* SetFreedomAndProjectionVectorToAxis */
MDAP[0]	/* MoveDirectAbsPt */
MDAP[0]	/* MoveDirectAbsPt */
MDAP[0]	/* MoveDirectAbsPt */
MDAP[0]	/* MoveDirectAbsPt */
MDAP[0]	/* MoveDirectAbsPt */
MDAP[0]	/* MoveDirectAbsPt */
MDAP[0]	/* MoveDirectAbsPt */
MDAP[0]	/* MoveDirectAbsPt */
MDAP[0]	/* MoveDirectAbsPt */
MDAP[0]	/* MoveDirectAbsPt */
IUP[1]	/* InterpolateUntPts */
IUP[0]	/* InterpolateUntPts */
SVTCA[1]	/* SetFreedomAndProjectionVectorToAxis */
MD[0]	/* MeasureDistance */
ROUND[00]	/* Round */
PUSHW[ ]	/* 2 values pushed */
69 117
MD[0]	/* MeasureDistance */
ROUND[00]	/* Round */
SUB[ ]	/* Subtract */
PUSHB[ ]	/* 1 value pushed */
64
GT[ ]	/* GreaterThan */
IF[ ]	/* If */
SHPIX[ ]	/* ShiftZoneByPixel */
SRP1[ ]	/* SetRefPoint1 */
SHZ[1]	/* ShiftZoneByLastPoint */
PUSHW[ ]	/* 2 values pushed */
117 -64
SHPIX[ ]	/* ShiftZoneByPixel */
EIF[ ]	/* EndIf */";
};
width = 2168;
},
{
layerId = "EFA29B47-3DC8-4F8A-813A-13C07BF7C797";
shapes = (
{
closed = 1;
nodes = (
(1739,-2,o),
(1835,102,qs),
(1916,190,o),
(1916,323,qs),
(1918,515,o),
(1703,644,q),
(1823,716,o),
(1890,811,qs),
(1947,892,o),
(1995,1038,q),
(2055,1038,l),
(2055,1198,l),
(1098,1198,l),
(1126,1325,o),
(1207,1422,qs),
(1325,1561,o),
(1490,1561,qs),
(1547,1561,o),
(1616,1541,qs),
(1750,1501,o),
(1902,1405,qs),
(2045,1314,o),
(2151,1208,q),
(2151,1416,l),
(2134,1428,o),
(2132,1431,q),
(2013,1520,o),
(2008,1523,qs),
(1702,1718,o),
(1490,1718,qs),
(1264,1718,o),
(1107,1562,qs),
(957,1413,o),
(938,1198,q),
(880,1198,l),
(880,1038,l),
(937,1038,l),
(935,848,o),
(947,722,qs),
(974,412,o),
(1106,225,qs),
(1267,-2,o),
(1559,-2,qs)
);
},
{
closed = 1;
nodes = (
(896,-104,o),
(896,-73,qs),
(896,-63,o),
(889,-52,qs),
(819,77,l),
(762,216,o),
(762,395,qs),
(762,403,o),
(784,648,qs),
(793,802,o),
(793,866,q),
(795,891,o),
(795,914,qs),
(795,1097,o),
(711,1183,qs),
(623,1274,o),
(425,1280,qs),
(22,1292,o),
(22,935,qs),
(22,785,o),
(135,694,qs),
(234,615,o),
(367,615,qs),
(495,615,o),
(615,685,q),
(593,517,o),
(593,413,qs),
(593,274,o),
(635,147,qs),
(686,-5,o),
(780,-75,qs),
(819,-104,o),
(860,-104,qs)
);
},
{
closed = 1;
nodes = (
(291,769,o),
(239,812,qs),
(183,859,o),
(181,944,qs),
(176,1123,o),
(405,1123,qs),
(633,1123,o),
(631,945,qs),
(629,858,o),
(530,808,qs),
(451,769,o),
(377,769,qs)
);
},
{
closed = 1;
nodes = (
(1249,147,o),
(1133,550,q),
(1425,550,o),
(1495,560,qs),
(1503,561,o),
(1511,561,qs),
(1587,561,o),
(1753,408,o),
(1757,335,qs),
(1763,246,o),
(1699,198,qs),
(1643,157,o),
(1551,154,qs)
);
},
{
closed = 1;
nodes = (
(1094,850,o),
(1094,1038,q),
(1835,1038,l),
(1791,925,o),
(1719,840,qs),
(1662,772,o),
(1539,729,qs),
(1476,706,o),
(1108,706,q)
);
}
);
userData = {
assembly = "NPUSHB[ ]	/* 61 values pushed */
1 110 110 64 111 38 106 90 86 80 66 60 58 39 2 103 97 96 88 82 78 70 64 58 56 48 43 39 38 27 26 15 13 8 7 6 99 4 19 96 88 26 25 9 5 8 4 6 32 50 19 0 28 27 7 3 6 1 1 64 70
SROUND[ ]	/* SuperRound */
MDAP[1]	/* MoveDirectAbsPt */
SHZ[1]	/* ShiftZoneByLastPoint */
RTG[ ]	/* RoundToGrid */
SVTCA[0]	/* SetFreedomAndProjectionVectorToAxis */
MIAP[1]	/* MoveIndirectAbsPt */
SLOOP[ ]	/* SetLoopVariable */
ALIGNRP[ ]	/* AlignRelativePt */
MIAP[1]	/* MoveIndirectAbsPt */
MDAP[1]	/* MoveDirectAbsPt */
MDAP[1]	/* MoveDirectAbsPt */
SRP0[ ]	/* SetRefPoint0 */
MIRP[11101]	/* MoveIndirectRelPt */
SLOOP[ ]	/* SetLoopVariable */
ALIGNRP[ ]	/* AlignRelativePt */
SRP0[ ]	/* SetRefPoint0 */
MIRP[11101]	/* MoveIndirectRelPt */
SVTCA[1]	/* SetFreedomAndProjectionVectorToAxis */
MDAP[0]	/* MoveDirectAbsPt */
MDAP[0]	/* MoveDirectAbsPt */
MDAP[0]	/* MoveDirectAbsPt */
MDAP[0]	/* MoveDirectAbsPt */
MDAP[0]	/* MoveDirectAbsPt */
MDAP[0]	/* MoveDirectAbsPt */
MDAP[0]	/* MoveDirectAbsPt */
MDAP[0]	/* MoveDirectAbsPt */
MDAP[0]	/* MoveDirectAbsPt */
MDAP[0]	/* MoveDirectAbsPt */
MDAP[0]	/* MoveDirectAbsPt */
MDAP[0]	/* MoveDirectAbsPt */
MDAP[0]	/* MoveDirectAbsPt */
MDAP[0]	/* MoveDirectAbsPt */
MDAP[0]	/* MoveDirectAbsPt */
MDAP[0]	/* MoveDirectAbsPt */
MDAP[0]	/* MoveDirectAbsPt */
MDAP[0]	/* MoveDirectAbsPt */
MDAP[0]	/* MoveDirectAbsPt */
MDAP[0]	/* MoveDirectAbsPt */
MDAP[0]	/* MoveDirectAbsPt */
SVTCA[0]	/* SetFreedomAndProjectionVectorToAxis */
MDAP[0]	/* MoveDirectAbsPt */
MDAP[0]	/* MoveDirectAbsPt */
MDAP[0]	/* MoveDirectAbsPt */
MDAP[0]	/* MoveDirectAbsPt */
MDAP[0]	/* MoveDirectAbsPt */
MDAP[0]	/* MoveDirectAbsPt */
MDAP[0]	/* MoveDirectAbsPt */
MDAP[0]	/* MoveDirectAbsPt */
MDAP[0]	/* MoveDirectAbsPt */
IUP[1]	/* InterpolateUntPts */
IUP[0]	/* InterpolateUntPts */
SVTCA[1]	/* SetFreedomAndProjectionVectorToAxis */
MD[0]	/* MeasureDistance */
ROUND[00]	/* Round */
PUSHW[ ]	/* 2 values pushed */
64 110
MD[0]	/* MeasureDistance */
ROUND[00]	/* Round */
SUB[ ]	/* Subtract */
PUSHB[ ]	/* 1 value pushed */
64
GT[ ]	/* GreaterThan */
IF[ ]	/* If */
SHPIX[ ]	/* ShiftZoneByPixel */
SRP1[ ]	/* SetRefPoint1 */
SHZ[1]	/* ShiftZoneByLastPoint */
PUSHW[ ]	/* 2 values pushed */
110 -64
SHPIX[ ]	/* ShiftZoneByPixel */
EIF[ ]	/* EndIf */";
};
width = 2168;
},
{
layerId = "3C10D975-8B50-4E95-9C62-C508D3823290";
shapes = (
{
closed = 1;
nodes = (
(1744,-18,o),
(1856,77,qs),
(1954,160,o),
(1946,339,qs),
(1937,513,o),
(1761,633,q),
(1846,698,o),
(1895,789,qs),
(1940,872,o),
(1981,987,q),
(2056,987,l),
(2056,1201,l),
(1193,1201,l),
(1251,1479,o),
(1490,1479,qs),
(1656,1479,o),
(1780,1416,qs),
(1859,1376,o),
(1934,1327,qs),
(1980,1298,o),
(2077,1229,q),
(2077,1450,l),
(2011,1503,o),
(1949,1547,qs),
(1871,1602,o),
(1775,1638,qs),
(1632,1692,o),
(1490,1692,qs),
(1044,1692,o),
(979,1201,q),
(934,1201,l),
(934,987,l),
(974,987,l),
(974,704,o),
(1027,460,qs),
(1063,291,o),
(1225,119,qs),
(1284,55,o),
(1395,17,qs),
(1496,-18,o),
(1592,-18,qs)
);
},
{
closed = 1;
nodes = (
(903,-98,o),
(903,-35,qs),
(903,-15,o),
(866,42,qs),
(822,111,o),
(818,120,qs),
(767,235,o),
(767,407,qs),
(767,413,o),
(787,643,qs),
(796,789,o),
(796,850,q),
(798,876,o),
(798,900,qs),
(798,1296,o),
(426,1296,qs),
(187,1296,o),
(88,1202,qs),
(-4,1113,o),
(-1,917,qs),
(2,760,o),
(114,672,qs),
(213,593,o),
(363,593,qs),
(468,593,o),
(563,634,q),
(551,525,o),
(551,424,qs),
(551,324,o),
(585,205,qs),
(627,58,o),
(701,-24,qs),
(725,-51,o),
(767,-73,qs),
(814,-98,o),
(847,-98,qs)
);
},
{
closed = 1;
nodes = (
(276,812,o),
(243,836,qs),
(204,864,o),
(202,934,qs),
(200,1010,o),
(236,1043,qs),
(278,1079,o),
(388,1079,qs),
(587,1079,o),
(585,936,qs),
(585,870,o),
(501,828,qs),
(446,801,o),
(359,806,qs)
);
},
{
closed = 1;
nodes = (
(1345,192,o),
(1238,506,q),
(1462,507,o),
(1518,515,qs),
(1582,524,o),
(1737,369,o),
(1737,296,qs),
(1737,202,o),
(1590,198,qs)
);
},
{
closed = 1;
nodes = (
(1416,733,o),
(1200,734,q),
(1189,871,o),
(1188,987,q),
(1765,987,l),
(1682,800,o),
(1537,755,qs),
(1470,734,o),
(1370,732,q)
);
}
);
userData = {
assembly = "NPUSHB[ ]	/* 59 values pushed */
1 109 109 64 110 0 103 95 90 86 81 57 49 47 6 0 107 99 92 88 85 77 71 65 59 53 47 45 40 31 30 17 15 10 9 8 0 85 77 30 29 11 5 10 4 8 34 73 21 0 32 31 9 3 8 1 1 53 70
SROUND[ ]	/* SuperRound */
MDAP[1]	/* MoveDirectAbsPt */
SHZ[1]	/* ShiftZoneByLastPoint */
RTG[ ]	/* RoundToGrid */
SVTCA[0]	/* SetFreedomAndProjectionVectorToAxis */
MIAP[1]	/* MoveIndirectAbsPt */
SLOOP[ ]	/* SetLoopVariable */
ALIGNRP[ ]	/* AlignRelativePt */
MIAP[1]	/* MoveIndirectAbsPt */
MDAP[1]	/* MoveDirectAbsPt */
MDAP[1]	/* MoveDirectAbsPt */
SRP0[ ]	/* SetRefPoint0 */
MIRP[11101]	/* MoveIndirectRelPt */
SLOOP[ ]	/* SetLoopVariable */
ALIGNRP[ ]	/* AlignRelativePt */
SVTCA[1]	/* SetFreedomAndProjectionVectorToAxis */
MDAP[0]	/* MoveDirectAbsPt */
MDAP[0]	/* MoveDirectAbsPt */
MDAP[0]	/* MoveDirectAbsPt */
MDAP[0]	/* MoveDirectAbsPt */
MDAP[0]	/* MoveDirectAbsPt */
MDAP[0]	/* MoveDirectAbsPt */
MDAP[0]	/* MoveDirectAbsPt */
MDAP[0]	/* MoveDirectAbsPt */
MDAP[0]	/* MoveDirectAbsPt */
MDAP[0]	/* MoveDirectAbsPt */
MDAP[0]	/* MoveDirectAbsPt */
MDAP[0]	/* MoveDirectAbsPt */
MDAP[0]	/* MoveDirectAbsPt */
MDAP[0]	/* MoveDirectAbsPt */
MDAP[0]	/* MoveDirectAbsPt */
MDAP[0]	/* MoveDirectAbsPt */
MDAP[0]	/* MoveDirectAbsPt */
MDAP[0]	/* MoveDirectAbsPt */
MDAP[0]	/* MoveDirectAbsPt */
MDAP[0]	/* MoveDirectAbsPt */
MDAP[0]	/* MoveDirectAbsPt */
SVTCA[0]	/* SetFreedomAndProjectionVectorToAxis */
MDAP[0]	/* MoveDirectAbsPt */
MDAP[0]	/* MoveDirectAbsPt */
MDAP[0]	/* MoveDirectAbsPt */
MDAP[0]	/* MoveDirectAbsPt */
MDAP[0]	/* MoveDirectAbsPt */
MDAP[0]	/* MoveDirectAbsPt */
MDAP[0]	/* MoveDirectAbsPt */
MDAP[0]	/* MoveDirectAbsPt */
MDAP[0]	/* MoveDirectAbsPt */
MDAP[0]	/* MoveDirectAbsPt */
IUP[1]	/* InterpolateUntPts */
IUP[0]	/* InterpolateUntPts */
SVTCA[1]	/* SetFreedomAndProjectionVectorToAxis */
MD[0]	/* MeasureDistance */
ROUND[00]	/* Round */
PUSHW[ ]	/* 2 values pushed */
53 109
MD[0]	/* MeasureDistance */
ROUND[00]	/* Round */
SUB[ ]	/* Subtract */
PUSHB[ ]	/* 1 value pushed */
64
GT[ ]	/* GreaterThan */
IF[ ]	/* If */
SHPIX[ ]	/* ShiftZoneByPixel */
SRP1[ ]	/* SetRefPoint1 */
SHZ[1]	/* ShiftZoneByLastPoint */
PUSHW[ ]	/* 2 values pushed */
109 -64
SHPIX[ ]	/* ShiftZoneByPixel */
EIF[ ]	/* EndIf */";
};
width = 2077;
}
);
note = less;
unicode = 60;
},
{
glyphname = equal;
lastChange = "2025-04-20 14:05:12 +0000";
layers = (
{
layerId = m01;
shapes = (
{
closed = 1;
nodes = (
(1068,792,l),
(1068,912,l),
(112,912,l),
(112,792,l)
);
},
{
closed = 1;
nodes = (
(1068,288,l),
(1068,408,l),
(112,408,l),
(112,288,l)
);
}
);
userData = {
assembly = "NPUSHB[ ]	/* 29 values pushed */
1 8 8 64 9 2 7 6 5 4 3 2 1 0 3 0 4 1 6 5 4 4 2 1 7 4 1 0 70
SROUND[ ]	/* SuperRound */
MDAP[1]	/* MoveDirectAbsPt */
SHZ[1]	/* ShiftZoneByLastPoint */
RTG[ ]	/* RoundToGrid */
SVTCA[0]	/* SetFreedomAndProjectionVectorToAxis */
MDAP[1]	/* MoveDirectAbsPt */
ALIGNRP[ ]	/* AlignRelativePt */
MDAP[1]	/* MoveDirectAbsPt */
ALIGNRP[ ]	/* AlignRelativePt */
SRP0[ ]	/* SetRefPoint0 */
MIRP[11101]	/* MoveIndirectRelPt */
ALIGNRP[ ]	/* AlignRelativePt */
SRP0[ ]	/* SetRefPoint0 */
MIRP[11101]	/* MoveIndirectRelPt */
ALIGNRP[ ]	/* AlignRelativePt */
SVTCA[1]	/* SetFreedomAndProjectionVectorToAxis */
MDAP[0]	/* MoveDirectAbsPt */
MDAP[0]	/* MoveDirectAbsPt */
MDAP[0]	/* MoveDirectAbsPt */
MDAP[0]	/* MoveDirectAbsPt */
MDAP[0]	/* MoveDirectAbsPt */
MDAP[0]	/* MoveDirectAbsPt */
MDAP[0]	/* MoveDirectAbsPt */
MDAP[0]	/* MoveDirectAbsPt */
SVTCA[0]	/* SetFreedomAndProjectionVectorToAxis */
IUP[1]	/* InterpolateUntPts */
IUP[0]	/* InterpolateUntPts */
SVTCA[1]	/* SetFreedomAndProjectionVectorToAxis */
MD[0]	/* MeasureDistance */
ROUND[00]	/* Round */
PUSHW[ ]	/* 2 values pushed */
0 8
MD[0]	/* MeasureDistance */
ROUND[00]	/* Round */
SUB[ ]	/* Subtract */
PUSHB[ ]	/* 1 value pushed */
64
GT[ ]	/* GreaterThan */
IF[ ]	/* If */
SHPIX[ ]	/* ShiftZoneByPixel */
SRP1[ ]	/* SetRefPoint1 */
SHZ[1]	/* ShiftZoneByLastPoint */
PUSHW[ ]	/* 2 values pushed */
8 -64
SHPIX[ ]	/* ShiftZoneByPixel */
EIF[ ]	/* EndIf */";
};
width = 1244;
},
{
layerId = "EFA29B47-3DC8-4F8A-813A-13C07BF7C797";
shapes = (
{
closed = 1;
nodes = (
(1068,758,l),
(1068,916,l),
(142,916,l),
(142,758,l)
);
},
{
closed = 1;
nodes = (
(1068,286,l),
(1068,440,l),
(142,440,l),
(142,286,l)
);
}
);
userData = {
assembly = "NPUSHB[ ]	/* 29 values pushed */
1 8 8 64 9 0 7 6 5 4 3 2 1 0 7 6 4 4 1 0 4 2 3 2 5 4 1 1 70
SROUND[ ]	/* SuperRound */
MDAP[1]	/* MoveDirectAbsPt */
SHZ[1]	/* ShiftZoneByLastPoint */
RTG[ ]	/* RoundToGrid */
SVTCA[0]	/* SetFreedomAndProjectionVectorToAxis */
MDAP[1]	/* MoveDirectAbsPt */
ALIGNRP[ ]	/* AlignRelativePt */
MDAP[1]	/* MoveDirectAbsPt */
ALIGNRP[ ]	/* AlignRelativePt */
SRP0[ ]	/* SetRefPoint0 */
MIRP[11101]	/* MoveIndirectRelPt */
ALIGNRP[ ]	/* AlignRelativePt */
SRP0[ ]	/* SetRefPoint0 */
MIRP[11101]	/* MoveIndirectRelPt */
ALIGNRP[ ]	/* AlignRelativePt */
SVTCA[1]	/* SetFreedomAndProjectionVectorToAxis */
MDAP[0]	/* MoveDirectAbsPt */
MDAP[0]	/* MoveDirectAbsPt */
MDAP[0]	/* MoveDirectAbsPt */
MDAP[0]	/* MoveDirectAbsPt */
MDAP[0]	/* MoveDirectAbsPt */
MDAP[0]	/* MoveDirectAbsPt */
MDAP[0]	/* MoveDirectAbsPt */
MDAP[0]	/* MoveDirectAbsPt */
SVTCA[0]	/* SetFreedomAndProjectionVectorToAxis */
IUP[1]	/* InterpolateUntPts */
IUP[0]	/* InterpolateUntPts */
SVTCA[1]	/* SetFreedomAndProjectionVectorToAxis */
MD[0]	/* MeasureDistance */
ROUND[00]	/* Round */
PUSHW[ ]	/* 2 values pushed */
1 8
MD[0]	/* MeasureDistance */
ROUND[00]	/* Round */
SUB[ ]	/* Subtract */
PUSHB[ ]	/* 1 value pushed */
64
GT[ ]	/* GreaterThan */
IF[ ]	/* If */
SHPIX[ ]	/* ShiftZoneByPixel */
SRP1[ ]	/* SetRefPoint1 */
SHZ[1]	/* ShiftZoneByLastPoint */
PUSHW[ ]	/* 2 values pushed */
8 -64
SHPIX[ ]	/* ShiftZoneByPixel */
EIF[ ]	/* EndIf */";
};
width = 1244;
},
{
layerId = "3C10D975-8B50-4E95-9C62-C508D3823290";
shapes = (
{
closed = 1;
nodes = (
(1198,764,l),
(1198,974,l),
(138,974,l),
(138,764,l)
);
},
{
closed = 1;
nodes = (
(1198,224,l),
(1198,434,l),
(138,434,l),
(138,224,l)
);
}
);
userData = {
assembly = "NPUSHB[ ]	/* 29 values pushed */
1 8 8 64 9 0 7 6 5 4 3 2 1 0 2 1 4 0 7 4 4 5 3 0 6 5 1 2 70
SROUND[ ]	/* SuperRound */
MDAP[1]	/* MoveDirectAbsPt */
SHZ[1]	/* ShiftZoneByLastPoint */
RTG[ ]	/* RoundToGrid */
SVTCA[0]	/* SetFreedomAndProjectionVectorToAxis */
MDAP[1]	/* MoveDirectAbsPt */
ALIGNRP[ ]	/* AlignRelativePt */
MDAP[1]	/* MoveDirectAbsPt */
ALIGNRP[ ]	/* AlignRelativePt */
SRP0[ ]	/* SetRefPoint0 */
MIRP[11101]	/* MoveIndirectRelPt */
ALIGNRP[ ]	/* AlignRelativePt */
SRP0[ ]	/* SetRefPoint0 */
MIRP[11101]	/* MoveIndirectRelPt */
ALIGNRP[ ]	/* AlignRelativePt */
SVTCA[1]	/* SetFreedomAndProjectionVectorToAxis */
MDAP[0]	/* MoveDirectAbsPt */
MDAP[0]	/* MoveDirectAbsPt */
MDAP[0]	/* MoveDirectAbsPt */
MDAP[0]	/* MoveDirectAbsPt */
MDAP[0]	/* MoveDirectAbsPt */
MDAP[0]	/* MoveDirectAbsPt */
MDAP[0]	/* MoveDirectAbsPt */
MDAP[0]	/* MoveDirectAbsPt */
SVTCA[0]	/* SetFreedomAndProjectionVectorToAxis */
IUP[1]	/* InterpolateUntPts */
IUP[0]	/* InterpolateUntPts */
SVTCA[1]	/* SetFreedomAndProjectionVectorToAxis */
MD[0]	/* MeasureDistance */
ROUND[00]	/* Round */
PUSHW[ ]	/* 2 values pushed */
2 8
MD[0]	/* MeasureDistance */
ROUND[00]	/* Round */
SUB[ ]	/* Subtract */
PUSHB[ ]	/* 1 value pushed */
64
GT[ ]	/* GreaterThan */
IF[ ]	/* If */
SHPIX[ ]	/* ShiftZoneByPixel */
SRP1[ ]	/* SetRefPoint1 */
SHZ[1]	/* ShiftZoneByLastPoint */
PUSHW[ ]	/* 2 values pushed */
8 -64
SHPIX[ ]	/* ShiftZoneByPixel */
EIF[ ]	/* EndIf */";
};
width = 1372;
}
);
note = equal;
unicode = 61;
},
